<svg id="Capa_1" enable-background="new 0 0 511.999 511.999" height="512" viewBox="0 0 511.999 511.999" width="512" xmlns="http://www.w3.org/2000/svg" xmlns:xlink="http://www.w3.org/1999/xlink"><linearGradient id="SVGID_1_" gradientUnits="userSpaceOnUse" x1="256" x2="256" y1="481" y2="31"><stop offset="0" stop-color="#00b59c"/><stop offset="1" stop-color="#9cffac"/></linearGradient><linearGradient id="SVGID_2_" gradientUnits="userSpaceOnUse" x1="256" x2="256" y1="406" y2="106"><stop offset="0" stop-color="#c3ffe8"/><stop offset=".9973" stop-color="#f0fff4"/></linearGradient><g id="Global_2_"><g><g><path d="m391 256c0-74.558-60.442-135-135-135s-135 60.442-135 135 60.442 135 135 135 135-60.442 135-135zm88.715-32.124c-15.704-109.951-112.446-192.876-223.715-192.876-79.366 0-153.721 42.539-194.033 111.02-4.219 7.134-1.816 16.333 5.303 20.522s16.348 1.875 20.537-5.317c34.951-59.355 99.404-96.225 168.193-96.225 96.416 0 180.414 71.851 194.008 167.124 1.197 8.265 8.876 13.909 16.963 12.729 8.203-1.172 13.915-8.774 12.744-16.977zm-34.985 125.581c-7.119-4.189-16.318-1.875-20.537 5.317-34.951 59.356-99.404 96.226-168.193 96.226-96.416 0-180.414-71.851-194.008-167.124-1.172-8.203-8.906-13.843-16.963-12.729-8.203 1.172-13.916 8.774-12.744 16.978 15.703 109.95 112.445 192.875 223.715 192.875 79.365 0 153.721-42.539 194.033-111.021 4.219-7.134 1.816-16.333-5.303-20.522z" fill="url(#SVGID_1_)"/></g></g><g><g><path d="m58.418 219.291c-5.098-10.166-21.738-10.166-26.836 0l-30 60c-2.314 4.644-2.08 10.166.645 14.59 2.753 4.423 7.587 7.119 12.773 7.119h60c5.186 0 10.02-2.695 12.773-7.119 2.725-4.424 2.959-9.946.645-14.59zm451.355-1.172c-2.754-4.424-7.588-7.119-12.773-7.119h-60c-5.186 0-10.02 2.695-12.773 7.119-2.725 4.424-2.959 9.946-.645 14.59l30 60c2.549 5.083 7.734 8.291 13.418 8.291s10.869-3.208 13.418-8.291l30-60c2.314-4.644 2.08-10.166-.645-14.59zm-253.773-112.119c-82.705 0-150 67.295-150 150s67.295 150 150 150 150-67.295 150-150-67.295-150-150-150zm-118.484 165h58.775c1.284 35.75 7.165 71.435 18.113 97.134-41.093-15.301-71.21-52.299-76.888-97.134zm58.775-30h-58.775c5.678-44.835 35.795-81.833 76.888-97.134-10.948 25.699-16.83 61.384-18.113 97.134zm59.709 135c-7.185 0-26.825-36.319-29.474-105h58.949c-2.65 68.681-22.29 105-29.475 105zm-29.475-135c2.65-68.681 22.289-105 29.474-105s26.825 36.319 29.474 105zm71.071 127.134c10.948-25.699 16.829-61.384 18.113-97.134h58.775c-5.678 44.835-35.796 81.833-76.888 97.134zm18.113-127.134c-1.284-35.75-7.165-71.435-18.113-97.134 41.093 15.3 71.21 52.299 76.888 97.134z" fill="url(#SVGID_2_)"/></g></g></g></svg>