<svg id="Capa_1" enable-background="new 0 0 512 512" height="512" viewBox="0 0 512 512" width="512" xmlns="http://www.w3.org/2000/svg" xmlns:xlink="http://www.w3.org/1999/xlink"><linearGradient id="SVGID_1_" gradientUnits="userSpaceOnUse" x1="256" x2="256" y1="512" y2="0"><stop offset="0" stop-color="#a93aff"/><stop offset="1" stop-color="#ff81ff"/></linearGradient><linearGradient id="SVGID_2_" gradientUnits="userSpaceOnUse" x1="256" x2="256" y1="420.987" y2="90.987"><stop offset="0" stop-color="#ffbef9"/><stop offset="1" stop-color="#fff1ff"/></linearGradient><g><g><g><path d="m498.139 314.844-20.332-15.073c2.432-14.517 3.428-29.209 2.959-43.784.469-14.575-.527-29.268-2.959-43.784l20.332-15.073c5.537-4.102 7.559-11.44 4.922-17.798l-22.939-55.43c-2.637-6.357-9.434-10.078-16.055-9.097l-25.078 3.721c-14.473-20.347-32.021-37.896-52.295-52.339l4.602-26.025c1.025-6.797-2.725-13.418-9.082-16.055l-55.43-22.954c-6.358-2.651-13.682-.615-17.784 4.922l-15.998 21.323c-24.551-4.16-49.395-4.146-74.004-.015l-15.998-21.308c-4.102-5.537-11.396-7.573-17.783-4.922l-55.43 22.954c-6.357 2.637-10.107 9.258-9.082 16.055l4.602 26.025c-20.332 14.502-37.881 32.051-52.324 52.354l-25.049-3.735c-6.826-.952-13.447 2.725-16.055 9.097l-22.939 55.429c-2.637 6.357-.615 13.696 4.922 17.798l20.332 15.059c-2.432 14.59-3.428 29.297-2.959 43.301-.469 14.824.527 29.678 2.959 44.297l-20.332 15.059c-5.537 4.102-7.559 11.44-4.922 17.798l22.939 55.43c2.607 6.357 9.199 9.961 16.055 9.097l25.049-3.735c14.443 20.303 31.992 37.852 52.324 52.354l-4.691 26.049c-1.025 6.797 2.725 13.418 9.082 16.055l55.43 22.954c6.387 2.651 13.682.63 17.783-4.922l16.088-21.332c24.668 4.131 49.453 4.146 74.004-.015l16.088 21.347c4.073 5.492 11.384 7.571 17.783 4.922l55.43-22.954c6.357-2.637 10.107-9.258 9.082-16.055l-4.691-26.049c20.273-14.443 37.822-31.992 52.295-52.339l25.078 3.721c6.68.908 13.418-2.754 16.055-9.097l22.939-55.43c2.635-6.36.614-13.699-4.923-17.801z" fill="url(#SVGID_1_)"/></g></g><g><g><path d="m256 90.987c-90.901 0-165 74.099-165 165 0 90.899 74.099 165 165 165s165-74.101 165-165c0-90.901-74.099-165-165-165zm-49.501 184.499c6 5.7 6 15.3 0 21-5.396 6-15.6 6.002-20.999 0l-30-30c-6-5.7-6-15.3 0-21.001l30-30c5.7-5.999 15.298-5.999 20.999 0 6 5.7 6 15.3 0 21l-19.199 19.501zm71.701-45.899-15 60c-2.556 9.799-13.626 13.14-18.3 10.8-8.101-1.8-12.9-9.901-11.1-17.999l15-60c2.1-8.101 10.199-12.9 18.3-10.802 8.101 1.8 12.9 9.9 11.1 18.001zm78.299 36.899-30 30c-5.396 6-15.6 6.002-20.999 0-6-5.7-6-15.3 0-21l19.199-19.499-19.199-19.501c-6-5.7-6-15.3 0-21 5.7-5.999 15.298-5.999 20.999 0l30 30c6.001 5.7 6.001 15.3 0 21z" fill="url(#SVGID_2_)"/></g></g></g></svg>