<svg id="Capa_1" enable-background="new 0 0 512 512" height="512" viewBox="0 0 512 512" width="512" xmlns="http://www.w3.org/2000/svg" xmlns:xlink="http://www.w3.org/1999/xlink"><linearGradient id="SVGID_1_" gradientUnits="userSpaceOnUse" x1="256" x2="256" y1="512" y2="0"><stop offset="0" stop-color="#5558ff"/><stop offset="1" stop-color="#00c0ff"/></linearGradient><linearGradient id="SVGID_2_" gradientUnits="userSpaceOnUse" x1="256" x2="256" y1="512" y2="0"><stop offset="0" stop-color="#addcff"/><stop offset=".5028" stop-color="#eaf6ff"/><stop offset="1" stop-color="#eaf6ff"/></linearGradient><g><g><g><path d="m436 181c0-99.427-80.719-181-180-181-99.427 0-180 81.731-180 181 0 26.752 5.875 52.155 16.389 75-10.514 22.845-16.389 48.248-16.389 75 0 99.427 80.719 181 180 181 99.427 0 180-81.731 180-181 0-26.752-5.875-52.155-16.389-75 10.514-22.845 16.389-48.248 16.389-75z" fill="url(#SVGID_1_)"/></g></g><g><g><path d="m419.611 256c-28.493-61.91-91.111-105-163.611-105s-135.118 43.09-163.611 105c28.493 61.91 91.111 105 163.611 105s135.118-43.09 163.611-105zm-163.611 45c-24.813 0-45-20.187-45-45s20.187-45 45-45 45 20.187 45 45-20.187 45-45 45zm-241-271h114.787l55.606 55.607c5.858 5.858 15.356 5.857 21.213 0 5.858-5.858 5.858-15.355 0-21.213l-60-60c-2.812-2.814-6.627-4.394-10.606-4.394h-121c-8.284 0-15 6.716-15 15s6.716 15 15 15zm30 30h-30c-8.284 0-15 6.716-15 15s6.716 15 15 15h30c8.284 0 15-6.716 15-15s-6.716-15-15-15zm452 422h-114.787l-55.606-55.607c-5.857-5.858-15.355-5.858-21.213 0s-5.858 15.355 0 21.213l60 60c2.812 2.814 6.627 4.394 10.606 4.394h121c8.284 0 15-6.716 15-15s-6.716-15-15-15zm-30-30h30c8.284 0 15-6.716 15-15s-6.716-15-15-15h-30c-8.284 0-15 6.716-15 15s6.716 15 15 15z" fill="url(#SVGID_2_)"/></g></g></g></svg>