<svg id="Capa_1" enable-background="new 0 0 512 512" height="512" viewBox="0 0 512 512" width="512" xmlns="http://www.w3.org/2000/svg" xmlns:xlink="http://www.w3.org/1999/xlink"><linearGradient id="SVGID_1_" gradientUnits="userSpaceOnUse" x1="256" x2="256" y1="512" y2="0"><stop offset="0" stop-color="#a93aff"/><stop offset="1" stop-color="#ff81ff"/></linearGradient><linearGradient id="SVGID_2_" gradientUnits="userSpaceOnUse" x1="256" x2="256" y1="451" y2="61.674"><stop offset="0" stop-color="#ffbef9"/><stop offset="1" stop-color="#fff1ff"/></linearGradient><g><g><g><path d="m436 0h-360c-41.367 0-76 34.647-76 76v360c0 41.353 34.633 76 76 76h360c41.367 0 76-34.647 76-76v-360c0-41.353-34.633-76-76-76z" fill="url(#SVGID_1_)"/></g></g><g><g><path d="m256 181c-41.367 0-75 33.647-75 75s33.633 75 75 75 75-33.647 75-75-33.633-75-75-75zm158.906-37.822c-5.553-7.73-16.476-8.236-22.822-1.89l-21.961 21.969c-5.19 5.192-5.559 13.166-1.509 19.289 13.979 21.133 22.386 46.207 22.386 73.454 0 27.244-8.406 52.318-22.384 73.451-4.05 6.124-3.68 14.099 1.512 19.29l21.956 21.956c6.464 6.498 17.343 5.722 22.822-1.875 23.614-33.047 36.094-72.055 36.094-112.822 0-40.752-12.48-79.761-36.094-112.822zm-66.166 226.955c-5.191-5.193-13.168-5.564-19.293-1.514-21.131 13.976-46.204 22.381-73.447 22.381s-52.316-8.405-73.447-22.38c-6.125-4.051-14.101-3.679-19.292 1.514l-21.958 21.965c-6.575 6.606-5.608 17.44 1.875 22.808 33.076 23.613 72.07 36.093 112.822 36.093s79.746-12.48 112.822-36.094c7.484-5.368 8.449-16.202 1.875-22.808zm-185.48-228.266c5.191 5.193 13.168 5.564 19.292 1.514 21.132-13.976 46.205-22.381 73.448-22.381s52.316 8.405 73.447 22.38c6.125 4.051 14.101 3.679 19.293-1.514l21.958-21.965c6.575-6.606 5.608-17.44-1.875-22.808-66.152-47.227-159.492-47.227-225.645 0-7.484 5.368-8.449 16.202-1.875 22.808zm-19.876 187.584c-13.977-21.133-22.384-46.207-22.384-73.451 0-27.247 8.407-52.321 22.386-73.455 4.05-6.123 3.681-14.097-1.509-19.289l-21.961-21.969c-6.303-6.303-17.229-5.897-22.822 1.89-23.614 33.062-36.094 72.071-36.094 112.823 0 40.767 12.48 79.775 36.094 112.822 5.492 7.614 16.377 8.354 22.822 1.875l21.956-21.956c5.191-5.191 5.562-13.167 1.512-19.29z" fill="url(#SVGID_2_)"/></g></g></g></svg>