<svg id="Capa_1" enable-background="new 0 0 512 512" height="512" viewBox="0 0 512 512" width="512" xmlns="http://www.w3.org/2000/svg" xmlns:xlink="http://www.w3.org/1999/xlink"><linearGradient id="SVGID_1_" gradientUnits="userSpaceOnUse" x1="256" x2="256" y1="512" y2="121"><stop offset="0" stop-color="#00b59c"/><stop offset="1" stop-color="#9cffac"/></linearGradient><linearGradient id="SVGID_2_" gradientUnits="userSpaceOnUse" x1="256" x2="256" y1="482" y2="0"><stop offset="0" stop-color="#c3ffe8"/><stop offset=".9973" stop-color="#f0fff4"/></linearGradient><g><g><g><path d="m376 121h-75l-30 30h-30l-30-30h-75c-8.291 0-15 6.709-15 15v241c0 8.291 6.709 15 15 15h240c8.291 0 15-6.709 15-15v-241c0-8.291-6.709-15-15-15zm91 60h-16l-12.395-15-17.605 15v181l15.474 15 14.526-15h16c24.814 0 45-20.186 45-45v-91c0-24.814-20.186-45-45-45zm-406 0h-16c-24.853 0-45 20.147-45 45v91c0 24.853 20.147 45 45 45h31c8.284 0 15-6.716 15-15v-166l-14.764-15zm195 241c-24.814 0-45 20.186-45 45s20.186 45 45 45c19.53 0 36.024-12.578 42.237-30l30-13.54-30-16.46c-6.213-17.422-22.707-30-42.237-30z" fill="url(#SVGID_1_)"/></g></g><g><g><path d="m331 0h-150c-66.167 0-120 54.833-120 121v60h30v-60c0-49.629 40.371-91 90-91h150c49.629 0 90 41.371 90 91v60h30v-60c0-66.167-53.833-121-120-121zm-105 302h-30c-8.291 0-15 6.709-15 15s6.709 15 15 15h30c8.291 0 15-6.709 15-15s-6.709-15-15-15zm75-181h-90v75c0 8.291 6.709 15 15 15h60c8.291 0 15-6.709 15-15zm120 286c0 24.814-20.186 45-45 45h-77.763c1.681 4.715 2.763 9.716 2.763 15s-1.082 10.285-2.763 15h77.763c41.353 0 75-33.647 75-75v-45h-30z" fill="url(#SVGID_2_)"/></g></g></g></svg>