<svg id="Capa_1" enable-background="new 0 0 512.001 512.001" height="512" viewBox="0 0 512.001 512.001" width="512" xmlns="http://www.w3.org/2000/svg" xmlns:xlink="http://www.w3.org/1999/xlink"><linearGradient id="SVGID_1_" gradientUnits="userSpaceOnUse" x1="256" x2="256" y1="512.001" y2=".001"><stop offset="0" stop-color="#fd5900"/><stop offset="1" stop-color="#ffde00"/></linearGradient><linearGradient id="SVGID_2_" gradientUnits="userSpaceOnUse" x1="376" x2="376" y1="150.001" y2="0"><stop offset="0" stop-color="#ffe59a"/><stop offset="1" stop-color="#ffffd5"/></linearGradient><g><path d="m316 .001h-240c-8.284 0-15 6.716-15 15v482c0 8.284 6.716 15 15 15h360c8.284 0 15-6.716 15-15v-362z" fill="url(#SVGID_1_)"/><path d="m436 150.001h-120c-8.284 0-15-6.716-15-15v-120c0-6.067 3.655-11.537 9.26-13.858 5.604-2.322 12.057-1.039 16.347 3.252l120 120c4.29 4.29 5.573 10.742 3.252 16.347-2.322 5.604-7.792 9.259-13.859 9.259z" fill="url(#SVGID_2_)"/></g></svg>