<svg id="Capa_1" enable-background="new 0 0 512 512" height="512" viewBox="0 0 512 512" width="512" xmlns="http://www.w3.org/2000/svg" xmlns:xlink="http://www.w3.org/1999/xlink"><linearGradient id="SVGID_1_" gradientUnits="userSpaceOnUse" x1="256" x2="256" y1="358" y2="0"><stop offset="0" stop-color="#ffc2cc"/><stop offset="1" stop-color="#fff2f4"/></linearGradient><linearGradient id="SVGID_2_" gradientUnits="userSpaceOnUse" x1="256" x2="256" y1="512" y2=".039"><stop offset="0" stop-color="#fd3a84"/><stop offset="1" stop-color="#ffa68d"/></linearGradient><g id="Pie_Chart_2_"><g><g><path d="m497 328h-117.444l-41.646-27.905c-6.87-4.585-16.187-2.769-20.815 4.116-4.614 6.885-2.769 16.201 4.116 20.815l45.439 30.439c2.476 1.655 5.376 2.534 8.35 2.534h122c8.291 0 15-6.709 15-15s-6.709-14.999-15-14.999zm-322.4-324.409c-3.3-2.999-7.8-4.198-12.001-3.299-94.198 15.601-162.599 96.601-162.599 192l59.681 30 60.319-30c0-31.5 20.099-59.7 50.099-70.201 6-2.4 9.901-7.8 9.901-14.399v-92.7c0-4.499-1.8-8.7-5.4-11.401z" fill="url(#SVGID_1_)"/></g></g><g><g><path d="m219.976 121.716c21.196 7.529 38.306 24.58 45.747 45.586 2.124 5.991 7.778 9.99 14.136 9.99h92.651c4.409 0 8.599-1.948 11.455-5.317 2.842-3.354 4.072-7.808 3.34-12.158-13.711-81.694-77.931-145.84-159.815-159.61-4.409-.63-8.804.513-12.173 3.34-3.369 2.857-5.317 7.046-5.317 11.455v92.578c0 6.343 3.999 12.012 9.976 14.136zm164.024 90.976c-2.999-3.6-7.2-5.4-11.4-5.4h-92.699c-6.301 0-12.001 3.9-14.101 9.899-10.8 30-39 50.101-70.8 50.101-41.4 0-75-33.6-75-75h-120c0 107.399 87.599 195 195 195 95.7 0 176.4-68.401 192.299-162.601.601-4.198-.599-8.699-3.299-11.999zm113 55.308h-62c-8.291 0-15 6.709-15 15s6.709 15 15 15h62c8.291 0 15-6.709 15-15s-6.709-15-15-15zm-62-30h62c8.291 0 15-6.709 15-15s-6.709-15-15-15h-62c-8.291 0-15 6.709-15 15s6.709 15 15 15zm64.223 177.071-31.597-4.746-14.282-28.579c-5.098-10.166-21.738-10.166-26.836 0l-14.282 28.579-31.597 4.746c-5.625.85-10.283 4.805-12.041 10.21-1.758 5.391-.308 11.323 3.735 15.322l22.778 22.412-5.244 31.523c-.938 5.61 1.377 11.25 5.977 14.59 4.57 3.325 10.649 3.779 15.732 1.187l28.359-14.722 28.359 14.722c5.156 2.664 11.24 2.094 15.732-1.187 4.6-3.34 6.914-8.979 5.977-14.59l-5.244-31.523 22.778-22.412c4.043-3.999 5.493-9.932 3.735-15.322-1.755-5.405-6.414-9.36-12.039-10.21z" fill="url(#SVGID_2_)"/></g></g></g></svg>