<svg id="Capa_1" enable-background="new 0 0 512 512" height="512" viewBox="0 0 512 512" width="512" xmlns="http://www.w3.org/2000/svg" xmlns:xlink="http://www.w3.org/1999/xlink"><linearGradient id="SVGID_1_" gradientUnits="userSpaceOnUse" x1="256" x2="256" y1="418" y2="11"><stop offset="0" stop-color="#addcff"/><stop offset=".7319" stop-color="#eaf6ff"/><stop offset="1" stop-color="#eaf6ff"/></linearGradient><linearGradient id="SVGID_2_" gradientUnits="userSpaceOnUse" x1="256" x2="256" y1="512" y2="0"><stop offset="0" stop-color="#5558ff"/><stop offset="1" stop-color="#00c0ff"/></linearGradient><g><path d="m256 421c-11.073 0-22.171-1.114-32.985-3.31-6.991-1.419-12.015-7.566-12.015-14.7 0-.001 0-27.925-.014-52.094-36.277-17.221-59.986-54.106-59.986-94.896 0-44.116 28.122-83.747 69.979-98.615 4.591-1.63 9.69-.93 13.672 1.881s6.349 7.38 6.349 12.254v78.267l15 15 15-15v-78.267c0-4.874 2.368-9.443 6.35-12.254s9.083-3.511 13.673-1.88c41.855 14.872 69.977 54.503 69.977 98.614 0 40.808-23.714 77.676-60 94.857v52.133c0 7.134-5.024 13.28-12.015 14.7-10.815 2.196-21.914 3.31-32.985 3.31zm30-18.01h.01z" fill="url(#SVGID_1_)"/><path d="m497 211h-20.778c-5.735-28.101-16.869-54.978-32.687-78.903l14.69-14.691c5.858-5.858 5.858-15.355 0-21.213l-42.42-42.42c-2.813-2.813-6.628-4.394-10.606-4.394s-7.794 1.581-10.606 4.394l-14.691 14.692c-23.933-15.818-50.809-26.951-78.902-32.687v-20.778c0-8.284-6.716-15-15-15h-60c-8.284 0-15 6.716-15 15v20.777c-28.1 5.735-54.978 16.869-78.912 32.688l-14.692-14.692c-5.857-5.858-15.355-5.858-21.213 0l-42.42 42.42c-5.858 5.858-5.858 15.355 0 21.213l14.691 14.691c-15.817 23.926-26.951 50.802-32.687 78.903h-20.767c-8.284 0-15 6.716-15 15v60c0 8.284 6.716 15 15 15h20.767c5.734 28.094 16.87 54.977 32.688 78.909l-14.689 14.683c-2.813 2.813-4.395 6.628-4.396 10.606s1.579 7.794 4.393 10.608l42.42 42.43c2.813 2.813 6.628 4.394 10.606 4.395h.001c3.978 0 7.794-1.581 10.606-4.393l14.694-14.694c23.943 15.821 50.821 26.956 78.91 32.689v20.767c0 8.284 6.716 15 15 15h60c8.284 0 15-6.716 15-15v-20.768c28.081-5.735 54.958-16.87 78.899-32.689l14.693 14.693c2.813 2.813 6.629 4.394 10.607 4.394s7.794-1.581 10.606-4.395l42.42-42.43c2.813-2.813 4.394-6.629 4.393-10.608s-1.582-7.793-4.396-10.606l-14.688-14.682c15.817-23.932 26.953-50.814 32.688-78.909h20.778c8.284 0 15-6.716 15-15v-60c0-8.284-6.716-15-15-15zm-213.985 177.29c-17.71 3.597-36.334 3.595-54.019.002-62.577-12.755-107.996-68.392-107.996-132.292 0-74.439 60.561-135 135-135s135 60.561 135 135c0 63.894-45.414 119.528-107.985 132.29z" fill="url(#SVGID_2_)"/></g></svg>