<svg id="Capa_1" enable-background="new 0 0 512 512" height="512" viewBox="0 0 512 512" width="512" xmlns="http://www.w3.org/2000/svg" xmlns:xlink="http://www.w3.org/1999/xlink"><linearGradient id="SVGID_1_" gradientUnits="userSpaceOnUse" x1="256" x2="256" y1="496" y2="16"><stop offset="0" stop-color="#fd5900"/><stop offset="1" stop-color="#ffde00"/></linearGradient><linearGradient id="SVGID_2_" gradientUnits="userSpaceOnUse" x1="324" x2="324" y1="421" y2="46"><stop offset="0" stop-color="#ffe59a"/><stop offset="1" stop-color="#ffffd5"/></linearGradient><g><g><g><path d="m224.028 46-15.548-23.322c-2.781-4.171-7.465-6.678-12.48-6.678h-181c-8.284 0-15 6.714-15 15v450c0 8.284 6.716 15 15 15h482c8.284 0 15-6.716 15-15v-375z" fill="url(#SVGID_1_)"/></g></g><g><g><path d="m497 46h-272.972l39.999 60h247.973v-45c0-8.291-6.709-15-15-15zm-134.125 223.359-23.84-2.983c-2.483-5.934-5.643-11.49-9.282-16.701l13.107-31.088c2.93-6.973.234-15.044-6.328-18.823l-29.033-16.758c-6.475-3.75-14.854-2.109-19.453 3.94l-19.195 25.351c-4.234-.612-8.451-1.297-12.851-1.297-4.398 0-8.611.687-12.841 1.298l-19.204-25.351c-4.6-6.079-12.979-7.69-19.453-3.94l-29.004 16.758c-6.563 3.794-9.258 11.851-6.328 18.823l13.105 31.055c-3.649 5.22-6.817 10.783-9.305 16.729l-23.844 2.988c-7.5.938-13.125 7.324-13.125 14.883v33.516c0 7.559 5.625 13.945 13.125 14.883l23.843 2.983c2.485 5.933 5.641 11.49 9.28 16.701l-13.107 31.088c-2.93 6.973-.234 15.044 6.328 18.823l29.033 16.758c6.434 3.739 14.833 2.157 19.453-3.94l19.186-25.353c4.235.613 8.456 1.3 12.859 1.3 4.4 0 8.617-.685 12.85-1.298l19.195 25.351c4.552 6.01 12.865 7.729 19.453 3.94l29.004-16.758c6.563-3.794 9.258-11.851 6.328-18.823l-13.107-31.053c3.649-5.221 6.821-10.787 9.309-16.732l23.842-2.986c7.5-.938 13.125-7.324 13.125-14.883v-33.516c0-7.56-5.625-13.947-13.125-14.885zm-106.875 61.641c-16.553 0-30-13.462-30-30s13.447-30 30-30 30 13.462 30 30-13.447 30-30 30z" fill="url(#SVGID_2_)"/></g></g></g></svg>