<svg id="Capa_1" enable-background="new 0 0 512 512" height="512" viewBox="0 0 512 512" width="512" xmlns="http://www.w3.org/2000/svg" xmlns:xlink="http://www.w3.org/1999/xlink"><linearGradient id="SVGID_1_" gradientUnits="userSpaceOnUse" x1="256" x2="256" y1="512" y2="0"><stop offset="0" stop-color="#fd5900"/><stop offset="1" stop-color="#ffde00"/></linearGradient><linearGradient id="SVGID_2_" gradientUnits="userSpaceOnUse" x1="256" x2="256" y1="512" y2="0"><stop offset="0" stop-color="#ffe59a"/><stop offset="1" stop-color="#ffffd5"/></linearGradient><g><g><g><path d="m512 76c0-41.353-34.647-76-76-76h-165l-14.21 30-15.79-30h-165c-41.353 0-76 34.647-76 76v45l30 16.421-30 13.579v90l30 15.79-30 14.21v90l30 17.053-30 12.947v45c0 41.353 34.647 76 76 76h165l16.737-30 13.263 30h165c41.353 0 76-34.647 76-76v-45l-30-14.842 30-15.158v-90l-30-12.316 30-17.684v-90l-30-13.579 30-16.421z" fill="url(#SVGID_1_)"/></g></g><g><g><path d="m512 151v-30h-61v-45c0-8.291-6.709-15-15-15h-165v-61h-30v61h-165c-8.291 0-15 6.709-15 15v45h-61v30h61v90h-61v30h61v90h-61v30h61v45c0 8.291 6.709 15 15 15h165v61h30v-61h165c8.291 0 15-6.709 15-15v-45h61v-30h-61v-90h61v-30h-61v-90zm-421 0h38.789l51.211 51.211v38.789h-90zm0 120h90v38.789l-51.211 51.211h-38.789zm150 150h-150v-30h45c3.984 0 7.793-1.582 10.605-4.395l55.606-55.605h38.789zm0-240h-38.789l-55.605-55.605c-2.813-2.813-6.622-4.395-10.606-4.395h-45v-30h150zm180 240h-150v-90h38.789l55.605 55.605c2.813 2.813 6.622 4.395 10.606 4.395h45zm0-60h-38.789l-51.211-51.211v-38.789h90zm0-120h-90v-38.789l51.211-51.211h38.789zm0-120h-45c-3.984 0-7.793 1.582-10.605 4.395l-55.606 55.605h-38.789v-90h150z" fill="url(#SVGID_2_)"/></g></g></g></svg>