<svg id="Capa_1" enable-background="new 0 0 512 512" height="512" viewBox="0 0 512 512" width="512" xmlns="http://www.w3.org/2000/svg" xmlns:xlink="http://www.w3.org/1999/xlink"><linearGradient id="lg1"><stop offset="0" stop-color="#5558ff"/><stop offset="1" stop-color="#00c0ff"/></linearGradient><linearGradient id="SVGID_1_" gradientUnits="userSpaceOnUse" x1="256" x2="256" xlink:href="#lg1" y1="482" y2="0"/><linearGradient id="SVGID_2_" gradientUnits="userSpaceOnUse" x1="54.58" x2="54.58" xlink:href="#lg1" y1="392" y2="212"/><linearGradient id="lg2"><stop offset="0" stop-color="#addcff"/><stop offset=".5028" stop-color="#eaf6ff"/><stop offset="1" stop-color="#eaf6ff"/></linearGradient><linearGradient id="SVGID_3_" gradientUnits="userSpaceOnUse" x1="398.5" x2="398.5" xlink:href="#lg2" y1="392" y2="212"/><linearGradient id="SVGID_4_" gradientUnits="userSpaceOnUse" x1="113.5" x2="113.5" xlink:href="#lg2" y1="392" y2="212"/><linearGradient id="SVGID_5_" gradientUnits="userSpaceOnUse" x1="473.5" x2="473.5" xlink:href="#lg1" y1="392" y2="212"/><linearGradient id="SVGID_6_" gradientUnits="userSpaceOnUse" x1="256" x2="256" xlink:href="#lg2" y1="512" y2="422"/><g><g><g><path d="m256 0c-107.52 0-195 87.48-195 195v32c0 8.291 6.709 15 15 15s15-6.709 15-15v-32c0-90.981 74.019-165 165-165s165 74.019 165 165v32c0 8.291 6.709 15 15 15s15-6.709 15-15v-32c0-107.52-87.48-195-195-195zm180 362c-8.291 0-15 6.709-15 15 0 41.353-33.647 75-75 75h-60c-8.291 0-15 6.709-15 15s6.709 15 15 15h60c57.891 0 105-47.109 105-105 0-8.291-6.709-15-15-15z" fill="url(#SVGID_1_)"/></g></g><path d="m76 212 32.16 91.304-32.16 88.696c-41.4 0-75-33.6-75-75v-30c0-41.4 33.6-75 75-75z" fill="url(#SVGID_2_)"/><path d="m436 212v180h-60c-8.401 0-15-6.601-15-15v-150c0-8.401 6.599-15 15-15z" fill="url(#SVGID_3_)"/><path d="m151 227v150c0 8.399-6.599 15-15 15h-60v-180h60c8.401 0 15 6.599 15 15z" fill="url(#SVGID_4_)"/><path d="m511 285v30c0 41.4-33.6 77-75 77v-180c41.4 0 75 31.6 75 73z" fill="url(#SVGID_5_)"/><g><path d="m256 512c-24.814 0-45-20.186-45-45s20.186-45 45-45 45 20.186 45 45-20.186 45-45 45z" fill="url(#SVGID_6_)"/></g></g></svg>