<svg id="Capa_1" enable-background="new 0 0 511.896 511.896" height="512" viewBox="0 0 511.896 511.896" width="512" xmlns="http://www.w3.org/2000/svg" xmlns:xlink="http://www.w3.org/1999/xlink"><linearGradient id="SVGID_1_" gradientUnits="userSpaceOnUse" x1="110.467" x2="463.077" y1="401.43" y2="48.82"><stop offset="0" stop-color="#5558ff"/><stop offset="1" stop-color="#00c0ff"/></linearGradient><linearGradient id="SVGID_2_" gradientUnits="userSpaceOnUse" x1="152.883" x2="507.569" y1="359.154" y2="4.468"><stop offset="0" stop-color="#addcff"/><stop offset=".5028" stop-color="#eaf6ff"/><stop offset="1" stop-color="#eaf6ff"/></linearGradient><g id="Tag_2_"><g><g><path d="m505.495 91.253-85.283-85.298c-2.813-2.813-6.621-4.395-10.605-4.395-.03.001-126.915.44-126.915.44-3.955.015-7.734 1.597-10.547 4.395l-267.744 267.758c-5.859 5.859-5.859 15.352 0 21.211l212.139 212.139c5.856 5.856 15.351 5.86 21.211 0l267.744-267.759c2.813-2.813 4.395-6.621 4.395-10.605v-127.28c0-3.985-1.582-7.794-4.395-10.606z" fill="url(#SVGID_1_)"/></g></g><g><g><path d="m280.09 104.46c-5.402-5.7-15.601-5.7-21 0l-169.801 169.8c-2.999 2.701-4.499 6.601-4.499 10.501s1.5 7.8 4.499 10.5l127.2 127.5c3.001 2.701 6.901 4.2 10.801 4.2 3.6 0 7.5-1.5 10.499-4.2l169.501-169.8c6-6 6-15.3 0-21.301zm-42.301 233.399c-5.784 5.788-15.861 5.439-21.301 0l-42.298-42.599c-6-5.7-6-15.3 0-21 5.7-5.999 15.3-5.999 21 0l42.599 42.301c5.701 6 5.701 15.3 0 21.298zm42.301-42.599c-5.398 5.998-15.601 6.004-21 0l-42.601-42.299c-5.698-6-5.698-15.3 0-21.301 6-5.7 15.3-5.7 21.301 0l42.301 42.6c5.998 5.7 5.998 15.3-.001 21zm42.6-42.299c-5.797 5.793-15.12 6.176-21.301 0l-42.299-42.301c-6-6-6-15.599 0-21.299 5.7-6 15.3-6 21 0l42.599 42.299c5.701 6.001 5.701 15.3.001 21.301zm184.805-248.566c-5.859-5.859-15.352-5.859-21.211 0l-121.267 121.267c-5.859 5.859-5.859 15.352 0 21.211 5.86 5.86 15.352 5.859 21.211 0l121.267-121.268c5.859-5.859 5.859-15.351 0-21.21z" fill="url(#SVGID_2_)"/></g></g></g></svg>