<svg width="17" height="14" viewBox="0 0 17 14" fill="none" xmlns="http://www.w3.org/2000/svg">
<path d="M6.40291 13.6864C6.16684 13.6867 5.94074 13.5912 5.77641 13.4218L0.588008 8.09266C0.00158852 7.4814 0.00158852 6.51643 0.588008 5.90516L5.77641 0.576065C6.1147 0.236346 6.66338 0.232122 7.00686 0.566592C7.35035 0.901063 7.36071 1.44966 7.03011 1.79686L2.20011 6.75496C2.06671 6.89106 2.06671 7.10887 2.20011 7.24497L7.03011 12.2024C7.2759 12.4548 7.3463 12.8301 7.20873 13.1544C7.07115 13.4788 6.75245 13.689 6.40011 13.6878L6.40291 13.6864Z" fill="#A0BAFA"/>
<path d="M10.3978 13.6864C10.0455 13.6877 9.72677 13.4775 9.5892 13.1531C9.45162 12.8287 9.52202 12.4535 9.76782 12.201L14.5978 7.24292C14.7312 7.10683 14.7312 6.88902 14.5978 6.75292L9.76782 1.79552C9.43721 1.44832 9.44758 0.89972 9.79106 0.56525C10.1345 0.230779 10.6832 0.235003 11.0215 0.574722L16.2092 5.90312C16.7956 6.51438 16.7956 7.47936 16.2092 8.09062L11.0208 13.4204C10.8576 13.5895 10.6329 13.6855 10.3978 13.6864Z" fill="#57619E"/>
</svg>
