<?xml version="1.0" encoding="UTF-8"?>
<svg width="855px" height="1128px" viewBox="0 0 855 1128" version="1.1" xmlns="http://www.w3.org/2000/svg" xmlns:xlink="http://www.w3.org/1999/xlink">
    <!-- Generator: Sketch 52.6 (67491) - http://www.bohemiancoding.com/sketch -->
    <title>fig-Group 40</title>
    <desc>Created with Sketch.</desc>
    <defs>
        <linearGradient x1="100%" y1="50%" x2="-2.22044605e-14%" y2="50%" id="linearGradient-1">
            <stop stop-color="#EEC821" offset="0%"></stop>
            <stop stop-color="#FFE02B" offset="100%"></stop>
        </linearGradient>
        <linearGradient x1="50%" y1="-2.48949813e-15%" x2="50%" y2="100%" id="linearGradient-2">
            <stop stop-color="#02C47D" offset="0%"></stop>
            <stop stop-color="#00EF8E" offset="100%"></stop>
        </linearGradient>
        <linearGradient x1="50%" y1="0%" x2="50%" y2="100%" id="linearGradient-3">
            <stop stop-color="#FFD729" offset="0%"></stop>
            <stop stop-color="#FFE02B" offset="100%"></stop>
        </linearGradient>
        <linearGradient x1="-2.22044605e-14%" y1="50%" x2="100%" y2="50%" id="linearGradient-4">
            <stop stop-color="#03C1ED" offset="0%"></stop>
            <stop stop-color="#00E6FE" offset="100%"></stop>
        </linearGradient>
        <linearGradient x1="50%" y1="-2.48949813e-15%" x2="50%" y2="69.4454179%" id="linearGradient-5">
            <stop stop-color="#E92727" offset="0%"></stop>
            <stop stop-color="#FF4A70" offset="100%"></stop>
        </linearGradient>
        <linearGradient x1="50%" y1="0%" x2="50%" y2="100%" id="linearGradient-6">
            <stop stop-color="#00CEFE" offset="0%"></stop>
            <stop stop-color="#00E6FE" offset="100%"></stop>
        </linearGradient>
        <linearGradient x1="50%" y1="0%" x2="50%" y2="100%" id="linearGradient-7">
            <stop stop-color="#00DA8A" offset="0%"></stop>
            <stop stop-color="#00EF8E" offset="100%"></stop>
        </linearGradient>
        <linearGradient x1="50%" y1="0%" x2="50%" y2="100%" id="linearGradient-8">
            <stop stop-color="#FF5656" offset="0%"></stop>
            <stop stop-color="#EE4166" offset="100%"></stop>
        </linearGradient>
    </defs>
    <g id="Page-1" stroke="none" stroke-width="1" fill="none" fill-rule="evenodd">
        <g id="Group-40">
            <path d="M576.294236,548.455527 C534.460914,524.312481 482.41248,510 426,510 C425.694283,510 425.388695,510.00042 425.083236,510.00126 L425.083236,454.81639 C425.338669,454.817151 425.594238,454.817578 425.849941,454.817578 C518.159837,454.817578 592.991794,399.188809 592.991794,330.567245 C592.991794,297.621362 575.742625,267.670389 547.591535,245.432758 L754,245.432756 C754,281.761972 754,309.756646 754,329.416779 C754,424.729193 681.867051,507.411287 576.294236,548.455527 Z" id="Path" fill="url(#linearGradient-1)"></path>
            <path d="M425.083236,122.716378 C425.343335,122.71682 425.603572,122.716378 425.863945,122.716378 C519.859867,122.716378 596.058617,180.236973 596.058617,251.192221 C596.058617,266.10924 592.690843,280.432484 586.497944,293.752323 C563.233291,243.714172 500.098972,207.836596 425.863945,207.836596 C425.603572,207.836596 425.343335,207.837038 425.083236,207.83792 L425.083236,122.716378 Z" id="Path" fill="url(#linearGradient-2)"></path>
            <path d="M753.990263,245.432765 C753.996751,246.071338 754,246.710489 754,247.350208 C754,383.534362 606.738949,493.933431 425.083236,493.933431 L425.083236,372.749728 C425.338669,372.75058 425.594238,372.751007 425.849941,372.751007 C518.159837,372.751007 592.991794,317.122238 592.991794,248.500674 C592.991794,247.475085 592.975078,246.452399 592.941839,245.432756 L753.990263,245.432765 Z" id="Path" fill="url(#linearGradient-3)"></path>
            <path d="M426,510 C369.950791,510 318.209603,524.128743 276.515196,547.99034 C171.591016,506.788749 100,424.370478 100,329.416779 C100,309.756646 100,281.761972 100,245.432756 L307.941876,245.432758 C279.790786,267.670389 262.541618,297.621362 262.541618,330.567245 C262.541618,398.998724 336.959572,454.509289 428.916764,454.816298 L428.916764,510.012765 C427.945829,510.004263 426.973565,510 426,510 Z" id="Path" fill="url(#linearGradient-4)"></path>
            <path d="M428.916764,122.716378 L428.916764,207.83668 C355.342273,208.087239 292.842454,243.88848 269.76049,293.751146 C263.594589,280.431296 260.241501,266.108048 260.241501,251.191026 C260.241501,180.432308 335.688274,123.033923 428.916764,122.716378 Z" id="Path" fill="url(#linearGradient-5)"></path>
            <path d="M428.916764,372.749719 L428.916764,493.933422 C247.261051,493.933422 100,383.534353 100,247.3502 C100,246.71048 100.003249,246.071329 100.009737,245.432756 L262.591572,245.432756 C262.558333,246.45239 262.541618,247.475077 262.541618,248.500666 C262.541618,316.932145 336.959572,372.44271 428.916764,372.749719 Z" id="Path" fill="url(#linearGradient-6)"></path>
            <path d="M425.083236,-1.42108547e-14 C605.710608,-1.42108547e-14 752.333113,111.040186 754,248.500666 L592.934883,248.500666 C590.456847,180.322707 516.598971,125.629633 425.849975,125.629633 C425.594261,125.629633 425.33868,125.630067 425.083236,125.630935 L425.083236,-1.42108547e-14 Z" id="Path" fill="url(#linearGradient-7)"></path>
            <path d="M100,248.500666 C100.5712,111.183361 247.612683,-1.42108547e-14 428.915215,-1.42108547e-14 L428.915215,124.84688 C337.830595,125.154331 263.953938,180.220151 262.560121,248.500666 L100,248.500666 Z" id="Path" fill="url(#linearGradient-8)"></path>
            <path d="M855,806.500002 C855,984.059549 662.930158,1128 426,1128 L426,969.998453 C426.333157,969.999445 426.666491,970.000002 427,970.000002 C547.398075,970.000002 645,897.470131 645,808.000002 C645,765.044519 622.502231,725.993858 585.78529,697.000002 L855,697 C855,744.366738 855,780.866739 855,806.500002 Z" id="Path" fill="url(#linearGradient-1)"></path>
            <path d="M425.018265,537 C547.615392,537 647,611.996469 647,704.509303 C647,723.958401 642.607476,742.633325 634.530192,759.99999 C604.18654,694.759276 521.841626,647.981396 425.018265,647.981396 C424.678665,647.981396 424.339242,647.981971 424,647.983121 L424,537 C424.339242,537.000575 424.678665,537 425.018265,537 Z" id="Path" fill="url(#linearGradient-2)"></path>
            <path d="M0,697 L271.21471,697.000002 C234.497769,725.993858 212,765.044519 212,808.000002 C212,897.222295 309.061949,969.598049 429,969.998333 L429,1128 C192.069842,1128 0,984.059549 0,806.500002 C0,780.866739 0,744.366738 0,697 Z" id="Path" fill="url(#linearGradient-4)"></path>
            <path d="M854.987301,697.000011 C854.995762,697.832595 855,698.665932 855,699.500011 C855,877.059558 662.930158,1021.00001 426,1021.00001 L426,862.998343 C426.333157,862.999455 426.666491,863.000011 427,863.000011 C547.398075,863.000011 645,790.470141 645,701.000011 C645,699.662828 644.978199,698.329429 644.934846,697 L854.987301,697.000011 Z" id="Path" fill="url(#linearGradient-3)"></path>
            <path d="M507.88773,383 C704.323603,411.696343 853.086173,542.94604 855,701 L645.415457,701 C642.190934,612.155038 546.084032,540.882676 427.997713,540.882676 C427.664967,540.882676 427.332395,540.883241 427,540.884372 L427,395.874804 C427.796025,395.882287 428.59322,395.886039 429.391557,395.886039 C457.364359,395.886039 483.935501,391.279219 507.887732,383.000001 L507.88773,383 Z" id="Path" fill="url(#linearGradient-7)"></path>
            <path d="M429,647.981505 C333.038163,648.308189 251.520816,694.986542 221.41544,759.998456 C213.373371,742.631776 209,723.956848 209,704.507744 C209,612.251152 307.403819,537.414021 429,537 L429,647.981505 Z" id="Path" fill="url(#linearGradient-5)"></path>
            <path d="M429,862.998332 L429,1021 C192.069842,1021 0,877.059547 0,699.5 C0,698.665921 0.0042382394,697.832584 0.0126994592,697 L212.065154,697 C212.021801,698.329418 212,699.662817 212,701 C212,790.222293 309.061949,862.598047 429,862.998332 Z" id="Path" fill="url(#linearGradient-6)"></path>
            <path d="M347.70466,383.000001 C371.716216,391.286381 398.353961,395.897279 426.397145,395.897279 C427.265449,395.897279 428.132406,395.892858 428.997979,395.884045 L428.997979,539.949702 C310.198009,540.350562 213.842063,612.14645 212.024134,701.171912 L-1.13686838e-13,701.171912 C0.657456529,543.178733 150.083739,411.720219 347.704663,383 L347.70466,383.000001 Z" id="Path" fill="url(#linearGradient-8)"></path>
            <path d="M244.690598,429.854463 C169.640724,387.947572 121,320.750299 121,245 C121,117.974508 257.777009,15 426.5,15 C595.222991,15 732,117.974508 732,245 C732,320.851067 683.22978,388.126337 608.009754,430.021571 C736.428553,479.741115 824.268086,580.469583 824.268086,696.638558 C824.268086,862.124365 646.017403,996.277117 426.134043,996.277117 C206.250683,996.277117 28,862.124365 28,696.638558 C28,580.339286 116.036689,479.515175 244.690598,429.854463 Z M426.397145,395.725367 C532.343242,395.725367 618.229522,329.914016 618.229522,248.731601 C618.229522,167.549186 532.343242,101.737836 426.397145,101.737836 C320.451048,101.737836 234.564767,167.549186 234.564767,248.731601 C234.564767,329.914016 320.451048,395.725367 426.397145,395.725367 Z M426,893 C564.071187,893 676,807.26253 676,701.5 C676,595.73747 564.071187,510 426,510 C287.928813,510 176,595.73747 176,701.5 C176,807.26253 287.928813,893 426,893 Z" id="Combined-Shape" fill="#333333"></path>
        </g>
    </g>
</svg>