<?xml version="1.0" encoding="UTF-8"?>
<svg width="926px" height="638px" viewBox="0 0 926 638" version="1.1" xmlns="http://www.w3.org/2000/svg" xmlns:xlink="http://www.w3.org/1999/xlink">
    <title>Group</title>
    <defs>
        <linearGradient x1="100%" y1="50%" x2="0%" y2="50%" id="linearGradient-1">
            <stop stop-color="#FFFFFF" offset="0%"></stop>
            <stop stop-color="#19FEC0" offset="100%"></stop>
        </linearGradient>
        <linearGradient x1="100%" y1="50%" x2="0%" y2="50%" id="linearGradient-2">
            <stop stop-color="#00BFE6" offset="0%"></stop>
            <stop stop-color="#19FEC0" offset="100%"></stop>
        </linearGradient>
        <linearGradient x1="50%" y1="25.8559589%" x2="87.0548204%" y2="100%" id="linearGradient-3">
            <stop stop-color="#FECA2D" offset="0%"></stop>
            <stop stop-color="#FC4C5E" offset="100%"></stop>
        </linearGradient>
        <linearGradient x1="13.1626236%" y1="100%" x2="50%" y2="27.428111%" id="linearGradient-4">
            <stop stop-color="#1CDB69" offset="0%"></stop>
            <stop stop-color="#19FEC0" offset="100%"></stop>
        </linearGradient>
        <linearGradient x1="0%" y1="50%" x2="100%" y2="50%" id="linearGradient-5">
            <stop stop-color="#FC4C5E" offset="0%"></stop>
            <stop stop-color="#A53BE0" offset="100%"></stop>
        </linearGradient>
        <linearGradient x1="86.418698%" y1="50%" x2="13.581302%" y2="0%" id="linearGradient-6">
            <stop stop-color="#00BFE6" offset="0%"></stop>
            <stop stop-color="#4354FF" offset="100%"></stop>
        </linearGradient>
        <linearGradient x1="-1.11022302e-14%" y1="50%" x2="100%" y2="50%" id="linearGradient-7">
            <stop stop-color="#B842DF" offset="0%"></stop>
            <stop stop-color="#5E20E5" offset="100%"></stop>
        </linearGradient>
        <linearGradient x1="50%" y1="-99.9293587%" x2="50%" y2="100%" id="linearGradient-8">
            <stop stop-color="#9B9B9B" offset="0%"></stop>
            <stop stop-color="#FFFFFF" offset="100%"></stop>
        </linearGradient>
    </defs>
    <g id="Page-1" stroke="none" stroke-width="1" fill="none" fill-rule="evenodd">
        <g id="LOGO-Copy" transform="translate(-827.000000, -1712.000000)">
            <g id="Group" transform="translate(827.000000, 1712.800000)">
                <g id="Group-5-Copy" transform="translate(0.000000, 306.800000)" fill="#FFFFFF" fill-rule="nonzero">
                    <g id="Group-3">
                        <path d="M77.8198887,60 C96.3785613,60 112.406506,64.6 125.903722,73.8 C138.768257,82.8 147.625805,94.7 152.476367,109.5 L152.476367,109.5 L126.852745,109.5 L126.593073,108.888435 C122.995202,100.567574 117.387621,93.7714286 109.770331,88.5 C101.967252,83.1 93.0042572,80.4 82.8813448,80.4 C72.7584325,80.4 64.1645017,81.9 57.0995525,84.9 C50.0346032,87.9 44.0768475,92 39.2262853,97.2 C28.892479,108 23.7255758,121.4 23.7255758,137.4 C23.7255758,153.4 28.892479,166.8 39.2262853,177.6 C49.7709857,188.8 64.3226722,194.4 82.8813448,194.4 C93.0042572,194.4 101.967252,191.7 109.770331,186.3 C117.573409,180.9 123.267547,173.9 126.852745,165.3 L126.852745,165.3 L152.476367,165.3 L152.234584,166.025531 C147.334317,180.489385 138.557363,192.147541 125.903722,201 C112.406506,210.2 96.3785613,214.8 77.8198887,214.8 C54.6215479,214.8 35.7465342,207.3 21.1948477,192.3 C7.06494924,177.7 0,159.4 0,137.4 C0,115.4 7.06494924,97.1 21.1948477,82.5 C35.7465342,67.5 54.6215479,60 77.8198887,60 Z M392.076411,57.6 C414.477998,57.6 432.895977,64.3461238 447.330348,77.8383715 L447.330641,62.5 L470.528982,62.5 L470.528982,212.5 L447.330641,212.5 L447.330348,192.161628 C432.895977,205.653876 414.477998,212.4 392.076411,212.4 C368.456282,212.4 349.264927,204.9 334.502347,189.9 C320.583342,175.5 313.62384,157.2 313.62384,135 C313.62384,112.8 320.583342,94.5 334.502347,80.1 C349.264927,65.1 368.456282,57.6 392.076411,57.6 Z M769.4112,0 L769.4112,21.3 L766.24779,21.3 L765.606041,21.3026072 C754.749016,21.3912537 746.579896,23.7403846 741.098679,28.35 C735.509988,33.05 732.715642,40.6 732.715642,51 L732.715642,51 L732.715642,62.4 L769.4112,62.4 L769.4112,82.2 L732.715642,82.2 L732.715642,212.4 L708.990067,212.4 L708.990067,82.2 L681.78474,82.2 L681.78474,62.4 L708.990067,62.4 L708.990067,49.2 L708.992897,48.5373813 C709.130656,32.4683163 714.296616,20.3891892 724.490776,12.3 C734.824582,4.1 749.165375,0 767.513154,0 L767.513154,0 L769.4112,0 Z M187.076957,2.4 L187.076957,85.8 L187.631952,85.1066597 C193.221412,78.2075963 199.995915,72.3387097 207.955463,67.5 C216.18033,62.5 225.565113,60 236.109813,60 C246.654514,60 255.722956,61.4 263.31514,64.2 C270.907325,67 277.550486,71.2 283.244624,76.8 C296.320052,89 302.857767,105.1 302.857767,125.1 L302.857767,125.1 L302.857767,212.4 L279.132191,212.4 L279.132191,125.7 L279.128875,125.023569 C278.996252,111.540097 274.884924,100.765574 266.794891,92.7 C258.570025,84.5 247.919878,80.4 234.844449,80.4 C221.558127,80.4 210.275297,84.6 200.995961,93 C191.716625,101.6 187.076957,112.6 187.076957,126 L187.076957,126 L187.076957,212.4 L163.351381,212.4 L163.351381,2.4 L187.076957,2.4 Z M569.483681,60 L569.483681,82.5 L566.636612,82.5 L565.997504,82.5030469 C549.206716,82.6635156 535.500748,89.1625 524.879598,102 C514.756686,114.4 509.69523,129.2 509.69523,146.4 L509.69523,146.4 L509.69523,212.4 L485.969654,212.4 L485.969654,62.4 L509.69523,62.4 L509.69523,99.3 L509.887802,98.7169219 C515.031771,83.4131406 525.934068,72.1075 542.594695,64.8 C549.554197,61.6 557.989957,60 567.901976,60 L567.901976,60 L569.483681,60 Z M635.915293,8.7 L635.915293,62.4 L672.294509,62.4 L672.294509,82.2 L635.915293,82.2 L635.915293,212.4 L612.189717,212.4 L612.189717,82.2 L579.922934,82.2 L579.922934,62.4 L612.189717,62.4 L612.189717,8.7 L635.915293,8.7 Z M810.21919,62.4 L851.02718,119.1 L891.51883,62.4 L921.887567,62.4 L864.629844,135 L926,212.4 L895.631263,212.4 L851.02718,151.2 L806.106757,212.4 L776.054361,212.4 L837.108176,135 L779.850453,62.4 L810.21919,62.4 Z M392.076411,78 C374.993996,78 361.49678,83.6 351.584761,94.8 C342.094531,105.4 337.349416,118.8 337.349416,135 C337.349416,151.2 342.094531,164.6 351.584761,175.2 C361.49678,186.4 374.993996,192 392.076411,192 C409.158825,192 422.656042,186.4 432.56806,175.2 C442.058291,164.6 446.803406,151.2 446.803406,135 C446.803406,118.8 442.058291,105.4 432.56806,94.8 C422.656042,83.6 409.158825,78 392.076411,78 Z" id="letters"></path>
                    </g>
                </g>
                <path d="M39.45,636.4 C47.65,636.4 54.0666667,634.766667 58.7,631.5 C63.3333333,628.233333 65.65,623.5 65.65,617.3 C65.65,612.1 63.2833333,608 58.55,605 C56.4166667,603.6 53.9833333,602.45 51.25,601.55 C48.5166667,600.65 45.7333333,599.85 42.9,599.15 C40.0666667,598.45 37.2833333,597.766667 34.55,597.1 C31.8166667,596.433333 29.3833333,595.666667 27.25,594.8 C25.1166667,593.933333 23.4,592.866667 22.1,591.6 C20.8,590.333333 20.15,588.95 20.15,587.45 C20.15,585.95 20.3666667,584.533333 20.8,583.2 C21.2333333,581.866667 22.0833333,580.666667 23.35,579.6 C24.6166667,578.466667 26.4,577.516667 28.7,576.75 C31,575.983333 33.8333333,575.6 37.2,575.6 C40.5666667,575.6 43.3833333,575.933333 45.65,576.6 C52.05,578.4 55.5833333,582.033333 56.25,587.5 L56.25,587.5 L63.95,587.5 C63.6833333,582.166667 61.45,577.8 57.25,574.4 C52.65,570.533333 46.15,568.6 37.75,568.6 C29.4166667,568.6 23.1833333,570.3 19.05,573.7 C14.9166667,577.1 12.85,581.5 12.85,586.9 C12.85,590.7 13.9666667,593.716667 16.2,595.95 C18.4333333,598.183333 21.2333333,599.983333 24.6,601.35 C27.9666667,602.716667 31.6,603.833333 35.5,604.7 C39.4,605.566667 43.0333333,606.5 46.4,607.5 C49.7666667,608.5 52.5666667,609.766667 54.8,611.3 C57.0333333,612.833333 58.15,614.933333 58.15,617.6 C58.15,625.4 51.95,629.3 39.55,629.3 C33.6166667,629.3 28.85,628.266667 25.25,626.2 C21.1166667,623.8 18.9166667,620.333333 18.65,615.8 L18.65,615.8 L10.85,615.8 C11.45,622.2 13.9166667,627.133333 18.25,630.6 C23.1166667,634.466667 30.1833333,636.4 39.45,636.4 Z M211.35,635.6 L211.35,576.6 L234.45,576.6 L234.45,569.4 L180.75,569.4 L180.75,576.6 L203.85,576.6 L203.85,635.6 L211.35,635.6 Z M382.05,636.4 C390.383333,636.4 397.166667,633.716667 402.4,628.35 C407.633333,622.983333 410.25,615.9 410.25,607.1 L410.25,607.1 L410.25,569.4 L402.75,569.4 L402.75,607.3 C402.75,614.5 400.616667,620.066667 396.35,624 C392.616667,627.4 387.85,629.1 382.05,629.1 C376.25,629.1 371.516667,627.4 367.85,624 C363.583333,620 361.45,614.433333 361.45,607.3 L361.45,607.3 L361.45,569.4 L353.95,569.4 L353.95,607.1 C353.95,615.9 356.566667,622.983333 361.8,628.35 C367.033333,633.716667 373.783333,636.4 382.05,636.4 Z M564.35,635.6 C568.283333,635.6 572.083333,634.85 575.75,633.35 C579.416667,631.85 582.65,629.666667 585.45,626.8 C591.65,620.466667 594.75,612.366667 594.75,602.5 C594.75,592.633333 591.65,584.533333 585.45,578.2 C582.65,575.333333 579.416667,573.15 575.75,571.65 C572.083333,570.15 568.283333,569.4 564.35,569.4 L564.35,569.4 L536.45,569.4 L536.45,635.6 L564.35,635.6 Z M564.05,628.5 L543.95,628.5 L543.95,576.5 L564.05,576.5 C570.983333,576.5 576.616667,579.066667 580.95,584.2 C585.15,589.133333 587.25,595.233333 587.25,602.5 C587.25,609.766667 585.15,615.866667 580.95,620.8 C576.616667,625.933333 570.983333,628.5 564.05,628.5 L564.05,628.5 Z M725.15,635.6 L725.15,569.4 L717.65,569.4 L717.65,635.6 L725.15,635.6 Z M881.55,636.4 C891.416667,636.4 899.516667,633.1 905.85,626.5 C912.05,620.1 915.15,612.1 915.15,602.5 C915.15,592.9 912.05,584.9 905.85,578.5 C899.516667,571.9 891.416667,568.6 881.55,568.6 C871.683333,568.6 863.583333,571.9 857.25,578.5 C851.05,584.9 847.95,592.9 847.95,602.5 C847.95,612.1 851.05,620.1 857.25,626.5 C863.583333,633.1 871.683333,636.4 881.55,636.4 Z M881.55,629.1 C873.683333,629.1 867.316667,626.533333 862.45,621.4 C857.783333,616.466667 855.45,610.166667 855.45,602.5 C855.45,594.833333 857.783333,588.533333 862.45,583.6 C867.316667,578.466667 873.683333,575.9 881.55,575.9 C889.416667,575.9 895.783333,578.466667 900.65,583.6 C905.316667,588.533333 907.65,594.833333 907.65,602.5 C907.65,610.166667 905.316667,616.466667 900.65,621.4 C895.783333,626.533333 889.416667,629.1 881.55,629.1 Z" id="STUDIO" fill="#949494" fill-rule="nonzero"></path>
                <g id="Group-2" transform="translate(340.085714, 0.000000)">
                    <path d="M2.27373675e-13,214.78961 L2.27373675e-13,72.0103896 L122.914286,0 L245.828571,72.0103896 L245.828571,214.78961 L122.914286,286.8 L2.27373675e-13,214.78961 Z" id="Combined-Shape" fill="url(#linearGradient-1)"></path>
                    <polygon id="Polygon" fill="url(#linearGradient-2)" points="245.828571 72.0103896 245.828571 214.78961 122.914286 143.2"></polygon>
                    <polygon id="Polygon" fill="url(#linearGradient-3)" points="122.914286 0 122.914286 142.779221 0 72.0103896"></polygon>
                    <polygon id="Polygon" fill="url(#linearGradient-4)" points="122.914286 0 245.828571 72.0103896 122.914286 143.2"></polygon>
                    <polygon id="Polygon" fill="url(#linearGradient-5)" points="122.914286 142.779221 0 214.78961 0 72.0103896"></polygon>
                    <polygon id="Polygon" fill="url(#linearGradient-6)" points="122.914286 142.779221 245.828571 214.78961 122.914286 286.8"></polygon>
                    <polygon id="Polygon" fill="url(#linearGradient-7)" points="122.914286 142.779221 122.914286 286.8 0 214.78961"></polygon>
                    <polygon id="Polygon" fill="url(#linearGradient-8)" points="122.914286 142.779221 171.335065 171.335065 122.914286 198.649351 74.4935065 171.335065"></polygon>
                    <polygon id="Polygon" fill="#FFFFFF" points="122.914286 86.9090909 171.335065 115.464935 171.335065 171.335065 122.914286 142.779221"></polygon>
                    <polygon id="Polygon" fill="#B7B7B7" points="122.914286 86.9090909 122.914286 142.779221 74.4935065 171.335065 74.4935065 115.464935"></polygon>
                </g>
            </g>
        </g>
    </g>
</svg>