<?xml version="1.0" encoding="UTF-8"?>
<svg width="1185px" height="240px" viewBox="0 0 1185 240" version="1.1" xmlns="http://www.w3.org/2000/svg" xmlns:xlink="http://www.w3.org/1999/xlink">
    <title>Group 5</title>
    <g id="Page-1" stroke="none" stroke-width="1" fill="none" fill-rule="evenodd">
        <g id="Artboard" transform="translate(-713.000000, -1921.000000)">
            <g id="Group-7" transform="translate(0.500000, 0.000000)">
                <g id="Group-5" transform="translate(713.404501, 1921.010678)">
                    <g id="Group-3">
                        <path d="M335.010886,60 C353.569559,60 369.597503,64.6 383.09472,73.8 C395.959254,82.8 404.816803,94.7 409.667365,109.5 L409.667365,109.5 L384.043743,109.5 L383.784071,108.888435 C380.1862,100.567574 374.578619,93.7714286 366.961328,88.5 C359.15825,83.1 350.195255,80.4 340.072342,80.4 C329.94943,80.4 321.355499,81.9 314.29055,84.9 C307.225601,87.9 301.267845,92 296.417283,97.2 C286.083477,108 280.916573,121.4 280.916573,137.4 C280.916573,153.4 286.083477,166.8 296.417283,177.6 C306.961983,188.8 321.51367,194.4 340.072342,194.4 C350.195255,194.4 359.15825,191.7 366.961328,186.3 C374.764407,180.9 380.458545,173.9 384.043743,165.3 L384.043743,165.3 L409.667365,165.3 L409.425582,166.025531 C404.525314,180.489385 395.74836,192.147541 383.09472,201 C369.597503,210.2 353.569559,214.8 335.010886,214.8 C311.812545,214.8 292.937532,207.3 278.385845,192.3 C264.255947,177.7 257.190998,159.4 257.190998,137.4 C257.190998,115.4 264.255947,97.1 278.385845,82.5 C292.937532,67.5 311.812545,60 335.010886,60 Z M649.267408,57.6 C671.668995,57.6 690.086974,64.3461238 704.521346,77.8383715 L704.521638,62.5 L727.719979,62.5 L727.719979,212.5 L704.521638,212.5 L704.521346,192.161628 C690.086974,205.653876 671.668995,212.4 649.267408,212.4 C625.64728,212.4 606.455925,204.9 591.693344,189.9 C577.77434,175.5 570.814838,157.2 570.814838,135 C570.814838,112.8 577.77434,94.5 591.693344,80.1 C606.455925,65.1 625.64728,57.6 649.267408,57.6 Z M893.106291,8.7 L893.106291,62.4 L929.485507,62.4 L929.485507,82.2 L893.106291,82.2 L893.106291,212.4 L869.380715,212.4 L869.380715,82.2 L837.113932,82.2 L837.113932,62.4 L869.380715,62.4 L869.380715,8.7 L893.106291,8.7 Z M1026.6022,0 L1026.6022,21.3 L1023.43879,21.3 L1022.79704,21.3026072 C1011.94001,21.3912537 1003.77089,23.7403846 998.289677,28.35 C992.700986,33.05 989.90664,40.6 989.90664,51 L989.90664,51 L989.90664,62.4 L1026.6022,62.4 L1026.6022,82.2 L989.90664,82.2 L989.90664,212.4 L966.181064,212.4 L966.181064,82.2 L938.975737,82.2 L938.975737,62.4 L966.181064,62.4 L966.181064,49.2 L966.183895,48.5373813 C966.321654,32.4683163 971.487613,20.3891892 981.681774,12.3 C992.01558,4.1 1006.35637,0 1024.70415,0 L1024.70415,0 L1026.6022,0 Z M444.267954,2.4 L444.267954,85.8 L444.82295,85.1066597 C450.412409,78.2075963 457.186913,72.3387097 465.146461,67.5 C473.371327,62.5 482.756111,60 493.300811,60 C503.845511,60 512.913954,61.4 520.506138,64.2 C528.098322,67 534.741483,71.2 540.435622,76.8 C553.51105,89 560.048764,105.1 560.048764,125.1 L560.048764,125.1 L560.048764,212.4 L536.323188,212.4 L536.323188,125.7 L536.319873,125.023569 C536.187249,111.540097 532.075921,100.765574 523.985889,92.7 C515.761023,84.5 505.110875,80.4 492.035447,80.4 C478.749124,80.4 467.466295,84.6 458.186959,93 C448.907622,101.6 444.267954,112.6 444.267954,126 L444.267954,126 L444.267954,212.4 L420.542378,212.4 L420.542378,2.4 L444.267954,2.4 Z M826.674678,60 L826.674678,82.5 L823.827609,82.5 L823.188502,82.5030469 C806.397714,82.6635156 792.691745,89.1625 782.070596,102 C771.947684,114.4 766.886227,129.2 766.886227,146.4 L766.886227,146.4 L766.886227,212.4 L743.160652,212.4 L743.160652,62.4 L766.886227,62.4 L766.886227,99.3 L767.0788,98.7169219 C772.222768,83.4131406 783.125066,72.1075 799.785692,64.8 C806.745195,61.6 815.180955,60 825.092973,60 L825.092973,60 L826.674678,60 Z M1067.41019,62.4 L1108.21818,119.1 L1148.70983,62.4 L1179.07856,62.4 L1121.82084,135 L1183.191,212.4 L1152.82226,212.4 L1108.21818,151.2 L1063.29775,212.4 L1033.24536,212.4 L1094.29917,135 L1037.04145,62.4 L1067.41019,62.4 Z M649.267408,78 C632.184994,78 618.687777,83.6 608.775759,94.8 C599.285529,105.4 594.540414,118.8 594.540414,135 C594.540414,151.2 599.285529,164.6 608.775759,175.2 C618.687777,186.4 632.184994,192 649.267408,192 C666.349823,192 679.847039,186.4 689.759058,175.2 C699.249288,164.6 703.994403,151.2 703.994403,135 C703.994403,118.8 699.249288,105.4 689.759058,94.8 C679.847039,83.6 666.349823,78 649.267408,78 Z" id="letters" fill="#E1E1E1" fill-rule="nonzero"></path>
                        <g id="icon" transform="translate(0.000000, 16.000000)">
                            <polygon id="Rectangle" fill="#5E20E5" opacity="0.8" points="0 60.5264604 102.452519 0 102.452519 111.989322 0 173"></polygon>
                            <polygon id="Rectangle" fill="#00BFE6" opacity="0.75" points="51.2262593 86.2578913 153.678778 25.7314309 153.678778 137.720753 51.2262593 198.247214"></polygon>
                            <polygon id="Rectangle" fill="#19FEC0" opacity="0.7" points="102.452519 111.989322 204.905037 51.4628619 204.905037 163.452184 102.452519 223.978645"></polygon>
                            <polygon id="Path-2" fill-opacity="0.351547135" fill="#5EFED2" transform="translate(51.226259, 167.983983) scale(-1, -1) translate(-51.226259, -167.983983) " points="4.54747351e-13 111.989322 1.3642642e-12 223.978645 102.452519 162.967967"></polygon>
                        </g>
                    </g>
                    <polygon id="Path-2" fill-opacity="0.135270979" fill="#110035" points="0 76.5264604 7.27968929e-13 189 102.452519 127.989322"></polygon>
                </g>
            </g>
        </g>
    </g>
</svg>