<?xml version="1.0" encoding="UTF-8"?>
<svg width="270px" height="253px" viewBox="0 0 270 253" version="1.1" xmlns="http://www.w3.org/2000/svg" xmlns:xlink="http://www.w3.org/1999/xlink">
    <title>com-outline-icon-lite</title>
    <g id="Page-1" stroke="none" stroke-width="1" fill="none" fill-rule="evenodd">
        <path d="M-2.72848411e-12,86.0325379 L129.706974,159.785606 L129.706974,252.414527 L-2.72848411e-12,178.661459 L-2.72848411e-12,86.0325379 Z M270,86.0325379 L270,178.661459 L140.293026,252.414527 L140.293026,159.785606 L270,86.0325379 Z M133.203865,0.814527128 C152.965869,0.814527128 169.023555,9.52895731 169.342733,20.3455424 L169.343475,20.4011009 L198.925296,37.1897716 C199.957587,37.1316001 201.00275,37.0972993 202.058924,37.0878902 L202.656627,37.0852296 C222.618251,37.0852296 238.800337,45.9765957 238.800337,56.9446568 C238.800337,57.8568475 238.688407,58.7546739 238.471681,59.6342159 L265.164796,74.7844204 L134.999991,148.659741 L4.83520422,74.7844304 L30.203445,60.3862772 C29.8479872,59.2684227 29.6626578,58.1184318 29.6626578,56.9446568 C29.6626578,45.9765957 45.8447438,37.0852296 65.806368,37.0852296 C67.5395604,37.0852296 69.2442597,37.1522598 70.9123475,37.2818595 L97.1897947,22.3679151 C97.10395,21.8095216 97.0601545,21.2445481 97.0601545,20.6739543 C97.0601545,9.70589554 113.242245,0.814527128 133.203865,0.814527128 Z M166.946875,98.6767065 L166.930379,98.7002237 C161.703876,106.132483 148.574312,111.404175 133.203865,111.404175 C117.817356,111.404175 104.676417,106.12146 99.4609921,98.6767065 C97.9101582,100.890255 97.0601545,103.294926 97.0601545,105.80868 C97.0601545,116.776739 113.242245,125.668108 133.203865,125.668108 C153.165485,125.668108 169.347575,116.776739 169.347575,105.80868 C169.347575,103.294926 168.497571,100.890255 166.946875,98.6767065 Z M99.5492411,64.0764183 L99.532883,64.100126 C94.3063811,71.5323795 81.1768186,76.8040704 65.806368,76.8040704 C50.4198563,76.8040704 37.2789183,71.5213647 32.0634949,64.0768259 C30.5126612,66.2901626 29.6626578,68.6948342 29.6626578,71.2085892 C29.6626578,82.1766503 45.8447438,91.0680028 65.806368,91.0680028 C85.7679922,91.0680028 101.950078,82.1766368 101.950078,71.2085892 C101.950078,68.69476 101.100025,66.2900208 99.5492411,64.0764183 Z M236.3995,64.0763989 L236.383142,64.100126 C231.15664,71.5323795 218.027078,76.8040704 202.656627,76.8040704 C187.26998,76.8040704 174.128947,71.521272 168.913617,64.0763989 C167.36297,66.2900013 166.512917,68.6947405 166.512917,71.2085697 C166.512917,82.1766308 182.695003,91.0679833 202.656627,91.0679833 C222.618251,91.0679833 238.800337,82.1766173 238.800337,71.2085697 C238.800337,68.6947405 237.950284,66.2900013 236.3995,64.0763989 Z M166.946863,27.8058773 L166.930379,27.8294299 C161.703876,35.2616892 148.574312,40.5333815 133.203865,40.5333815 C117.817221,40.5333815 104.676186,35.2505736 99.4608549,27.8058773 C97.9101622,30.01943 97.0601545,32.4241067 97.0601545,34.9378672 C97.0601545,45.905926 113.242245,54.7972944 133.203865,54.7972944 C153.165485,54.7972944 169.347575,45.905926 169.347575,34.9378672 C169.347575,32.4241067 168.497567,30.01943 166.946863,27.8058773 Z" id="com-outline-icon-lite" fill="#FFFFFF"></path>
    </g>
</svg>