<?xml version="1.0" encoding="UTF-8"?>
<svg width="271px" height="252px" viewBox="0 0 271 252" version="1.1" xmlns="http://www.w3.org/2000/svg" xmlns:xlink="http://www.w3.org/1999/xlink">
    <title>com-outline-icon-lite</title>
    <defs>
        <linearGradient x1="50%" y1="0%" x2="50%" y2="100%" id="linearGradient-1">
            <stop stop-color="#70AAFF" offset="0%"></stop>
            <stop stop-color="#3D71FF" offset="100%"></stop>
        </linearGradient>
    </defs>
    <g id="Page-1" stroke="none" stroke-width="1" fill="none" fill-rule="evenodd">
        <path d="M0.799591885,85.5325379 L130.506566,159.285606 L130.506566,251.914527 L0.799591885,178.161459 L0.799591885,85.5325379 Z M270.799592,85.5325379 L270.799592,178.161459 L141.092618,251.914527 L141.092618,159.285606 L270.799592,85.5325379 Z M134.003457,0.314527128 C153.76546,0.314527128 169.823147,9.02895731 170.142325,19.8455424 L170.143067,19.9011009 L199.724888,36.6897716 C200.757179,36.6316001 201.802342,36.5972993 202.858516,36.5878902 L203.456219,36.5852296 C223.417843,36.5852296 239.599929,45.4765957 239.599929,56.4446568 C239.599929,57.3568475 239.487999,58.2546739 239.271273,59.1342159 L265.964388,74.2844204 L135.799583,148.159741 L5.6347961,74.2844304 L31.0030369,59.8862772 C30.6475791,58.7684227 30.4622496,57.6184318 30.4622496,56.4446568 C30.4622496,45.4765957 46.6443356,36.5852296 66.6059599,36.5852296 C68.3391523,36.5852296 70.0438516,36.6522598 71.7119394,36.7818595 L97.9893866,21.8679151 C97.9035419,21.3095216 97.8597464,20.7445481 97.8597464,20.1739543 C97.8597464,9.20589554 114.041837,0.314527128 134.003457,0.314527128 Z M167.746466,98.1767065 L167.729971,98.2002237 C162.503468,105.632483 149.373904,110.904175 134.003457,110.904175 C118.616948,110.904175 105.476008,105.62146 100.260584,98.1767065 C98.7097501,100.390255 97.8597464,102.794926 97.8597464,105.30868 C97.8597464,116.276739 114.041837,125.168108 134.003457,125.168108 C153.965077,125.168108 170.147167,116.276739 170.147167,105.30868 C170.147167,102.794926 169.297163,100.390255 167.746466,98.1767065 Z M100.348833,63.5764183 L100.332475,63.600126 C95.105973,71.0323795 81.9764105,76.3040704 66.6059599,76.3040704 C51.2194481,76.3040704 38.0785102,71.0213647 32.8630868,63.5768259 C31.3122531,65.7901626 30.4622496,68.1948342 30.4622496,70.7085892 C30.4622496,81.6766503 46.6443356,90.5680028 66.6059599,90.5680028 C86.5675841,90.5680028 102.74967,81.6766368 102.74967,70.7085892 C102.74967,68.19476 101.899617,65.7900208 100.348833,63.5764183 Z M237.199092,63.5763989 L237.182734,63.600126 C231.956232,71.0323795 218.826669,76.3040704 203.456219,76.3040704 C188.069572,76.3040704 174.928539,71.021272 169.713208,63.5763989 C168.162562,65.7900013 167.312509,68.1947405 167.312509,70.7085697 C167.312509,81.6766308 183.494595,90.5679833 203.456219,90.5679833 C223.417843,90.5679833 239.599929,81.6766173 239.599929,70.7085697 C239.599929,68.1947405 238.749875,65.7900013 237.199092,63.5763989 Z M167.746455,27.3058773 L167.729971,27.3294299 C162.503468,34.7616892 149.373904,40.0333815 134.003457,40.0333815 C118.616813,40.0333815 105.475778,34.7505736 100.260447,27.3058773 C98.7097541,29.51943 97.8597464,31.9241067 97.8597464,34.4378672 C97.8597464,45.405926 114.041837,54.2972944 134.003457,54.2972944 C153.965077,54.2972944 170.147167,45.405926 170.147167,34.4378672 C170.147167,31.9241067 169.297159,29.51943 167.746455,27.3058773 Z" id="com-outline-icon-lite" fill="url(#linearGradient-1)"></path>
    </g>
</svg>