<?xml version="1.0" encoding="UTF-8"?>
<svg width="59px" height="67px" viewBox="0 0 59 67" version="1.1" xmlns="http://www.w3.org/2000/svg" xmlns:xlink="http://www.w3.org/1999/xlink">
    <title>Group 3</title>
    <g id="Page-1" stroke="none" stroke-width="1" fill="none" fill-rule="evenodd">
        <g id="4_c2FjcmVkX2dlb21ldHJ5MjI" transform="translate(-197.000000, -18.000000)" fill="#FFFFFF">
            <g id="Group-3" transform="translate(197.472000, 18.231000)">
                <path d="M28.774,28.602 C28.736,28.602 28.698,28.582 28.678,28.547 C28.648,28.494 28.666,28.427 28.718,28.396 L28.859,28.315 C28.893,28.296 28.935,28.296 28.969,28.315 L29.019,28.344 C29.072,28.375 29.09,28.442 29.059,28.495 C29.03,28.546 28.966,28.564 28.914,28.538 L28.828,28.587 C28.811,28.597 28.792,28.602 28.774,28.602 Z M29.828,29.048 C29.809,29.048 29.79,29.044 29.773,29.034 L29.582,28.924 C29.529,28.893 29.511,28.826 29.542,28.773 C29.572,28.721 29.639,28.703 29.692,28.733 L29.883,28.843 C29.935,28.873 29.953,28.941 29.923,28.993 C29.903,29.029 29.866,29.048 29.828,29.048 Z M27.91,29.101 C27.872,29.101 27.835,29.081 27.815,29.045 C27.784,28.993 27.802,28.925 27.855,28.895 L28.046,28.785 C28.098,28.755 28.166,28.773 28.196,28.825 C28.226,28.878 28.208,28.945 28.156,28.976 L27.965,29.086 C27.948,29.096 27.929,29.101 27.91,29.101 Z M30.691,29.547 C30.672,29.547 30.654,29.542 30.636,29.532 L30.445,29.422 C30.393,29.392 30.375,29.324 30.405,29.272 C30.435,29.219 30.503,29.201 30.556,29.231 L30.746,29.342 C30.799,29.372 30.817,29.439 30.786,29.492 C30.766,29.527 30.729,29.547 30.691,29.547 Z M27.046,29.599 C27.008,29.599 26.971,29.579 26.951,29.544 C26.921,29.491 26.939,29.424 26.991,29.394 L27.182,29.283 C27.235,29.253 27.302,29.271 27.332,29.324 C27.363,29.376 27.345,29.444 27.292,29.474 L27.101,29.584 C27.084,29.594 27.065,29.599 27.046,29.599 Z M31.555,30.046 C31.536,30.046 31.517,30.041 31.5,30.031 L31.309,29.921 C31.256,29.89 31.238,29.823 31.269,29.77 C31.299,29.718 31.366,29.7 31.419,29.73 L31.61,29.84 C31.662,29.87 31.68,29.938 31.65,29.99 C31.63,30.026 31.593,30.046 31.555,30.046 Z M26.183,30.098 C26.145,30.098 26.108,30.078 26.088,30.042 C26.057,29.99 26.075,29.923 26.128,29.892 L26.318,29.782 C26.371,29.752 26.439,29.77 26.469,29.822 C26.499,29.875 26.481,29.942 26.429,29.973 L26.238,30.083 C26.221,30.093 26.202,30.098 26.183,30.098 Z M32.418,30.544 C32.399,30.544 32.38,30.539 32.363,30.529 L32.173,30.419 C32.12,30.389 32.102,30.321 32.132,30.269 C32.163,30.216 32.23,30.198 32.283,30.229 L32.473,30.339 C32.526,30.369 32.544,30.436 32.513,30.489 C32.493,30.524 32.456,30.544 32.418,30.544 Z M25.319,30.596 C25.281,30.596 25.244,30.576 25.224,30.541 C25.194,30.488 25.212,30.421 25.264,30.391 L25.455,30.281 C25.508,30.25 25.575,30.268 25.605,30.321 C25.636,30.374 25.618,30.441 25.565,30.471 L25.374,30.581 C25.357,30.591 25.338,30.596 25.319,30.596 Z M33.282,31.043 C33.263,31.043 33.244,31.038 33.227,31.028 L33.036,30.918 C32.983,30.887 32.965,30.82 32.996,30.767 C33.026,30.715 33.094,30.697 33.146,30.727 L33.337,30.837 C33.389,30.868 33.407,30.935 33.377,30.988 C33.357,31.023 33.32,31.043 33.282,31.043 Z M24.456,31.095 C24.418,31.095 24.381,31.075 24.361,31.04 C24.33,30.987 24.348,30.92 24.401,30.889 L24.591,30.779 C24.644,30.749 24.711,30.767 24.742,30.82 C24.772,30.872 24.754,30.94 24.701,30.97 L24.511,31.08 C24.494,31.09 24.475,31.095 24.456,31.095 Z M34.145,31.541 C34.127,31.541 34.108,31.536 34.09,31.526 L33.9,31.416 C33.847,31.386 33.829,31.318 33.859,31.266 C33.89,31.213 33.957,31.195 34.01,31.226 L34.2,31.336 C34.253,31.366 34.271,31.433 34.241,31.486 C34.22,31.521 34.183,31.541 34.145,31.541 Z M23.592,31.593 C23.554,31.593 23.517,31.574 23.497,31.538 C23.467,31.486 23.485,31.418 23.537,31.388 L23.728,31.278 C23.78,31.248 23.848,31.265 23.878,31.318 C23.909,31.371 23.891,31.438 23.838,31.468 L23.647,31.579 C23.63,31.589 23.611,31.593 23.592,31.593 Z M35.009,32.04 C34.99,32.04 34.971,32.035 34.954,32.025 L34.763,31.915 C34.71,31.884 34.692,31.817 34.723,31.764 C34.753,31.712 34.821,31.694 34.873,31.724 L35.064,31.834 C35.117,31.865 35.135,31.932 35.104,31.985 C35.084,32.02 35.047,32.04 35.009,32.04 Z M22.729,32.092 C22.691,32.092 22.654,32.072 22.633,32.037 C22.603,31.984 22.621,31.917 22.674,31.887 L22.864,31.776 C22.917,31.746 22.984,31.764 23.015,31.817 C23.045,31.869 23.027,31.937 22.974,31.967 L22.784,32.077 C22.766,32.087 22.748,32.092 22.729,32.092 Z M35.872,32.538 C35.854,32.538 35.835,32.533 35.817,32.524 L35.627,32.413 C35.574,32.383 35.556,32.316 35.586,32.263 C35.617,32.21 35.684,32.192 35.737,32.223 L35.927,32.333 C35.98,32.363 35.998,32.43 35.968,32.483 C35.947,32.519 35.91,32.538 35.872,32.538 Z M21.865,32.59 C21.827,32.59 21.79,32.571 21.77,32.535 C21.74,32.483 21.758,32.415 21.81,32.385 L22.001,32.275 C22.053,32.245 22.121,32.263 22.151,32.315 C22.182,32.368 22.163,32.435 22.111,32.466 L21.92,32.576 C21.903,32.586 21.884,32.59 21.865,32.59 Z M36.736,33.037 C36.717,33.037 36.698,33.032 36.681,33.022 L36.49,32.912 C36.438,32.882 36.42,32.814 36.45,32.762 C36.48,32.709 36.547,32.691 36.6,32.721 L36.791,32.831 C36.844,32.862 36.862,32.929 36.831,32.982 C36.811,33.017 36.774,33.037 36.736,33.037 Z M21.002,33.089 C20.964,33.089 20.927,33.069 20.906,33.034 C20.876,32.981 20.894,32.914 20.947,32.884 L21.137,32.773 C21.19,32.743 21.257,32.761 21.288,32.814 C21.318,32.866 21.3,32.934 21.247,32.964 L21.057,33.074 C21.039,33.084 21.02,33.089 21.002,33.089 Z M37.599,33.535 C37.581,33.535 37.562,33.531 37.544,33.521 L37.354,33.411 C37.301,33.38 37.283,33.313 37.314,33.26 C37.344,33.208 37.411,33.19 37.464,33.22 L37.654,33.33 C37.707,33.36 37.725,33.428 37.695,33.48 C37.674,33.516 37.637,33.535 37.599,33.535 Z M20.138,33.588 C20.1,33.588 20.063,33.568 20.043,33.533 C20.012,33.48 20.03,33.413 20.083,33.382 L20.274,33.272 C20.326,33.242 20.394,33.26 20.424,33.312 C20.454,33.365 20.436,33.432 20.384,33.463 L20.193,33.573 C20.176,33.583 20.157,33.588 20.138,33.588 Z M38.463,34.034 C38.444,34.034 38.425,34.029 38.408,34.019 L38.217,33.909 C38.165,33.879 38.147,33.811 38.177,33.759 C38.207,33.706 38.275,33.688 38.327,33.718 L38.518,33.828 C38.571,33.859 38.589,33.926 38.558,33.979 C38.538,34.014 38.501,34.034 38.463,34.034 Z M19.275,34.086 C19.237,34.086 19.2,34.066 19.179,34.031 C19.149,33.978 19.167,33.911 19.219,33.881 L19.41,33.771 C19.463,33.74 19.53,33.758 19.561,33.811 C19.591,33.864 19.573,33.931 19.52,33.961 L19.33,34.071 C19.312,34.081 19.293,34.086 19.275,34.086 Z M39.326,34.532 C39.308,34.532 39.289,34.528 39.272,34.518 L39.081,34.408 C39.028,34.377 39.01,34.31 39.041,34.257 C39.071,34.205 39.138,34.187 39.191,34.217 L39.382,34.327 C39.434,34.357 39.452,34.425 39.422,34.477 C39.402,34.513 39.365,34.532 39.326,34.532 Z M18.411,34.585 C18.373,34.585 18.336,34.565 18.316,34.53 C18.285,34.477 18.303,34.41 18.356,34.379 L18.547,34.269 C18.599,34.239 18.667,34.257 18.697,34.309 C18.727,34.362 18.709,34.429 18.657,34.46 L18.466,34.57 C18.449,34.58 18.43,34.585 18.411,34.585 Z M40.19,35.031 C40.171,35.031 40.152,35.026 40.135,35.016 L39.944,34.906 C39.892,34.876 39.874,34.808 39.904,34.756 C39.934,34.703 40.002,34.685 40.054,34.716 L40.245,34.826 C40.298,34.856 40.316,34.923 40.285,34.976 C40.265,35.011 40.228,35.031 40.19,35.031 Z M17.548,35.083 C17.51,35.083 17.473,35.063 17.452,35.028 C17.422,34.976 17.44,34.908 17.492,34.878 L17.683,34.768 C17.736,34.737 17.803,34.756 17.833,34.808 C17.864,34.861 17.846,34.928 17.793,34.958 L17.603,35.068 C17.585,35.079 17.566,35.083 17.548,35.083 Z M41.054,35.53 C41.035,35.53 41.016,35.525 40.999,35.515 L40.808,35.405 C40.755,35.374 40.737,35.307 40.768,35.254 C40.798,35.202 40.865,35.184 40.918,35.214 L41.109,35.324 C41.161,35.355 41.179,35.422 41.149,35.475 C41.129,35.51 41.092,35.53 41.054,35.53 Z M16.684,35.582 C16.646,35.582 16.609,35.562 16.589,35.527 C16.558,35.474 16.576,35.407 16.629,35.376 L16.82,35.266 C16.872,35.236 16.94,35.254 16.97,35.307 C17,35.359 16.982,35.427 16.93,35.457 L16.739,35.567 C16.722,35.577 16.703,35.582 16.684,35.582 Z M41.917,36.028 C41.898,36.028 41.88,36.023 41.862,36.013 L41.671,35.903 C41.619,35.873 41.601,35.806 41.631,35.753 C41.662,35.7 41.729,35.682 41.782,35.713 L41.972,35.823 C42.025,35.853 42.043,35.92 42.012,35.973 C41.992,36.008 41.955,36.028 41.917,36.028 Z M15.821,36.08 C15.783,36.08 15.745,36.061 15.725,36.025 C15.695,35.973 15.713,35.905 15.765,35.875 L15.956,35.765 C16.009,35.734 16.076,35.753 16.106,35.805 C16.137,35.858 16.119,35.925 16.066,35.956 L15.876,36.066 C15.858,36.076 15.839,36.08 15.821,36.08 Z M42.781,36.527 C42.762,36.527 42.743,36.522 42.726,36.512 L42.535,36.402 C42.482,36.372 42.464,36.304 42.495,36.252 C42.525,36.199 42.592,36.181 42.645,36.211 L42.836,36.321 C42.888,36.352 42.906,36.419 42.876,36.472 C42.856,36.507 42.819,36.527 42.781,36.527 Z M14.957,36.579 C14.919,36.579 14.882,36.559 14.862,36.524 C14.831,36.471 14.849,36.404 14.902,36.374 L15.093,36.264 C15.145,36.233 15.213,36.251 15.243,36.304 C15.273,36.356 15.255,36.424 15.203,36.454 L15.012,36.564 C14.995,36.574 14.976,36.579 14.957,36.579 Z M43.644,37.025 C43.625,37.025 43.606,37.02 43.589,37.01 L43.399,36.9 C43.346,36.87 43.328,36.803 43.358,36.75 C43.389,36.697 43.456,36.679 43.509,36.71 L43.699,36.82 C43.752,36.85 43.77,36.917 43.74,36.97 C43.719,37.006 43.682,37.025 43.644,37.025 Z M14.093,37.078 C14.055,37.078 14.018,37.058 13.998,37.023 C13.968,36.97 13.986,36.903 14.038,36.872 L14.229,36.762 C14.282,36.732 14.349,36.75 14.379,36.802 C14.41,36.855 14.392,36.922 14.339,36.953 L14.148,37.063 C14.131,37.073 14.112,37.078 14.093,37.078 Z M44.508,37.524 C44.489,37.524 44.47,37.519 44.453,37.509 L44.262,37.399 C44.209,37.369 44.191,37.301 44.222,37.249 C44.252,37.196 44.32,37.178 44.372,37.208 L44.563,37.318 C44.615,37.349 44.633,37.416 44.603,37.469 C44.583,37.504 44.546,37.524 44.508,37.524 Z M13.23,37.576 C13.192,37.576 13.155,37.556 13.135,37.521 C13.104,37.468 13.122,37.401 13.175,37.371 L13.365,37.261 C13.418,37.23 13.486,37.248 13.516,37.301 C13.546,37.354 13.528,37.421 13.476,37.451 L13.285,37.561 C13.268,37.571 13.249,37.576 13.23,37.576 Z M45.371,38.022 C45.353,38.022 45.334,38.018 45.316,38.007 L45.126,37.898 C45.073,37.867 45.055,37.8 45.085,37.747 C45.116,37.695 45.183,37.676 45.236,37.707 L45.426,37.817 C45.479,37.847 45.497,37.915 45.467,37.967 C45.446,38.003 45.409,38.022 45.371,38.022 Z M12.366,38.075 C12.328,38.075 12.291,38.055 12.271,38.02 C12.241,37.967 12.259,37.9 12.311,37.869 L12.502,37.759 C12.555,37.729 12.622,37.747 12.652,37.8 C12.683,37.852 12.665,37.919 12.612,37.95 L12.421,38.06 C12.404,38.07 12.385,38.075 12.366,38.075 Z M45.461,38.967 C45.401,38.967 45.351,38.918 45.351,38.857 L45.351,38.637 C45.351,38.576 45.401,38.527 45.461,38.527 C45.522,38.527 45.572,38.576 45.572,38.637 L45.572,38.857 C45.572,38.918 45.522,38.967 45.461,38.967 Z M12.366,39.047 C12.306,39.047 12.256,38.998 12.256,38.937 L12.256,38.717 C12.256,38.656 12.306,38.607 12.366,38.607 C12.427,38.607 12.476,38.656 12.476,38.717 L12.476,38.937 C12.476,38.998 12.427,39.047 12.366,39.047 Z M45.461,39.964 C45.401,39.964 45.351,39.915 45.351,39.854 L45.351,39.634 C45.351,39.574 45.401,39.524 45.461,39.524 C45.522,39.524 45.572,39.574 45.572,39.634 L45.572,39.854 C45.572,39.915 45.522,39.964 45.461,39.964 Z M12.366,40.045 C12.306,40.045 12.256,39.995 12.256,39.934 L12.256,39.714 C12.256,39.653 12.306,39.604 12.366,39.604 C12.427,39.604 12.476,39.653 12.476,39.714 L12.476,39.934 C12.476,39.995 12.427,40.045 12.366,40.045 Z M45.461,40.962 C45.401,40.962 45.351,40.912 45.351,40.852 L45.351,40.631 C45.351,40.571 45.401,40.521 45.461,40.521 C45.522,40.521 45.572,40.571 45.572,40.631 L45.572,40.852 C45.572,40.912 45.522,40.962 45.461,40.962 Z M12.366,41.042 C12.306,41.042 12.256,40.992 12.256,40.932 L12.256,40.712 C12.256,40.651 12.306,40.601 12.366,40.601 C12.427,40.601 12.476,40.651 12.476,40.712 L12.476,40.932 C12.476,40.992 12.427,41.042 12.366,41.042 Z M45.461,41.959 C45.401,41.959 45.351,41.91 45.351,41.849 L45.351,41.628 C45.351,41.568 45.401,41.518 45.461,41.518 C45.522,41.518 45.572,41.568 45.572,41.628 L45.572,41.849 C45.572,41.91 45.522,41.959 45.461,41.959 Z M12.366,42.039 C12.306,42.039 12.256,41.99 12.256,41.929 L12.256,41.709 C12.256,41.648 12.306,41.598 12.366,41.598 C12.427,41.598 12.476,41.648 12.476,41.709 L12.476,41.929 C12.476,41.99 12.427,42.039 12.366,42.039 Z M45.462,42.956 C45.401,42.956 45.352,42.907 45.351,42.846 L45.351,42.626 C45.351,42.565 45.401,42.516 45.461,42.516 C45.522,42.515 45.571,42.565 45.572,42.626 L45.572,42.846 C45.572,42.907 45.522,42.956 45.462,42.956 Z M12.366,43.036 C12.306,43.036 12.256,42.987 12.256,42.926 L12.256,42.706 C12.256,42.645 12.305,42.596 12.366,42.596 C12.427,42.596 12.476,42.645 12.476,42.706 L12.477,42.926 C12.477,42.987 12.427,43.036 12.366,43.036 Z M45.462,43.953 C45.401,43.953 45.351,43.904 45.351,43.843 L45.351,43.623 C45.351,43.562 45.401,43.513 45.462,43.513 C45.522,43.513 45.572,43.562 45.572,43.623 L45.572,43.843 C45.572,43.904 45.522,43.953 45.462,43.953 Z M12.366,44.033 C12.306,44.033 12.256,43.984 12.256,43.923 L12.256,43.703 C12.256,43.642 12.306,43.593 12.366,43.593 C12.427,43.593 12.477,43.642 12.477,43.703 L12.477,43.923 C12.477,43.984 12.427,44.033 12.366,44.033 Z M45.462,44.95 C45.401,44.95 45.351,44.901 45.351,44.84 L45.351,44.62 C45.351,44.559 45.401,44.51 45.462,44.51 C45.522,44.51 45.572,44.559 45.572,44.62 L45.572,44.84 C45.572,44.901 45.522,44.95 45.462,44.95 Z M12.366,45.03 C12.306,45.03 12.256,44.981 12.256,44.92 L12.256,44.7 C12.256,44.639 12.306,44.59 12.366,44.59 C12.427,44.59 12.477,44.639 12.477,44.7 L12.477,44.92 C12.477,44.981 12.427,45.03 12.366,45.03 Z M45.462,45.947 C45.401,45.947 45.351,45.898 45.351,45.837 L45.351,45.617 C45.351,45.556 45.401,45.507 45.462,45.507 C45.522,45.507 45.572,45.556 45.572,45.617 L45.572,45.837 C45.572,45.898 45.522,45.947 45.462,45.947 Z M12.366,46.027 C12.306,46.027 12.256,45.978 12.256,45.917 L12.256,45.697 C12.256,45.636 12.306,45.587 12.366,45.587 C12.427,45.587 12.477,45.636 12.477,45.697 L12.477,45.917 C12.477,45.978 12.427,46.027 12.366,46.027 Z M45.462,46.944 C45.401,46.944 45.351,46.895 45.351,46.834 L45.351,46.614 C45.351,46.553 45.401,46.504 45.462,46.504 C45.522,46.504 45.572,46.553 45.572,46.614 L45.572,46.834 C45.572,46.895 45.522,46.944 45.462,46.944 Z M12.366,47.024 C12.306,47.024 12.256,46.975 12.256,46.914 L12.256,46.694 C12.256,46.633 12.306,46.584 12.366,46.584 C12.427,46.584 12.477,46.633 12.477,46.694 L12.477,46.914 C12.477,46.975 12.427,47.024 12.366,47.024 Z M45.462,47.942 C45.401,47.942 45.351,47.892 45.351,47.831 L45.351,47.611 C45.351,47.55 45.401,47.501 45.462,47.501 C45.522,47.501 45.572,47.55 45.572,47.611 L45.572,47.831 C45.572,47.892 45.522,47.942 45.462,47.942 Z M12.366,48.022 C12.306,48.022 12.256,47.972 12.256,47.911 L12.256,47.691 C12.256,47.63 12.306,47.581 12.366,47.581 C12.427,47.581 12.477,47.63 12.477,47.691 L12.477,47.911 C12.477,47.972 12.427,48.022 12.366,48.022 Z M45.462,48.939 C45.401,48.939 45.351,48.889 45.351,48.829 L45.351,48.608 C45.351,48.548 45.401,48.498 45.462,48.498 C45.522,48.498 45.572,48.548 45.572,48.608 L45.572,48.829 C45.572,48.889 45.522,48.939 45.462,48.939 Z M12.366,49.019 C12.306,49.019 12.256,48.969 12.256,48.909 L12.256,48.688 C12.256,48.628 12.306,48.578 12.366,48.578 C12.427,48.578 12.477,48.628 12.477,48.688 L12.477,48.909 C12.477,48.969 12.427,49.019 12.366,49.019 Z M45.462,49.936 C45.401,49.936 45.351,49.887 45.351,49.826 L45.351,49.606 C45.351,49.545 45.401,49.495 45.462,49.495 C45.522,49.495 45.572,49.545 45.572,49.606 L45.572,49.826 C45.572,49.887 45.522,49.936 45.462,49.936 Z M12.366,50.016 C12.306,50.016 12.256,49.967 12.256,49.906 L12.256,49.686 C12.256,49.625 12.306,49.575 12.366,49.575 C12.427,49.575 12.477,49.625 12.477,49.686 L12.477,49.906 C12.477,49.967 12.427,50.016 12.366,50.016 Z M45.462,50.933 C45.401,50.933 45.351,50.884 45.351,50.823 L45.351,50.603 C45.351,50.542 45.401,50.493 45.462,50.493 C45.522,50.493 45.572,50.542 45.572,50.603 L45.572,50.823 C45.572,50.884 45.522,50.933 45.462,50.933 Z M12.366,51.013 C12.306,51.013 12.256,50.964 12.256,50.903 L12.256,50.683 C12.256,50.622 12.306,50.573 12.366,50.573 C12.427,50.573 12.477,50.622 12.477,50.683 L12.477,50.903 C12.477,50.964 12.427,51.013 12.366,51.013 Z M45.462,51.93 C45.401,51.93 45.351,51.881 45.351,51.82 L45.351,51.6 C45.351,51.539 45.401,51.49 45.462,51.49 C45.522,51.49 45.572,51.539 45.572,51.6 L45.572,51.82 C45.572,51.881 45.522,51.93 45.462,51.93 Z M12.366,52.01 C12.306,52.01 12.256,51.961 12.256,51.9 L12.256,51.68 C12.256,51.619 12.306,51.57 12.366,51.57 C12.427,51.57 12.477,51.619 12.477,51.68 L12.477,51.9 C12.477,51.961 12.427,52.01 12.366,52.01 Z M45.462,52.927 C45.401,52.927 45.352,52.878 45.352,52.817 L45.352,52.597 C45.352,52.536 45.401,52.487 45.462,52.487 C45.522,52.487 45.572,52.536 45.572,52.597 L45.572,52.817 C45.572,52.878 45.522,52.927 45.462,52.927 Z M12.367,53.007 C12.306,53.007 12.256,52.958 12.256,52.897 L12.256,52.677 C12.256,52.616 12.306,52.567 12.367,52.567 C12.427,52.567 12.477,52.616 12.477,52.677 L12.477,52.897 C12.477,52.958 12.427,53.007 12.367,53.007 Z M45.462,53.924 C45.401,53.924 45.352,53.875 45.352,53.814 L45.352,53.594 C45.352,53.533 45.401,53.484 45.462,53.484 C45.522,53.484 45.572,53.533 45.572,53.594 L45.572,53.814 C45.572,53.875 45.522,53.924 45.462,53.924 Z M12.367,54.004 C12.306,54.004 12.256,53.955 12.256,53.894 L12.256,53.674 C12.256,53.613 12.306,53.564 12.367,53.564 C12.427,53.564 12.477,53.613 12.477,53.674 L12.477,53.894 C12.477,53.955 12.427,54.004 12.367,54.004 Z M45.462,54.921 C45.401,54.921 45.352,54.872 45.352,54.811 L45.352,54.591 C45.352,54.53 45.401,54.481 45.462,54.481 C45.522,54.481 45.572,54.53 45.572,54.591 L45.572,54.811 C45.572,54.872 45.522,54.921 45.462,54.921 Z M12.367,55.001 C12.306,55.001 12.256,54.952 12.256,54.891 L12.256,54.671 C12.256,54.61 12.306,54.561 12.367,54.561 C12.427,54.561 12.477,54.61 12.477,54.671 L12.477,54.891 C12.477,54.952 12.427,55.001 12.367,55.001 Z M45.462,55.919 C45.401,55.919 45.352,55.869 45.352,55.808 L45.352,55.588 C45.352,55.527 45.401,55.478 45.462,55.478 C45.522,55.478 45.572,55.527 45.572,55.588 L45.572,55.808 C45.572,55.869 45.522,55.919 45.462,55.919 Z M12.367,55.999 C12.306,55.999 12.256,55.949 12.256,55.889 L12.256,55.668 C12.256,55.608 12.306,55.558 12.367,55.558 C12.427,55.558 12.477,55.608 12.477,55.668 L12.477,55.889 C12.477,55.949 12.427,55.999 12.367,55.999 Z M45.462,56.916 C45.401,56.916 45.352,56.866 45.352,56.805 L45.352,56.585 C45.352,56.525 45.401,56.475 45.462,56.475 C45.522,56.475 45.572,56.525 45.572,56.585 L45.572,56.805 C45.572,56.866 45.522,56.916 45.462,56.916 Z M12.367,56.996 C12.306,56.996 12.256,56.946 12.256,56.886 L12.256,56.665 C12.256,56.605 12.306,56.555 12.367,56.555 C12.427,56.555 12.477,56.605 12.477,56.665 L12.477,56.886 C12.477,56.946 12.427,56.996 12.367,56.996 Z M44.829,57.547 C44.791,57.547 44.754,57.528 44.733,57.492 C44.703,57.44 44.721,57.372 44.774,57.342 L44.964,57.232 C45.017,57.201 45.084,57.219 45.115,57.272 C45.145,57.325 45.127,57.392 45.074,57.422 L44.884,57.533 C44.866,57.542 44.847,57.547 44.829,57.547 Z M13.068,57.588 C13.05,57.588 13.031,57.583 13.014,57.573 L12.823,57.463 C12.77,57.432 12.752,57.365 12.783,57.312 C12.813,57.26 12.88,57.241 12.933,57.272 L13.124,57.382 C13.176,57.412 13.194,57.48 13.164,57.533 C13.144,57.568 13.106,57.588 13.068,57.588 Z M43.965,58.046 C43.927,58.046 43.89,58.026 43.87,57.991 C43.839,57.938 43.857,57.871 43.91,57.84 L44.101,57.73 C44.154,57.7 44.221,57.718 44.251,57.771 C44.282,57.823 44.264,57.891 44.211,57.921 L44.02,58.031 C44.003,58.041 43.984,58.046 43.965,58.046 Z M13.932,58.086 C13.913,58.086 13.894,58.081 13.877,58.071 L13.686,57.961 C13.634,57.931 13.616,57.863 13.646,57.811 C13.677,57.758 13.744,57.74 13.797,57.77 L13.987,57.881 C14.04,57.911 14.058,57.978 14.027,58.031 C14.007,58.066 13.97,58.086 13.932,58.086 Z M43.102,58.544 C43.064,58.544 43.027,58.525 43.006,58.489 C42.976,58.437 42.994,58.369 43.047,58.339 L43.237,58.229 C43.29,58.199 43.357,58.217 43.388,58.269 C43.418,58.322 43.4,58.389 43.347,58.419 L43.157,58.53 C43.139,58.54 43.12,58.544 43.102,58.544 Z M14.796,58.585 C14.777,58.585 14.758,58.58 14.741,58.57 L14.55,58.46 C14.497,58.429 14.479,58.362 14.51,58.309 C14.54,58.257 14.608,58.239 14.66,58.269 L14.851,58.379 C14.903,58.41 14.921,58.477 14.891,58.53 C14.871,58.565 14.834,58.585 14.796,58.585 Z M42.238,59.043 C42.2,59.043 42.163,59.023 42.143,58.988 C42.112,58.935 42.13,58.868 42.183,58.838 L42.374,58.728 C42.426,58.697 42.494,58.715 42.524,58.768 C42.555,58.82 42.536,58.888 42.484,58.918 L42.293,59.028 C42.276,59.038 42.257,59.043 42.238,59.043 Z M15.659,59.083 C15.64,59.083 15.622,59.078 15.604,59.068 L15.413,58.958 C15.361,58.928 15.343,58.861 15.373,58.808 C15.404,58.755 15.471,58.737 15.524,58.768 L15.714,58.878 C15.767,58.908 15.785,58.975 15.755,59.028 C15.734,59.063 15.697,59.083 15.659,59.083 Z M41.375,59.542 C41.337,59.542 41.3,59.522 41.279,59.486 C41.249,59.434 41.267,59.367 41.32,59.336 L41.51,59.226 C41.563,59.196 41.63,59.214 41.661,59.266 C41.691,59.319 41.673,59.386 41.62,59.417 L41.43,59.527 C41.412,59.537 41.393,59.542 41.375,59.542 Z M16.523,59.582 C16.504,59.582 16.485,59.577 16.468,59.567 L16.277,59.457 C16.224,59.426 16.206,59.359 16.237,59.306 C16.267,59.254 16.334,59.236 16.387,59.266 L16.578,59.376 C16.63,59.407 16.648,59.474 16.618,59.527 C16.598,59.562 16.561,59.582 16.523,59.582 Z M40.511,60.04 C40.473,60.04 40.436,60.02 40.416,59.985 C40.385,59.932 40.403,59.865 40.456,59.835 L40.647,59.725 C40.7,59.694 40.767,59.712 40.797,59.765 C40.827,59.818 40.809,59.885 40.757,59.915 L40.566,60.025 C40.549,60.035 40.53,60.04 40.511,60.04 Z M17.386,60.08 C17.368,60.08 17.349,60.075 17.331,60.066 L17.141,59.956 C17.088,59.925 17.07,59.858 17.1,59.805 C17.131,59.752 17.198,59.734 17.251,59.765 L17.441,59.875 C17.494,59.905 17.512,59.972 17.482,60.025 C17.461,60.06 17.424,60.08 17.386,60.08 Z M39.648,60.539 C39.61,60.539 39.573,60.519 39.552,60.484 C39.522,60.431 39.54,60.364 39.592,60.333 L39.783,60.223 C39.836,60.192 39.903,60.211 39.934,60.264 C39.964,60.316 39.946,60.384 39.893,60.414 L39.703,60.524 C39.685,60.534 39.666,60.539 39.648,60.539 Z M18.25,60.579 C18.231,60.579 18.212,60.574 18.195,60.564 L18.004,60.454 C17.951,60.424 17.933,60.356 17.964,60.304 C17.994,60.251 18.062,60.233 18.114,60.263 L18.305,60.373 C18.357,60.404 18.376,60.471 18.345,60.524 C18.325,60.559 18.288,60.579 18.25,60.579 Z M38.784,61.037 C38.746,61.037 38.709,61.018 38.689,60.982 C38.658,60.93 38.676,60.862 38.729,60.832 L38.92,60.722 C38.972,60.692 39.04,60.709 39.07,60.762 C39.1,60.815 39.082,60.882 39.03,60.912 L38.839,61.023 C38.822,61.033 38.803,61.037 38.784,61.037 Z M19.113,61.077 C19.095,61.077 19.076,61.073 19.058,61.063 L18.868,60.953 C18.815,60.922 18.797,60.855 18.827,60.802 C18.858,60.749 18.925,60.731 18.978,60.762 L19.168,60.872 C19.221,60.902 19.239,60.97 19.209,61.022 C19.188,61.058 19.151,61.077 19.113,61.077 Z M37.921,61.536 C37.883,61.536 37.846,61.516 37.825,61.481 C37.795,61.428 37.813,61.361 37.865,61.33 L38.056,61.22 C38.109,61.19 38.176,61.208 38.207,61.261 C38.237,61.313 38.219,61.381 38.166,61.411 L37.976,61.521 C37.958,61.531 37.939,61.536 37.921,61.536 Z M19.977,61.576 C19.958,61.576 19.939,61.571 19.922,61.561 L19.731,61.451 C19.679,61.421 19.661,61.353 19.691,61.301 C19.721,61.248 19.789,61.23 19.841,61.26 L20.032,61.371 C20.085,61.401 20.103,61.468 20.072,61.521 C20.052,61.556 20.015,61.576 19.977,61.576 Z M37.057,62.034 C37.019,62.034 36.982,62.015 36.962,61.979 C36.931,61.927 36.949,61.859 37.002,61.829 L37.193,61.719 C37.245,61.688 37.313,61.706 37.343,61.759 C37.373,61.812 37.355,61.879 37.303,61.91 L37.112,62.02 C37.095,62.03 37.076,62.034 37.057,62.034 Z M20.84,62.074 C20.822,62.074 20.803,62.07 20.785,62.06 L20.595,61.95 C20.542,61.919 20.524,61.852 20.554,61.799 C20.585,61.747 20.652,61.729 20.705,61.759 L20.896,61.869 C20.948,61.899 20.966,61.967 20.936,62.019 C20.915,62.055 20.878,62.074 20.84,62.074 Z M36.194,62.533 C36.156,62.533 36.118,62.513 36.098,62.478 C36.068,62.425 36.086,62.358 36.138,62.328 L36.329,62.218 C36.382,62.187 36.449,62.205 36.479,62.258 C36.51,62.31 36.492,62.378 36.439,62.408 L36.248,62.518 C36.231,62.528 36.212,62.533 36.194,62.533 Z M21.704,62.573 C21.685,62.573 21.666,62.568 21.649,62.558 L21.458,62.448 C21.406,62.418 21.388,62.35 21.418,62.298 C21.448,62.245 21.516,62.227 21.568,62.257 L21.759,62.368 C21.812,62.398 21.83,62.465 21.799,62.518 C21.779,62.553 21.742,62.573 21.704,62.573 Z M35.33,63.032 C35.292,63.032 35.255,63.012 35.235,62.977 C35.204,62.924 35.222,62.856 35.275,62.826 L35.466,62.716 C35.518,62.686 35.586,62.704 35.616,62.756 C35.646,62.809 35.628,62.876 35.576,62.907 L35.385,63.017 C35.368,63.027 35.349,63.032 35.33,63.032 Z M22.567,63.072 C22.549,63.072 22.53,63.067 22.512,63.057 L22.322,62.947 C22.269,62.916 22.251,62.849 22.282,62.796 C22.312,62.744 22.38,62.725 22.432,62.756 L22.623,62.866 C22.675,62.897 22.693,62.964 22.663,63.016 C22.642,63.052 22.605,63.072 22.567,63.072 Z M34.466,63.53 C34.428,63.53 34.391,63.51 34.371,63.475 C34.341,63.422 34.359,63.355 34.411,63.325 L34.602,63.215 C34.654,63.184 34.722,63.202 34.752,63.255 C34.783,63.308 34.765,63.375 34.712,63.405 L34.521,63.515 C34.504,63.525 34.485,63.53 34.466,63.53 Z M23.431,63.57 C23.412,63.57 23.393,63.565 23.376,63.555 L23.185,63.445 C23.133,63.415 23.115,63.348 23.145,63.295 C23.175,63.242 23.243,63.224 23.295,63.255 L23.486,63.365 C23.539,63.395 23.557,63.462 23.526,63.515 C23.506,63.55 23.469,63.57 23.431,63.57 Z M33.603,64.029 C33.565,64.029 33.528,64.009 33.508,63.974 C33.477,63.921 33.495,63.854 33.548,63.823 L33.738,63.713 C33.791,63.683 33.858,63.701 33.889,63.753 C33.919,63.806 33.901,63.873 33.848,63.904 L33.658,64.014 C33.641,64.024 33.622,64.029 33.603,64.029 Z M24.294,64.069 C24.276,64.069 24.257,64.064 24.24,64.054 L24.049,63.944 C23.996,63.913 23.978,63.846 24.009,63.793 C24.039,63.741 24.107,63.723 24.159,63.753 L24.35,63.863 C24.402,63.894 24.42,63.961 24.39,64.014 C24.37,64.049 24.332,64.069 24.294,64.069 Z M32.739,64.527 C32.701,64.527 32.664,64.508 32.644,64.472 C32.614,64.42 32.632,64.352 32.684,64.322 L32.875,64.212 C32.927,64.182 32.995,64.199 33.025,64.252 C33.056,64.305 33.038,64.372 32.985,64.402 L32.794,64.512 C32.777,64.523 32.758,64.527 32.739,64.527 Z M25.158,64.567 C25.139,64.567 25.12,64.562 25.103,64.552 L24.912,64.442 C24.86,64.412 24.842,64.345 24.872,64.292 C24.903,64.239 24.97,64.221 25.023,64.252 L25.213,64.362 C25.266,64.392 25.284,64.46 25.253,64.512 C25.233,64.548 25.196,64.567 25.158,64.567 Z M31.876,65.026 C31.838,65.026 31.801,65.006 31.781,64.971 C31.75,64.918 31.768,64.851 31.821,64.82 L32.011,64.71 C32.064,64.68 32.131,64.698 32.162,64.751 C32.192,64.803 32.174,64.871 32.121,64.901 L31.931,65.011 C31.914,65.021 31.895,65.026 31.876,65.026 Z M26.022,65.066 C26.003,65.066 25.984,65.061 25.967,65.051 L25.776,64.941 C25.723,64.91 25.705,64.843 25.736,64.791 C25.766,64.738 25.833,64.72 25.886,64.75 L26.077,64.86 C26.129,64.891 26.147,64.958 26.117,65.011 C26.097,65.046 26.06,65.066 26.022,65.066 Z M31.012,65.524 C30.974,65.524 30.937,65.505 30.917,65.469 C30.887,65.417 30.905,65.349 30.957,65.319 L31.148,65.209 C31.201,65.178 31.268,65.197 31.298,65.249 C31.329,65.302 31.311,65.369 31.258,65.4 L31.067,65.51 C31.05,65.52 31.031,65.524 31.012,65.524 Z M26.885,65.564 C26.867,65.564 26.848,65.56 26.83,65.55 L26.64,65.44 C26.587,65.409 26.569,65.342 26.599,65.289 C26.63,65.237 26.697,65.218 26.75,65.249 L26.94,65.359 C26.993,65.389 27.011,65.456 26.981,65.509 C26.96,65.544 26.923,65.564 26.885,65.564 Z M30.149,66.023 C30.111,66.023 30.074,66.003 30.053,65.968 C30.023,65.915 30.041,65.848 30.094,65.818 L30.284,65.708 C30.337,65.677 30.404,65.695 30.435,65.748 C30.465,65.8 30.447,65.868 30.394,65.898 L30.204,66.008 C30.186,66.018 30.167,66.023 30.149,66.023 Z M27.749,66.063 C27.73,66.063 27.711,66.058 27.694,66.048 L27.503,65.938 C27.45,65.908 27.432,65.84 27.463,65.788 C27.493,65.735 27.561,65.717 27.613,65.747 L27.804,65.858 C27.856,65.888 27.874,65.955 27.844,66.008 C27.824,66.043 27.787,66.063 27.749,66.063 Z M29.285,66.522 C29.247,66.522 29.21,66.502 29.19,66.467 C29.159,66.414 29.177,66.346 29.23,66.316 L29.421,66.206 C29.473,66.175 29.541,66.194 29.571,66.246 C29.602,66.299 29.583,66.366 29.531,66.397 L29.34,66.507 C29.323,66.517 29.304,66.522 29.285,66.522 Z M28.612,66.561 C28.594,66.561 28.575,66.557 28.557,66.547 L28.367,66.437 C28.314,66.406 28.296,66.339 28.326,66.286 C28.357,66.234 28.424,66.216 28.477,66.246 L28.667,66.356 C28.72,66.386 28.738,66.454 28.708,66.506 C28.687,66.542 28.65,66.561 28.612,66.561 L28.612,66.561 Z" id="Fill-29"></path>
                <path d="M17.028,7.529 C17.01,7.529 16.991,7.524 16.974,7.514 L16.783,7.404 C16.73,7.373 16.712,7.306 16.743,7.253 C16.773,7.201 16.841,7.183 16.893,7.213 L17.084,7.323 C17.136,7.354 17.154,7.421 17.124,7.473 C17.104,7.509 17.066,7.529 17.028,7.529 Z M15.974,7.731 C15.936,7.731 15.899,7.711 15.879,7.675 C15.849,7.623 15.867,7.555 15.919,7.525 L16.11,7.415 C16.163,7.385 16.23,7.403 16.26,7.455 C16.291,7.508 16.273,7.575 16.22,7.606 L16.029,7.716 C16.012,7.726 15.993,7.731 15.974,7.731 Z M17.892,8.027 C17.873,8.027 17.854,8.022 17.837,8.012 L17.646,7.902 C17.594,7.872 17.576,7.804 17.606,7.752 C17.637,7.699 17.704,7.681 17.757,7.712 L17.947,7.822 C18,7.852 18.018,7.919 17.987,7.972 C17.967,8.007 17.93,8.027 17.892,8.027 Z M15.111,8.229 C15.073,8.229 15.036,8.209 15.016,8.174 C14.985,8.121 15.003,8.054 15.056,8.024 L15.246,7.914 C15.299,7.883 15.366,7.901 15.397,7.954 C15.427,8.007 15.409,8.074 15.357,8.104 L15.166,8.214 C15.148,8.224 15.13,8.229 15.111,8.229 Z M18.756,8.526 C18.737,8.526 18.718,8.521 18.701,8.511 L18.51,8.401 C18.457,8.37 18.439,8.303 18.47,8.25 C18.5,8.198 18.567,8.18 18.62,8.21 L18.811,8.32 C18.863,8.351 18.881,8.418 18.851,8.471 C18.831,8.506 18.794,8.526 18.756,8.526 Z M14.247,8.728 C14.209,8.728 14.172,8.708 14.152,8.673 C14.122,8.62 14.14,8.553 14.192,8.522 L14.383,8.412 C14.435,8.382 14.503,8.4 14.533,8.453 C14.564,8.505 14.546,8.572 14.493,8.603 L14.302,8.713 C14.285,8.723 14.266,8.728 14.247,8.728 Z M19.619,9.024 C19.6,9.024 19.582,9.019 19.564,9.009 L19.374,8.899 C19.321,8.869 19.303,8.802 19.333,8.749 C19.364,8.696 19.431,8.678 19.484,8.709 L19.674,8.819 C19.727,8.849 19.745,8.916 19.715,8.969 C19.694,9.004 19.657,9.024 19.619,9.024 Z M13.384,9.226 C13.346,9.226 13.309,9.206 13.288,9.171 C13.258,9.119 13.276,9.051 13.329,9.021 L13.519,8.911 C13.572,8.88 13.64,8.898 13.67,8.951 C13.7,9.004 13.682,9.071 13.63,9.102 L13.439,9.212 C13.421,9.222 13.403,9.226 13.384,9.226 Z M20.483,9.523 C20.464,9.523 20.445,9.518 20.428,9.508 L20.237,9.398 C20.184,9.368 20.166,9.3 20.197,9.248 C20.227,9.195 20.295,9.177 20.347,9.207 L20.538,9.317 C20.59,9.348 20.608,9.415 20.578,9.468 C20.558,9.503 20.521,9.523 20.483,9.523 Z M12.52,9.725 C12.482,9.725 12.445,9.705 12.425,9.67 C12.395,9.617 12.413,9.55 12.465,9.519 L12.656,9.409 C12.709,9.379 12.776,9.397 12.806,9.45 C12.837,9.502 12.819,9.57 12.766,9.6 L12.575,9.71 C12.558,9.72 12.539,9.725 12.52,9.725 Z M21.346,10.021 C21.328,10.021 21.309,10.017 21.291,10.007 L21.101,9.897 C21.048,9.866 21.03,9.799 21.06,9.746 C21.091,9.693 21.158,9.676 21.211,9.706 L21.401,9.816 C21.454,9.846 21.472,9.914 21.442,9.966 C21.421,10.002 21.384,10.021 21.346,10.021 Z M11.657,10.223 C11.619,10.223 11.582,10.204 11.561,10.168 C11.531,10.116 11.549,10.048 11.602,10.018 L11.792,9.908 C11.845,9.878 11.912,9.896 11.943,9.948 C11.973,10.001 11.955,10.068 11.902,10.099 L11.712,10.209 C11.694,10.219 11.675,10.223 11.657,10.223 Z M22.21,10.52 C22.191,10.52 22.172,10.515 22.155,10.505 L21.964,10.395 C21.911,10.365 21.893,10.297 21.924,10.245 C21.954,10.192 22.021,10.174 22.074,10.204 L22.265,10.314 C22.318,10.345 22.336,10.412 22.305,10.465 C22.285,10.5 22.248,10.52 22.21,10.52 Z M10.793,10.722 C10.755,10.722 10.718,10.702 10.698,10.667 C10.667,10.614 10.686,10.547 10.738,10.516 L10.929,10.407 C10.982,10.376 11.049,10.394 11.079,10.447 C11.11,10.499 11.092,10.567 11.039,10.597 L10.848,10.707 C10.831,10.717 10.812,10.722 10.793,10.722 Z M23.073,11.018 C23.055,11.018 23.036,11.014 23.018,11.004 L22.828,10.894 C22.775,10.863 22.757,10.796 22.787,10.743 C22.818,10.691 22.885,10.673 22.938,10.703 L23.128,10.813 C23.181,10.843 23.199,10.911 23.169,10.963 C23.148,10.999 23.111,11.018 23.073,11.018 Z M9.93,11.221 C9.892,11.221 9.855,11.201 9.834,11.165 C9.804,11.113 9.822,11.046 9.875,11.015 L10.065,10.905 C10.118,10.875 10.185,10.893 10.216,10.945 C10.246,10.998 10.228,11.065 10.175,11.096 L9.985,11.206 C9.967,11.216 9.948,11.221 9.93,11.221 Z M23.937,11.517 C23.918,11.517 23.899,11.512 23.882,11.502 L23.691,11.392 C23.639,11.362 23.621,11.294 23.651,11.242 C23.681,11.189 23.749,11.171 23.801,11.201 L23.992,11.311 C24.045,11.342 24.063,11.409 24.032,11.462 C24.012,11.497 23.975,11.517 23.937,11.517 Z M9.066,11.719 C9.028,11.719 8.991,11.699 8.971,11.664 C8.94,11.611 8.958,11.544 9.011,11.514 L9.202,11.404 C9.255,11.373 9.322,11.391 9.352,11.444 C9.383,11.497 9.365,11.564 9.312,11.594 L9.121,11.704 C9.104,11.714 9.085,11.719 9.066,11.719 Z M24.8,12.016 C24.782,12.016 24.763,12.011 24.745,12.001 L24.555,11.891 C24.502,11.86 24.484,11.793 24.515,11.74 C24.545,11.688 24.612,11.67 24.665,11.7 L24.855,11.81 C24.908,11.841 24.926,11.908 24.896,11.96 C24.875,11.996 24.838,12.016 24.8,12.016 Z M8.203,12.218 C8.165,12.218 8.128,12.198 8.107,12.163 C8.077,12.11 8.095,12.043 8.148,12.012 L8.338,11.902 C8.391,11.872 8.458,11.89 8.489,11.942 C8.519,11.995 8.501,12.062 8.448,12.093 L8.258,12.203 C8.24,12.213 8.221,12.218 8.203,12.218 Z M25.664,12.514 C25.645,12.514 25.626,12.509 25.609,12.499 L25.418,12.389 C25.366,12.359 25.348,12.292 25.378,12.239 C25.408,12.186 25.475,12.168 25.528,12.199 L25.719,12.309 C25.772,12.339 25.79,12.406 25.759,12.459 C25.739,12.494 25.702,12.514 25.664,12.514 Z M7.339,12.716 C7.301,12.716 7.264,12.696 7.244,12.661 C7.213,12.609 7.231,12.541 7.284,12.511 L7.475,12.401 C7.528,12.37 7.595,12.388 7.625,12.441 C7.656,12.494 7.637,12.561 7.585,12.591 L7.394,12.701 C7.377,12.712 7.358,12.716 7.339,12.716 Z M26.527,13.013 C26.509,13.013 26.49,13.008 26.472,12.998 L26.282,12.888 C26.229,12.857 26.211,12.79 26.242,12.738 C26.272,12.685 26.339,12.667 26.392,12.697 L26.583,12.807 C26.635,12.838 26.653,12.905 26.623,12.958 C26.602,12.993 26.565,13.013 26.527,13.013 Z M6.476,13.215 C6.438,13.215 6.401,13.195 6.38,13.16 C6.35,13.107 6.368,13.04 6.421,13.009 L6.611,12.899 C6.664,12.869 6.731,12.887 6.761,12.94 C6.792,12.992 6.774,13.059 6.721,13.09 L6.531,13.2 C6.513,13.21 6.494,13.215 6.476,13.215 Z M27.391,13.511 C27.372,13.511 27.353,13.506 27.336,13.496 L27.145,13.386 C27.093,13.356 27.075,13.289 27.105,13.236 C27.135,13.183 27.203,13.165 27.255,13.196 L27.446,13.306 C27.499,13.336 27.517,13.403 27.486,13.456 C27.466,13.491 27.429,13.511 27.391,13.511 Z M5.612,13.713 C5.574,13.713 5.537,13.694 5.517,13.658 C5.486,13.606 5.504,13.538 5.557,13.508 L5.748,13.398 C5.8,13.368 5.868,13.386 5.898,13.438 C5.928,13.491 5.91,13.558 5.858,13.589 L5.667,13.699 C5.65,13.709 5.631,13.713 5.612,13.713 Z M28.254,14.01 C28.236,14.01 28.217,14.005 28.2,13.995 L28.009,13.885 C27.956,13.855 27.938,13.787 27.969,13.735 C27.999,13.682 28.066,13.664 28.119,13.694 L28.31,13.804 C28.362,13.835 28.38,13.902 28.35,13.955 C28.33,13.99 28.292,14.01 28.254,14.01 Z M4.749,14.212 C4.711,14.212 4.674,14.192 4.653,14.157 C4.623,14.104 4.641,14.037 4.693,14.007 L4.884,13.896 C4.937,13.866 5.004,13.884 5.034,13.937 C5.065,13.989 5.047,14.057 4.994,14.087 L4.804,14.197 C4.786,14.207 4.767,14.212 4.749,14.212 Z M29.118,14.508 C29.099,14.508 29.08,14.504 29.063,14.494 L28.872,14.384 C28.82,14.353 28.802,14.286 28.832,14.233 C28.862,14.18 28.93,14.162 28.982,14.193 L29.173,14.303 C29.226,14.333 29.244,14.401 29.213,14.453 C29.193,14.489 29.156,14.508 29.118,14.508 Z M3.885,14.71 C3.847,14.71 3.81,14.691 3.79,14.656 C3.759,14.603 3.777,14.536 3.83,14.505 L4.021,14.395 C4.073,14.365 4.141,14.383 4.171,14.435 C4.201,14.488 4.183,14.555 4.131,14.586 L3.94,14.696 C3.923,14.706 3.904,14.71 3.885,14.71 Z M29.982,15.007 C29.963,15.007 29.944,15.002 29.927,14.992 L29.736,14.882 C29.683,14.852 29.665,14.784 29.696,14.732 C29.726,14.679 29.793,14.661 29.846,14.691 L30.037,14.801 C30.089,14.832 30.107,14.899 30.077,14.952 C30.057,14.987 30.02,15.007 29.982,15.007 Z M3.021,15.209 C2.983,15.209 2.946,15.189 2.926,15.154 C2.896,15.101 2.914,15.034 2.966,15.004 L3.157,14.894 C3.21,14.863 3.277,14.881 3.307,14.934 C3.338,14.986 3.32,15.054 3.267,15.084 L3.076,15.194 C3.059,15.204 3.04,15.209 3.021,15.209 Z M30.845,15.505 C30.826,15.505 30.807,15.501 30.79,15.491 L30.6,15.381 C30.547,15.35 30.529,15.283 30.559,15.23 C30.59,15.178 30.657,15.16 30.71,15.19 L30.9,15.3 C30.953,15.33 30.971,15.398 30.94,15.45 C30.92,15.486 30.883,15.505 30.845,15.505 Z M2.158,15.708 C2.12,15.708 2.083,15.688 2.063,15.653 C2.032,15.6 2.05,15.533 2.103,15.502 L2.293,15.392 C2.346,15.362 2.413,15.38 2.444,15.432 C2.474,15.485 2.456,15.552 2.404,15.583 L2.213,15.693 C2.196,15.703 2.177,15.708 2.158,15.708 Z M31.709,16.004 C31.69,16.004 31.671,15.999 31.654,15.989 L31.463,15.879 C31.41,15.849 31.392,15.781 31.423,15.729 C31.453,15.676 31.521,15.658 31.573,15.688 L31.764,15.799 C31.816,15.829 31.834,15.896 31.804,15.949 C31.784,15.984 31.747,16.004 31.709,16.004 Z M1.294,16.206 C1.256,16.206 1.219,16.186 1.199,16.151 C1.169,16.098 1.187,16.031 1.239,16.001 L1.43,15.891 C1.483,15.86 1.55,15.878 1.58,15.931 C1.611,15.984 1.593,16.051 1.54,16.081 L1.349,16.191 C1.332,16.201 1.313,16.206 1.294,16.206 Z M32.572,16.503 C32.553,16.503 32.534,16.498 32.517,16.488 L32.327,16.378 C32.274,16.347 32.256,16.28 32.286,16.227 C32.317,16.175 32.384,16.157 32.437,16.187 L32.627,16.297 C32.68,16.328 32.698,16.395 32.667,16.447 C32.647,16.483 32.61,16.503 32.572,16.503 Z M0.431,16.705 C0.393,16.705 0.356,16.685 0.336,16.65 C0.305,16.597 0.323,16.53 0.376,16.499 L0.566,16.389 C0.619,16.359 0.686,16.377 0.717,16.43 C0.747,16.482 0.729,16.55 0.677,16.58 L0.486,16.69 C0.468,16.7 0.45,16.705 0.431,16.705 Z M33.224,17.099 C33.163,17.099 33.114,17.05 33.114,16.989 L33.114,16.769 C33.114,16.708 33.163,16.659 33.224,16.659 C33.285,16.659 33.334,16.708 33.334,16.769 L33.334,16.989 C33.334,17.05 33.285,17.099 33.224,17.099 Z M0.129,17.528 C0.068,17.528 0.019,17.478 0.019,17.417 L0.019,17.197 C0.019,17.137 0.068,17.087 0.129,17.087 C0.19,17.087 0.239,17.137 0.239,17.197 L0.239,17.417 C0.239,17.478 0.19,17.528 0.129,17.528 Z M33.224,18.096 C33.163,18.096 33.114,18.047 33.114,17.986 L33.114,17.766 C33.114,17.705 33.163,17.656 33.224,17.656 C33.285,17.656 33.334,17.705 33.334,17.766 L33.334,17.986 C33.334,18.047 33.285,18.096 33.224,18.096 Z M0.129,18.525 C0.068,18.525 0.019,18.475 0.019,18.415 L0.019,18.195 C0.019,18.134 0.068,18.084 0.129,18.084 C0.19,18.084 0.239,18.134 0.239,18.195 L0.239,18.415 C0.239,18.475 0.19,18.525 0.129,18.525 Z M33.224,19.093 C33.163,19.093 33.114,19.044 33.114,18.983 L33.114,18.763 C33.114,18.702 33.163,18.653 33.224,18.653 C33.285,18.653 33.334,18.702 33.334,18.763 L33.334,18.983 C33.334,19.044 33.285,19.093 33.224,19.093 Z M0.129,19.522 C0.068,19.522 0.019,19.473 0.019,19.412 L0.019,19.192 C0.019,19.131 0.068,19.082 0.129,19.082 C0.19,19.082 0.239,19.131 0.239,19.192 L0.239,19.412 C0.239,19.473 0.19,19.522 0.129,19.522 Z M33.224,20.09 C33.163,20.09 33.114,20.041 33.114,19.98 L33.114,19.76 C33.114,19.699 33.163,19.65 33.224,19.65 C33.285,19.65 33.334,19.699 33.334,19.76 L33.334,19.98 C33.334,20.041 33.285,20.09 33.224,20.09 Z M0.129,20.519 C0.068,20.519 0.019,20.47 0.019,20.409 L0.019,20.189 C0.019,20.128 0.068,20.079 0.129,20.079 C0.19,20.079 0.239,20.128 0.239,20.189 L0.239,20.409 C0.239,20.47 0.19,20.519 0.129,20.519 Z M33.224,21.087 C33.163,21.087 33.114,21.038 33.114,20.977 L33.114,20.757 C33.114,20.696 33.163,20.647 33.224,20.647 C33.285,20.647 33.334,20.696 33.334,20.757 L33.334,20.977 C33.334,21.038 33.285,21.087 33.224,21.087 Z M0.129,21.516 C0.068,21.516 0.019,21.467 0.019,21.406 L0.019,21.186 C0.019,21.125 0.068,21.076 0.129,21.076 C0.19,21.076 0.239,21.125 0.239,21.186 L0.239,21.406 C0.239,21.467 0.19,21.516 0.129,21.516 Z M33.224,22.085 C33.163,22.085 33.114,22.035 33.114,21.975 L33.114,21.754 C33.114,21.694 33.163,21.644 33.224,21.644 C33.285,21.644 33.334,21.694 33.334,21.754 L33.334,21.975 C33.334,22.035 33.285,22.085 33.224,22.085 Z M0.129,22.513 C0.068,22.513 0.019,22.464 0.019,22.403 L0.019,22.183 C0.019,22.122 0.068,22.073 0.129,22.073 C0.19,22.073 0.239,22.122 0.239,22.183 L0.239,22.403 C0.239,22.464 0.19,22.513 0.129,22.513 Z M33.224,23.082 C33.163,23.082 33.114,23.033 33.114,22.972 L33.114,22.752 C33.114,22.691 33.163,22.641 33.224,22.641 C33.285,22.641 33.334,22.691 33.334,22.752 L33.334,22.972 C33.334,23.033 33.285,23.082 33.224,23.082 Z M0.129,23.51 C0.068,23.51 0.019,23.461 0.019,23.4 L0.019,23.18 C0.019,23.119 0.068,23.07 0.129,23.07 C0.19,23.07 0.239,23.119 0.239,23.18 L0.239,23.4 C0.239,23.461 0.19,23.51 0.129,23.51 Z M33.224,24.079 C33.163,24.079 33.114,24.03 33.114,23.969 L33.114,23.749 C33.114,23.688 33.163,23.639 33.224,23.639 C33.285,23.639 33.334,23.688 33.334,23.749 L33.334,23.969 C33.334,24.03 33.285,24.079 33.224,24.079 Z M0.129,24.507 C0.068,24.507 0.019,24.458 0.019,24.397 L0.019,24.177 C0.019,24.116 0.068,24.067 0.129,24.067 C0.19,24.067 0.239,24.116 0.239,24.177 L0.239,24.397 C0.239,24.458 0.19,24.507 0.129,24.507 Z M33.224,25.076 C33.163,25.076 33.114,25.027 33.114,24.966 L33.114,24.746 C33.114,24.685 33.163,24.636 33.224,24.636 C33.285,24.636 33.334,24.685 33.334,24.746 L33.334,24.966 C33.334,25.027 33.285,25.076 33.224,25.076 Z M0.129,25.505 C0.068,25.505 0.019,25.455 0.019,25.395 L0.019,25.174 C0.019,25.114 0.068,25.064 0.129,25.064 C0.19,25.064 0.239,25.114 0.239,25.174 L0.239,25.395 C0.239,25.455 0.19,25.505 0.129,25.505 Z M33.224,26.073 C33.163,26.073 33.114,26.024 33.114,25.963 L33.114,25.743 C33.114,25.682 33.163,25.633 33.224,25.633 C33.285,25.633 33.334,25.682 33.334,25.743 L33.334,25.963 C33.334,26.024 33.285,26.073 33.224,26.073 Z M0.129,26.502 C0.068,26.502 0.019,26.453 0.019,26.392 L0.019,26.171 C0.019,26.111 0.068,26.061 0.129,26.061 C0.19,26.061 0.239,26.111 0.239,26.171 L0.239,26.392 C0.239,26.452 0.19,26.502 0.129,26.502 Z M33.224,27.07 C33.163,27.07 33.114,27.021 33.114,26.96 L33.114,26.74 C33.114,26.679 33.163,26.63 33.224,26.63 C33.285,26.63 33.334,26.679 33.334,26.74 L33.334,26.96 C33.334,27.021 33.285,27.07 33.224,27.07 Z M0.129,27.499 C0.068,27.499 0.019,27.45 0.019,27.389 L0.019,27.169 C0.019,27.108 0.068,27.058 0.129,27.058 C0.19,27.058 0.239,27.108 0.239,27.169 L0.239,27.389 C0.239,27.45 0.19,27.499 0.129,27.499 Z M33.224,28.067 C33.163,28.067 33.114,28.018 33.114,27.957 L33.114,27.737 C33.114,27.676 33.163,27.627 33.224,27.627 C33.285,27.627 33.334,27.676 33.334,27.737 L33.334,27.957 C33.334,28.018 33.285,28.067 33.224,28.067 Z M0.129,28.496 C0.068,28.496 0.019,28.447 0.019,28.386 L0.019,28.166 C0.019,28.105 0.068,28.056 0.129,28.056 C0.19,28.056 0.239,28.105 0.239,28.166 L0.239,28.386 C0.239,28.447 0.19,28.496 0.129,28.496 Z M33.224,29.065 C33.163,29.065 33.114,29.015 33.114,28.954 L33.114,28.734 C33.114,28.673 33.163,28.624 33.224,28.624 C33.285,28.624 33.334,28.673 33.334,28.734 L33.334,28.954 C33.334,29.015 33.285,29.065 33.224,29.065 Z M0.129,29.493 C0.068,29.493 0.019,29.444 0.019,29.383 L0.019,29.163 C0.019,29.102 0.068,29.053 0.129,29.053 C0.19,29.053 0.239,29.102 0.239,29.163 L0.239,29.383 C0.239,29.444 0.19,29.493 0.129,29.493 Z M33.224,30.062 C33.163,30.062 33.114,30.012 33.114,29.951 L33.114,29.731 C33.114,29.671 33.163,29.621 33.224,29.621 C33.285,29.621 33.334,29.671 33.334,29.731 L33.334,29.951 C33.334,30.012 33.285,30.062 33.224,30.062 Z M0.129,30.49 C0.068,30.49 0.019,30.441 0.019,30.38 L0.019,30.16 C0.019,30.099 0.068,30.05 0.129,30.05 C0.19,30.05 0.239,30.099 0.239,30.16 L0.239,30.38 C0.239,30.441 0.19,30.49 0.129,30.49 Z M33.224,31.059 C33.163,31.059 33.114,31.01 33.114,30.949 L33.114,30.729 C33.114,30.668 33.163,30.619 33.224,30.619 C33.285,30.619 33.334,30.668 33.334,30.729 L33.334,30.949 C33.334,31.01 33.285,31.059 33.224,31.059 Z M0.129,31.487 C0.068,31.487 0.019,31.438 0.019,31.377 L0.019,31.157 C0.019,31.096 0.068,31.047 0.129,31.047 C0.19,31.047 0.239,31.096 0.239,31.157 L0.239,31.377 C0.239,31.438 0.19,31.487 0.129,31.487 Z M33.224,32.056 C33.163,32.056 33.114,32.007 33.114,31.946 L33.114,31.726 C33.114,31.665 33.163,31.616 33.224,31.616 C33.285,31.616 33.334,31.665 33.334,31.726 L33.334,31.946 C33.334,32.007 33.285,32.056 33.224,32.056 Z M0.129,32.484 C0.068,32.484 0.019,32.435 0.019,32.374 L0.019,32.154 C0.019,32.093 0.068,32.044 0.129,32.044 C0.19,32.044 0.239,32.093 0.239,32.154 L0.239,32.374 C0.239,32.435 0.19,32.484 0.129,32.484 Z M33.224,33.053 C33.163,33.053 33.114,33.004 33.114,32.943 L33.114,32.723 C33.114,32.662 33.163,32.613 33.224,32.613 C33.285,32.613 33.334,32.662 33.334,32.723 L33.334,32.943 C33.334,33.004 33.285,33.053 33.224,33.053 Z M0.129,33.481 C0.068,33.481 0.019,33.432 0.019,33.372 L0.019,33.151 C0.019,33.091 0.068,33.041 0.129,33.041 C0.19,33.041 0.239,33.091 0.239,33.151 L0.239,33.372 C0.239,33.432 0.19,33.481 0.129,33.481 Z M33.224,34.05 C33.163,34.05 33.114,34.001 33.114,33.94 L33.114,33.72 C33.114,33.659 33.163,33.61 33.224,33.61 C33.285,33.61 33.334,33.659 33.334,33.72 L33.334,33.94 C33.334,34.001 33.285,34.05 33.224,34.05 Z M0.129,34.479 C0.068,34.479 0.019,34.429 0.019,34.369 L0.019,34.148 C0.019,34.088 0.068,34.038 0.129,34.038 C0.19,34.038 0.239,34.088 0.239,34.148 L0.239,34.369 C0.239,34.429 0.19,34.479 0.129,34.479 Z M33.224,35.047 C33.163,35.047 33.114,34.998 33.114,34.937 L33.114,34.717 C33.114,34.656 33.163,34.607 33.224,34.607 C33.285,34.607 33.334,34.656 33.334,34.717 L33.334,34.937 C33.334,34.998 33.285,35.047 33.224,35.047 Z M0.129,35.476 C0.068,35.476 0.019,35.427 0.019,35.366 L0.019,35.146 C0.019,35.085 0.068,35.036 0.129,35.036 C0.19,35.036 0.239,35.085 0.239,35.146 L0.239,35.366 C0.239,35.427 0.19,35.476 0.129,35.476 Z M33.174,36.015 C33.136,36.015 33.099,35.996 33.079,35.96 C33.049,35.909 33.065,35.845 33.114,35.813 L33.114,35.714 C33.114,35.653 33.163,35.604 33.224,35.604 C33.285,35.604 33.334,35.653 33.334,35.714 L33.334,35.876 C33.334,35.916 33.313,35.952 33.279,35.972 L33.229,36.001 C33.212,36.011 33.193,36.015 33.174,36.015 Z M0.55,36.23 C0.532,36.23 0.513,36.225 0.495,36.215 L0.305,36.105 C0.252,36.075 0.234,36.007 0.264,35.955 C0.295,35.902 0.362,35.884 0.415,35.914 L0.605,36.024 C0.658,36.055 0.676,36.122 0.646,36.175 C0.625,36.21 0.588,36.23 0.55,36.23 Z M32.311,36.514 C32.272,36.514 32.235,36.494 32.215,36.459 C32.185,36.406 32.203,36.339 32.255,36.309 L32.446,36.198 C32.499,36.168 32.566,36.186 32.596,36.239 C32.627,36.291 32.609,36.359 32.556,36.389 L32.365,36.499 C32.348,36.509 32.329,36.514 32.311,36.514 Z M1.414,36.728 C1.395,36.728 1.376,36.723 1.359,36.714 L1.168,36.603 C1.116,36.573 1.098,36.506 1.128,36.453 C1.158,36.4 1.226,36.382 1.278,36.413 L1.469,36.523 C1.522,36.553 1.54,36.621 1.509,36.673 C1.489,36.709 1.452,36.728 1.414,36.728 Z M31.447,37.012 C31.409,37.012 31.372,36.993 31.352,36.957 C31.321,36.905 31.339,36.837 31.392,36.807 L31.583,36.697 C31.635,36.667 31.703,36.685 31.733,36.737 C31.763,36.79 31.745,36.857 31.693,36.888 L31.502,36.998 C31.485,37.008 31.466,37.012 31.447,37.012 Z M2.277,37.227 C2.259,37.227 2.24,37.222 2.222,37.212 L2.032,37.102 C1.979,37.072 1.961,37.004 1.991,36.952 C2.022,36.899 2.089,36.881 2.142,36.911 L2.332,37.021 C2.385,37.052 2.403,37.119 2.373,37.172 C2.352,37.207 2.315,37.227 2.277,37.227 Z M30.583,37.511 C30.545,37.511 30.508,37.491 30.488,37.456 C30.458,37.403 30.476,37.336 30.528,37.306 L30.719,37.195 C30.772,37.165 30.839,37.183 30.869,37.236 C30.9,37.289 30.882,37.356 30.829,37.386 L30.638,37.496 C30.621,37.506 30.602,37.511 30.583,37.511 Z M3.141,37.725 C3.122,37.725 3.103,37.721 3.086,37.711 L2.895,37.601 C2.843,37.57 2.825,37.503 2.855,37.45 C2.885,37.398 2.953,37.38 3.005,37.41 L3.196,37.52 C3.249,37.55 3.267,37.618 3.236,37.67 C3.216,37.706 3.179,37.725 3.141,37.725 Z M29.72,38.01 C29.682,38.01 29.645,37.99 29.625,37.955 C29.594,37.902 29.612,37.835 29.665,37.804 L29.855,37.694 C29.908,37.664 29.975,37.682 30.006,37.734 C30.036,37.787 30.018,37.854 29.965,37.885 L29.775,37.995 C29.758,38.005 29.739,38.01 29.72,38.01 Z M4.004,38.224 C3.986,38.224 3.967,38.219 3.949,38.209 L3.759,38.099 C3.706,38.069 3.688,38.001 3.719,37.949 C3.749,37.896 3.816,37.878 3.869,37.908 L4.06,38.019 C4.112,38.049 4.13,38.116 4.1,38.169 C4.079,38.204 4.042,38.224 4.004,38.224 Z M28.856,38.508 C28.818,38.508 28.781,38.488 28.761,38.453 C28.731,38.401 28.749,38.333 28.801,38.303 L28.992,38.193 C29.044,38.162 29.112,38.18 29.142,38.233 C29.173,38.286 29.155,38.353 29.102,38.383 L28.911,38.493 C28.894,38.503 28.875,38.508 28.856,38.508 Z M4.868,38.723 C4.849,38.723 4.83,38.718 4.813,38.708 L4.622,38.598 C4.57,38.567 4.552,38.5 4.582,38.447 C4.612,38.395 4.68,38.377 4.732,38.407 L4.923,38.517 C4.976,38.547 4.994,38.615 4.963,38.667 C4.943,38.703 4.906,38.723 4.868,38.723 Z M27.993,39.007 C27.955,39.007 27.918,38.987 27.897,38.952 C27.867,38.899 27.885,38.832 27.938,38.801 L28.128,38.691 C28.181,38.661 28.248,38.679 28.279,38.731 C28.309,38.784 28.291,38.851 28.238,38.882 L28.048,38.992 C28.031,39.002 28.012,39.007 27.993,39.007 Z M5.731,39.221 C5.713,39.221 5.694,39.216 5.676,39.206 L5.486,39.096 C5.433,39.066 5.415,38.999 5.446,38.946 C5.476,38.893 5.543,38.875 5.596,38.906 L5.787,39.016 C5.839,39.046 5.857,39.113 5.827,39.166 C5.806,39.201 5.769,39.221 5.731,39.221 Z M27.129,39.505 C27.091,39.505 27.054,39.486 27.034,39.45 C27.004,39.398 27.022,39.33 27.074,39.3 L27.265,39.19 C27.317,39.159 27.385,39.178 27.415,39.23 C27.446,39.283 27.428,39.35 27.375,39.38 L27.184,39.491 C27.167,39.501 27.148,39.505 27.129,39.505 Z M6.595,39.72 C6.576,39.72 6.557,39.715 6.54,39.705 L6.349,39.595 C6.297,39.564 6.279,39.497 6.309,39.445 C6.339,39.392 6.407,39.374 6.459,39.404 L6.65,39.514 C6.703,39.545 6.721,39.612 6.69,39.665 C6.67,39.7 6.633,39.72 6.595,39.72 Z M26.266,40.004 C26.228,40.004 26.191,39.984 26.17,39.949 C26.14,39.896 26.158,39.829 26.211,39.798 L26.401,39.688 C26.454,39.658 26.521,39.676 26.552,39.729 C26.582,39.781 26.564,39.849 26.511,39.879 L26.321,39.989 C26.303,39.999 26.284,40.004 26.266,40.004 Z M7.458,40.218 C7.44,40.218 7.421,40.213 7.404,40.203 L7.213,40.093 C7.16,40.063 7.142,39.996 7.173,39.943 C7.203,39.89 7.27,39.872 7.323,39.903 L7.514,40.013 C7.566,40.043 7.584,40.111 7.554,40.163 C7.534,40.198 7.497,40.218 7.458,40.218 Z M25.402,40.503 C25.364,40.503 25.327,40.483 25.307,40.447 C25.276,40.395 25.294,40.328 25.347,40.297 L25.538,40.187 C25.59,40.156 25.658,40.175 25.688,40.227 C25.719,40.28 25.701,40.347 25.648,40.378 L25.457,40.488 C25.44,40.498 25.421,40.503 25.402,40.503 Z M8.322,40.717 C8.303,40.717 8.284,40.712 8.267,40.702 L8.076,40.592 C8.024,40.562 8.006,40.494 8.036,40.442 C8.067,40.389 8.134,40.371 8.187,40.401 L8.377,40.511 C8.43,40.542 8.448,40.609 8.417,40.662 C8.397,40.697 8.36,40.717 8.322,40.717 Z M24.539,41.001 C24.501,41.001 24.464,40.981 24.443,40.946 C24.413,40.893 24.431,40.826 24.484,40.796 L24.674,40.686 C24.727,40.655 24.794,40.673 24.825,40.726 C24.855,40.778 24.837,40.846 24.784,40.876 L24.594,40.986 C24.576,40.996 24.557,41.001 24.539,41.001 Z M9.186,41.215 C9.167,41.215 9.148,41.21 9.131,41.201 L8.94,41.091 C8.887,41.06 8.869,40.993 8.9,40.94 C8.93,40.887 8.998,40.869 9.05,40.9 L9.241,41.01 C9.293,41.04 9.311,41.108 9.281,41.16 C9.261,41.195 9.224,41.215 9.186,41.215 Z M23.675,41.5 C23.637,41.5 23.6,41.48 23.58,41.445 C23.549,41.392 23.567,41.325 23.62,41.294 L23.811,41.184 C23.863,41.154 23.931,41.172 23.961,41.224 C23.991,41.277 23.973,41.344 23.921,41.375 L23.73,41.485 C23.713,41.495 23.694,41.5 23.675,41.5 Z M10.049,41.714 C10.03,41.714 10.011,41.709 9.994,41.699 L9.804,41.589 C9.751,41.559 9.733,41.491 9.763,41.439 C9.794,41.386 9.861,41.368 9.914,41.398 L10.104,41.509 C10.157,41.539 10.175,41.606 10.144,41.659 C10.124,41.694 10.087,41.714 10.049,41.714 Z M22.812,41.998 C22.774,41.998 22.737,41.978 22.716,41.943 C22.686,41.89 22.704,41.823 22.757,41.793 L22.947,41.683 C23,41.652 23.067,41.67 23.098,41.723 C23.128,41.776 23.11,41.843 23.057,41.873 L22.867,41.983 C22.849,41.993 22.83,41.998 22.812,41.998 Z M10.913,42.212 C10.894,42.212 10.875,42.208 10.858,42.198 L10.667,42.088 C10.614,42.057 10.596,41.99 10.627,41.937 C10.657,41.885 10.724,41.867 10.777,41.897 L10.968,42.007 C11.02,42.037 11.038,42.105 11.008,42.157 C10.988,42.193 10.951,42.212 10.913,42.212 Z M21.948,42.497 C21.91,42.497 21.873,42.477 21.853,42.442 C21.822,42.389 21.84,42.322 21.893,42.291 L22.084,42.181 C22.137,42.151 22.204,42.169 22.234,42.222 C22.264,42.274 22.246,42.342 22.194,42.372 L22.003,42.482 C21.986,42.492 21.967,42.497 21.948,42.497 Z M11.776,42.711 C11.758,42.711 11.739,42.706 11.721,42.696 L11.531,42.586 C11.478,42.556 11.46,42.489 11.49,42.436 C11.521,42.383 11.588,42.365 11.641,42.395 L11.831,42.506 C11.884,42.536 11.902,42.603 11.872,42.656 C11.851,42.691 11.814,42.711 11.776,42.711 Z M21.085,42.995 C21.047,42.995 21.01,42.976 20.989,42.94 C20.959,42.888 20.977,42.82 21.029,42.79 L21.22,42.68 C21.273,42.649 21.34,42.667 21.37,42.72 C21.401,42.773 21.383,42.84 21.33,42.871 L21.14,42.981 C21.122,42.99 21.103,42.995 21.085,42.995 Z M12.64,43.209 C12.621,43.209 12.602,43.205 12.585,43.195 L12.394,43.085 C12.341,43.054 12.323,42.987 12.354,42.934 C12.384,42.882 12.451,42.864 12.504,42.894 L12.695,43.004 C12.748,43.035 12.766,43.102 12.735,43.154 C12.715,43.19 12.678,43.209 12.64,43.209 Z M20.221,43.494 C20.183,43.494 20.146,43.474 20.126,43.439 C20.095,43.386 20.113,43.319 20.166,43.288 L20.357,43.178 C20.409,43.148 20.477,43.166 20.507,43.219 C20.537,43.271 20.519,43.339 20.467,43.369 L20.276,43.479 C20.259,43.489 20.24,43.494 20.221,43.494 Z M13.503,43.708 C13.485,43.708 13.466,43.703 13.448,43.693 L13.258,43.583 C13.205,43.553 13.187,43.486 13.217,43.433 C13.248,43.38 13.315,43.362 13.368,43.393 L13.558,43.503 C13.611,43.533 13.629,43.6 13.599,43.653 C13.578,43.688 13.541,43.708 13.503,43.708 Z M19.358,43.992 C19.32,43.992 19.283,43.973 19.262,43.937 C19.232,43.885 19.25,43.817 19.302,43.787 L19.493,43.677 C19.546,43.647 19.613,43.665 19.643,43.717 C19.674,43.77 19.656,43.837 19.603,43.868 L19.412,43.978 C19.395,43.988 19.376,43.992 19.358,43.992 Z M14.367,44.207 C14.348,44.207 14.329,44.202 14.312,44.192 L14.121,44.082 C14.069,44.052 14.05,43.984 14.081,43.932 C14.111,43.879 14.178,43.861 14.231,43.891 L14.422,44.001 C14.475,44.032 14.493,44.099 14.462,44.152 C14.442,44.187 14.405,44.207 14.367,44.207 Z M18.494,44.491 C18.456,44.491 18.419,44.471 18.399,44.436 C18.368,44.383 18.386,44.316 18.439,44.286 L18.63,44.175 C18.682,44.145 18.75,44.163 18.78,44.216 C18.81,44.269 18.792,44.336 18.74,44.366 L18.549,44.476 C18.532,44.486 18.513,44.491 18.494,44.491 Z M15.23,44.705 C15.212,44.705 15.193,44.7 15.175,44.69 L14.985,44.58 C14.932,44.55 14.914,44.483 14.945,44.43 C14.975,44.377 15.042,44.359 15.095,44.39 L15.285,44.5 C15.338,44.53 15.356,44.598 15.326,44.65 C15.305,44.686 15.268,44.705 15.23,44.705 Z M17.63,44.99 C17.592,44.99 17.555,44.97 17.535,44.934 C17.505,44.882 17.523,44.815 17.575,44.784 L17.766,44.674 C17.819,44.644 17.886,44.662 17.916,44.714 C17.947,44.767 17.929,44.834 17.876,44.865 L17.685,44.975 C17.668,44.985 17.649,44.99 17.63,44.99 Z M16.094,45.204 C16.075,45.204 16.056,45.199 16.039,45.189 L15.848,45.079 C15.796,45.049 15.778,44.981 15.808,44.929 C15.838,44.876 15.906,44.858 15.958,44.888 L16.149,44.998 C16.202,45.029 16.22,45.096 16.189,45.149 C16.169,45.184 16.132,45.204 16.094,45.204 Z M16.767,45.488 C16.729,45.488 16.692,45.468 16.672,45.433 C16.641,45.38 16.659,45.313 16.712,45.283 L16.902,45.173 C16.955,45.142 17.022,45.16 17.053,45.213 C17.083,45.266 17.065,45.333 17.013,45.363 L16.822,45.473 C16.805,45.483 16.786,45.488 16.767,45.488 L16.767,45.488 Z" id="Fill-30"></path>
                <path d="M40.73,7.568 C40.692,7.568 40.655,7.549 40.635,7.513 C40.604,7.461 40.622,7.393 40.675,7.363 L40.866,7.253 C40.918,7.223 40.986,7.24 41.016,7.293 C41.046,7.346 41.028,7.413 40.976,7.443 L40.785,7.554 C40.768,7.564 40.749,7.568 40.73,7.568 Z M41.784,7.691 C41.765,7.691 41.747,7.686 41.729,7.676 L41.538,7.566 C41.486,7.536 41.468,7.468 41.498,7.415 C41.529,7.363 41.596,7.345 41.649,7.375 L41.839,7.485 C41.892,7.516 41.91,7.583 41.88,7.636 C41.859,7.671 41.822,7.691 41.784,7.691 Z M39.867,8.067 C39.829,8.067 39.792,8.047 39.771,8.012 C39.741,7.959 39.759,7.892 39.811,7.861 L40.002,7.751 C40.054,7.721 40.122,7.739 40.152,7.792 C40.183,7.844 40.165,7.912 40.112,7.942 L39.922,8.052 C39.904,8.062 39.885,8.067 39.867,8.067 Z M42.648,8.189 C42.629,8.189 42.61,8.184 42.593,8.174 L42.402,8.064 C42.349,8.034 42.331,7.967 42.362,7.914 C42.392,7.861 42.459,7.843 42.512,7.874 L42.703,7.984 C42.755,8.014 42.773,8.081 42.743,8.134 C42.723,8.169 42.686,8.189 42.648,8.189 Z M39.003,8.566 C38.965,8.566 38.928,8.546 38.908,8.51 C38.877,8.458 38.895,8.39 38.948,8.36 L39.138,8.25 C39.191,8.22 39.258,8.238 39.289,8.29 C39.319,8.343 39.301,8.41 39.249,8.441 L39.058,8.551 C39.041,8.561 39.022,8.566 39.003,8.566 Z M43.511,8.688 C43.493,8.688 43.474,8.683 43.456,8.673 L43.266,8.563 C43.213,8.532 43.195,8.465 43.225,8.412 C43.256,8.36 43.323,8.342 43.376,8.372 L43.566,8.482 C43.619,8.513 43.637,8.58 43.607,8.633 C43.586,8.668 43.549,8.688 43.511,8.688 Z M38.14,9.064 C38.102,9.064 38.064,9.044 38.044,9.009 C38.014,8.956 38.032,8.889 38.084,8.859 L38.275,8.749 C38.328,8.718 38.395,8.736 38.425,8.789 C38.456,8.842 38.438,8.909 38.385,8.939 L38.194,9.049 C38.177,9.059 38.158,9.064 38.14,9.064 Z M44.375,9.186 C44.356,9.186 44.337,9.182 44.32,9.172 L44.129,9.061 C44.076,9.031 44.058,8.964 44.089,8.911 C44.119,8.859 44.186,8.841 44.239,8.871 L44.43,8.981 C44.482,9.011 44.501,9.079 44.47,9.131 C44.45,9.167 44.413,9.186 44.375,9.186 Z M37.276,9.563 C37.238,9.563 37.201,9.543 37.181,9.507 C37.15,9.455 37.168,9.388 37.221,9.357 L37.411,9.247 C37.464,9.217 37.531,9.235 37.562,9.287 C37.592,9.34 37.574,9.407 37.522,9.438 L37.331,9.548 C37.313,9.558 37.295,9.563 37.276,9.563 Z M45.238,9.685 C45.22,9.685 45.201,9.68 45.183,9.67 L44.993,9.56 C44.94,9.53 44.922,9.462 44.952,9.41 C44.983,9.357 45.05,9.339 45.103,9.369 L45.293,9.48 C45.346,9.51 45.364,9.577 45.334,9.63 C45.313,9.665 45.276,9.685 45.238,9.685 Z M36.412,10.061 C36.374,10.061 36.337,10.041 36.317,10.006 C36.287,9.953 36.305,9.886 36.357,9.856 L36.548,9.746 C36.601,9.715 36.668,9.733 36.698,9.786 C36.729,9.839 36.711,9.906 36.658,9.936 L36.467,10.046 C36.45,10.056 36.431,10.061 36.412,10.061 Z M46.102,10.184 C46.083,10.184 46.064,10.179 46.047,10.169 L45.856,10.059 C45.803,10.028 45.785,9.961 45.816,9.908 C45.846,9.856 45.914,9.838 45.966,9.868 L46.157,9.978 C46.21,10.009 46.228,10.076 46.197,10.128 C46.177,10.164 46.14,10.184 46.102,10.184 Z M35.549,10.56 C35.511,10.56 35.474,10.54 35.453,10.505 C35.423,10.452 35.441,10.385 35.494,10.354 L35.684,10.244 C35.737,10.214 35.804,10.232 35.835,10.285 C35.865,10.337 35.847,10.404 35.794,10.435 L35.604,10.545 C35.586,10.555 35.568,10.56 35.549,10.56 Z M46.965,10.682 C46.947,10.682 46.928,10.677 46.91,10.667 L46.72,10.557 C46.667,10.527 46.649,10.459 46.679,10.407 C46.71,10.354 46.777,10.336 46.83,10.367 L47.02,10.477 C47.073,10.507 47.091,10.574 47.061,10.627 C47.04,10.662 47.003,10.682 46.965,10.682 Z M34.685,11.058 C34.647,11.058 34.61,11.039 34.59,11.003 C34.56,10.951 34.578,10.883 34.63,10.853 L34.821,10.743 C34.874,10.712 34.941,10.73 34.971,10.783 C35.002,10.836 34.984,10.903 34.931,10.934 L34.74,11.044 C34.723,11.054 34.704,11.058 34.685,11.058 Z M47.829,11.181 C47.81,11.181 47.791,11.176 47.774,11.166 L47.583,11.056 C47.531,11.025 47.513,10.958 47.543,10.905 C47.573,10.853 47.641,10.835 47.693,10.865 L47.884,10.975 C47.937,11.006 47.955,11.073 47.924,11.126 C47.904,11.161 47.867,11.181 47.829,11.181 Z M33.822,11.557 C33.784,11.557 33.747,11.537 33.726,11.502 C33.696,11.449 33.714,11.382 33.767,11.351 L33.957,11.241 C34.01,11.211 34.077,11.229 34.108,11.282 C34.138,11.334 34.12,11.402 34.067,11.432 L33.877,11.542 C33.859,11.552 33.84,11.557 33.822,11.557 Z M48.692,11.679 C48.674,11.679 48.655,11.674 48.637,11.664 L48.447,11.554 C48.394,11.524 48.376,11.457 48.407,11.404 C48.437,11.351 48.504,11.333 48.557,11.364 L48.747,11.474 C48.8,11.504 48.818,11.571 48.788,11.624 C48.767,11.659 48.73,11.679 48.692,11.679 Z M32.958,12.055 C32.92,12.055 32.883,12.036 32.863,12 C32.832,11.948 32.85,11.88 32.903,11.85 L33.094,11.74 C33.147,11.71 33.214,11.727 33.244,11.78 C33.275,11.833 33.257,11.9 33.204,11.931 L33.013,12.041 C32.996,12.051 32.977,12.055 32.958,12.055 Z M49.556,12.178 C49.537,12.178 49.518,12.173 49.501,12.163 L49.31,12.053 C49.258,12.022 49.24,11.955 49.27,11.903 C49.3,11.85 49.368,11.832 49.42,11.862 L49.611,11.972 C49.664,12.003 49.682,12.07 49.651,12.123 C49.631,12.158 49.594,12.178 49.556,12.178 Z M32.095,12.554 C32.057,12.554 32.02,12.534 31.999,12.499 C31.969,12.446 31.987,12.379 32.04,12.349 L32.23,12.239 C32.283,12.208 32.35,12.226 32.381,12.279 C32.411,12.331 32.393,12.399 32.34,12.429 L32.15,12.539 C32.132,12.549 32.113,12.554 32.095,12.554 Z M50.419,12.676 C50.401,12.676 50.382,12.671 50.365,12.662 L50.174,12.551 C50.121,12.521 50.103,12.454 50.134,12.401 C50.164,12.348 50.231,12.33 50.284,12.361 L50.475,12.471 C50.527,12.501 50.545,12.568 50.515,12.621 C50.495,12.657 50.457,12.676 50.419,12.676 Z M31.231,13.053 C31.193,13.053 31.156,13.033 31.136,12.998 C31.105,12.945 31.123,12.878 31.176,12.847 L31.367,12.737 C31.419,12.707 31.487,12.725 31.517,12.777 C31.547,12.83 31.529,12.897 31.477,12.928 L31.286,13.038 C31.269,13.048 31.25,13.053 31.231,13.053 Z M51.283,13.175 C51.264,13.175 51.245,13.17 51.228,13.16 L51.037,13.05 C50.985,13.02 50.967,12.952 50.997,12.9 C51.027,12.847 51.095,12.829 51.147,12.859 L51.338,12.969 C51.391,13 51.409,13.067 51.378,13.12 C51.358,13.155 51.321,13.175 51.283,13.175 Z M30.368,13.551 C30.33,13.551 30.293,13.531 30.272,13.496 C30.242,13.443 30.26,13.376 30.313,13.346 L30.503,13.236 C30.556,13.205 30.623,13.223 30.654,13.276 C30.684,13.329 30.666,13.396 30.613,13.426 L30.423,13.536 C30.405,13.546 30.386,13.551 30.368,13.551 Z M52.147,13.673 C52.128,13.673 52.109,13.669 52.092,13.659 L51.901,13.549 C51.848,13.518 51.83,13.451 51.861,13.398 C51.891,13.346 51.958,13.328 52.011,13.358 L52.202,13.468 C52.254,13.498 52.272,13.566 52.242,13.618 C52.222,13.654 52.185,13.673 52.147,13.673 Z M29.504,14.05 C29.466,14.05 29.429,14.03 29.409,13.995 C29.378,13.942 29.396,13.875 29.449,13.844 L29.64,13.734 C29.692,13.704 29.76,13.722 29.79,13.774 C29.82,13.827 29.802,13.894 29.75,13.925 L29.559,14.035 C29.542,14.045 29.523,14.05 29.504,14.05 Z M53.01,14.172 C52.991,14.172 52.972,14.167 52.955,14.157 L52.764,14.047 C52.712,14.017 52.694,13.949 52.724,13.897 C52.755,13.844 52.822,13.826 52.875,13.856 L53.065,13.967 C53.118,13.997 53.136,14.064 53.105,14.117 C53.085,14.152 53.048,14.172 53.01,14.172 Z M28.641,14.548 C28.603,14.548 28.566,14.528 28.545,14.493 C28.515,14.441 28.533,14.373 28.585,14.343 L28.776,14.233 C28.829,14.202 28.896,14.22 28.926,14.273 C28.957,14.326 28.939,14.393 28.886,14.423 L28.696,14.533 C28.678,14.544 28.659,14.548 28.641,14.548 Z M53.874,14.671 C53.855,14.671 53.836,14.666 53.819,14.656 L53.628,14.546 C53.575,14.515 53.557,14.448 53.588,14.395 C53.618,14.343 53.685,14.325 53.738,14.355 L53.929,14.465 C53.981,14.495 53.999,14.563 53.969,14.615 C53.949,14.651 53.912,14.671 53.874,14.671 Z M27.777,15.047 C27.739,15.047 27.702,15.027 27.682,14.992 C27.651,14.939 27.669,14.872 27.722,14.841 L27.913,14.731 C27.965,14.701 28.033,14.719 28.063,14.772 C28.093,14.824 28.075,14.892 28.023,14.922 L27.832,15.032 C27.815,15.042 27.796,15.047 27.777,15.047 Z M54.737,15.169 C54.718,15.169 54.7,15.164 54.682,15.154 L54.491,15.044 C54.439,15.014 54.421,14.946 54.451,14.894 C54.482,14.841 54.549,14.823 54.602,14.854 L54.792,14.964 C54.845,14.994 54.863,15.061 54.832,15.114 C54.812,15.149 54.775,15.169 54.737,15.169 Z M26.914,15.545 C26.876,15.545 26.838,15.526 26.818,15.49 C26.788,15.438 26.806,15.37 26.858,15.34 L27.049,15.23 C27.102,15.2 27.169,15.218 27.199,15.27 C27.23,15.323 27.212,15.39 27.159,15.421 L26.968,15.531 C26.951,15.541 26.932,15.545 26.914,15.545 Z M55.601,15.668 C55.582,15.668 55.563,15.663 55.546,15.653 L55.355,15.543 C55.302,15.512 55.284,15.445 55.315,15.392 C55.345,15.34 55.413,15.322 55.465,15.352 L55.656,15.462 C55.708,15.493 55.726,15.56 55.696,15.613 C55.676,15.648 55.639,15.668 55.601,15.668 Z M26.05,16.044 C26.012,16.044 25.975,16.024 25.955,15.989 C25.924,15.936 25.942,15.869 25.995,15.839 L26.186,15.728 C26.238,15.698 26.306,15.716 26.336,15.769 C26.366,15.821 26.348,15.889 26.296,15.919 L26.105,16.029 C26.088,16.039 26.069,16.044 26.05,16.044 Z M56.464,16.166 C56.445,16.166 56.426,16.161 56.409,16.151 L56.219,16.041 C56.166,16.011 56.148,15.944 56.178,15.891 C56.209,15.838 56.276,15.82 56.329,15.851 L56.519,15.961 C56.572,15.991 56.59,16.058 56.56,16.111 C56.539,16.146 56.502,16.166 56.464,16.166 Z M25.186,16.542 C25.148,16.542 25.111,16.523 25.091,16.487 C25.061,16.435 25.079,16.367 25.131,16.337 L25.322,16.227 C25.375,16.197 25.442,16.215 25.472,16.267 C25.503,16.32 25.485,16.387 25.432,16.418 L25.241,16.528 C25.224,16.538 25.205,16.542 25.186,16.542 Z M57.328,16.665 C57.309,16.665 57.29,16.66 57.273,16.65 L57.082,16.54 C57.029,16.509 57.011,16.442 57.042,16.39 C57.072,16.337 57.139,16.319 57.192,16.349 L57.383,16.459 C57.436,16.49 57.454,16.557 57.423,16.61 C57.403,16.645 57.366,16.665 57.328,16.665 Z M24.604,17.203 C24.543,17.203 24.494,17.154 24.494,17.093 L24.494,16.873 C24.494,16.812 24.543,16.763 24.604,16.763 C24.664,16.763 24.714,16.812 24.714,16.873 L24.714,17.093 C24.714,17.154 24.664,17.203 24.604,17.203 Z M57.699,17.448 C57.638,17.448 57.589,17.398 57.589,17.338 L57.589,17.118 C57.589,17.057 57.638,17.007 57.699,17.007 C57.76,17.007 57.809,17.057 57.809,17.118 L57.809,17.338 C57.809,17.398 57.76,17.448 57.699,17.448 Z M24.604,18.2 C24.543,18.2 24.494,18.151 24.494,18.09 L24.494,17.87 C24.494,17.809 24.543,17.76 24.604,17.76 C24.664,17.76 24.714,17.809 24.714,17.87 L24.714,18.09 C24.714,18.151 24.664,18.2 24.604,18.2 Z M57.699,18.445 C57.638,18.445 57.589,18.395 57.589,18.335 L57.589,18.115 C57.589,18.054 57.638,18.005 57.699,18.005 C57.76,18.005 57.809,18.054 57.809,18.115 L57.809,18.335 C57.809,18.395 57.76,18.445 57.699,18.445 Z M24.604,19.197 C24.543,19.197 24.494,19.148 24.494,19.087 L24.494,18.867 C24.494,18.806 24.543,18.757 24.604,18.757 C24.664,18.757 24.714,18.806 24.714,18.867 L24.714,19.087 C24.714,19.148 24.664,19.197 24.604,19.197 Z M57.699,19.442 C57.638,19.442 57.589,19.393 57.589,19.332 L57.589,19.112 C57.589,19.051 57.638,19.002 57.699,19.002 C57.76,19.002 57.809,19.051 57.809,19.112 L57.809,19.332 C57.809,19.393 57.76,19.442 57.699,19.442 Z M24.604,20.195 C24.543,20.195 24.494,20.145 24.494,20.084 L24.494,19.864 C24.494,19.804 24.543,19.754 24.604,19.754 C24.664,19.754 24.714,19.804 24.714,19.864 L24.714,20.084 C24.714,20.145 24.664,20.195 24.604,20.195 Z M57.699,20.439 C57.638,20.439 57.589,20.39 57.589,20.329 L57.589,20.109 C57.589,20.048 57.638,19.999 57.699,19.999 C57.76,19.999 57.809,20.048 57.809,20.109 L57.809,20.329 C57.809,20.39 57.76,20.439 57.699,20.439 Z M24.604,21.192 C24.543,21.192 24.494,21.142 24.494,21.082 L24.494,20.861 C24.494,20.801 24.543,20.751 24.604,20.751 C24.664,20.751 24.714,20.801 24.714,20.861 L24.714,21.082 C24.714,21.142 24.664,21.192 24.604,21.192 Z M57.699,21.436 C57.638,21.436 57.589,21.387 57.589,21.326 L57.589,21.106 C57.589,21.045 57.638,20.996 57.699,20.996 C57.76,20.996 57.809,21.045 57.809,21.106 L57.809,21.326 C57.809,21.387 57.76,21.436 57.699,21.436 Z M24.604,22.189 C24.543,22.189 24.494,22.14 24.494,22.079 L24.494,21.859 C24.494,21.798 24.543,21.748 24.604,21.748 C24.664,21.748 24.714,21.798 24.714,21.859 L24.714,22.079 C24.714,22.14 24.664,22.189 24.604,22.189 Z M57.699,22.433 C57.638,22.433 57.589,22.384 57.589,22.323 L57.589,22.103 C57.589,22.042 57.638,21.993 57.699,21.993 C57.76,21.993 57.809,22.042 57.809,22.103 L57.809,22.323 C57.809,22.384 57.76,22.433 57.699,22.433 Z M24.604,23.186 C24.543,23.186 24.494,23.137 24.494,23.076 L24.494,22.856 C24.494,22.795 24.543,22.746 24.604,22.746 C24.664,22.746 24.714,22.795 24.714,22.856 L24.714,23.076 C24.714,23.137 24.664,23.186 24.604,23.186 Z M57.699,23.43 C57.638,23.43 57.589,23.381 57.589,23.32 L57.589,23.1 C57.589,23.039 57.638,22.99 57.699,22.99 C57.76,22.99 57.809,23.039 57.809,23.1 L57.809,23.32 C57.809,23.381 57.76,23.43 57.699,23.43 Z M24.604,24.183 C24.543,24.183 24.494,24.134 24.494,24.073 L24.494,23.853 C24.494,23.792 24.543,23.743 24.604,23.743 C24.664,23.743 24.714,23.792 24.714,23.853 L24.714,24.073 C24.714,24.134 24.664,24.183 24.604,24.183 Z M57.699,24.428 C57.638,24.428 57.589,24.378 57.589,24.317 L57.589,24.097 C57.589,24.037 57.638,23.987 57.699,23.987 C57.76,23.987 57.809,24.037 57.809,24.097 L57.809,24.317 C57.809,24.378 57.76,24.428 57.699,24.428 Z M24.604,25.18 C24.543,25.18 24.494,25.131 24.494,25.07 L24.494,24.85 C24.494,24.789 24.543,24.74 24.604,24.74 C24.664,24.74 24.714,24.789 24.714,24.85 L24.714,25.07 C24.714,25.131 24.664,25.18 24.604,25.18 Z M57.699,25.425 C57.638,25.425 57.589,25.375 57.589,25.315 L57.589,25.095 C57.589,25.034 57.638,24.984 57.699,24.984 C57.76,24.984 57.809,25.034 57.809,25.095 L57.809,25.315 C57.809,25.375 57.76,25.425 57.699,25.425 Z M24.604,26.177 C24.543,26.177 24.494,26.128 24.494,26.067 L24.494,25.847 C24.494,25.786 24.543,25.737 24.604,25.737 C24.664,25.737 24.714,25.786 24.714,25.847 L24.714,26.067 C24.714,26.128 24.664,26.177 24.604,26.177 Z M57.699,26.422 C57.638,26.422 57.589,26.373 57.589,26.312 L57.589,26.092 C57.589,26.031 57.638,25.981 57.699,25.981 C57.76,25.981 57.809,26.031 57.809,26.092 L57.809,26.312 C57.809,26.373 57.76,26.422 57.699,26.422 Z M24.604,27.174 C24.543,27.174 24.494,27.125 24.494,27.064 L24.494,26.844 C24.494,26.783 24.543,26.734 24.604,26.734 C24.664,26.734 24.714,26.783 24.714,26.844 L24.714,27.064 C24.714,27.125 24.664,27.174 24.604,27.174 Z M57.699,27.419 C57.638,27.419 57.589,27.37 57.589,27.309 L57.589,27.089 C57.589,27.028 57.638,26.979 57.699,26.979 C57.76,26.979 57.809,27.028 57.809,27.089 L57.809,27.309 C57.809,27.37 57.76,27.419 57.699,27.419 Z M24.604,28.171 C24.543,28.171 24.494,28.122 24.494,28.061 L24.494,27.841 C24.494,27.781 24.543,27.731 24.604,27.731 C24.664,27.731 24.714,27.781 24.714,27.841 L24.714,28.061 C24.714,28.122 24.664,28.171 24.604,28.171 Z M57.699,28.416 C57.638,28.416 57.589,28.367 57.589,28.306 L57.589,28.086 C57.589,28.025 57.638,27.976 57.699,27.976 C57.76,27.976 57.809,28.025 57.809,28.086 L57.809,28.306 C57.809,28.367 57.76,28.416 57.699,28.416 Z M24.604,29.169 C24.543,29.169 24.494,29.119 24.494,29.059 L24.494,28.838 C24.494,28.778 24.543,28.728 24.604,28.728 C24.664,28.728 24.714,28.778 24.714,28.838 L24.714,29.059 C24.714,29.119 24.664,29.169 24.604,29.169 Z M57.699,29.413 C57.638,29.413 57.589,29.364 57.589,29.303 L57.589,29.083 C57.589,29.022 57.638,28.973 57.699,28.973 C57.76,28.973 57.809,29.022 57.809,29.083 L57.809,29.303 C57.809,29.364 57.76,29.413 57.699,29.413 Z M24.604,30.166 C24.543,30.166 24.494,30.116 24.494,30.056 L24.494,29.835 C24.494,29.775 24.543,29.725 24.604,29.725 C24.664,29.725 24.714,29.775 24.714,29.835 L24.714,30.056 C24.714,30.116 24.664,30.166 24.604,30.166 Z M57.699,30.41 C57.638,30.41 57.589,30.361 57.589,30.3 L57.589,30.08 C57.589,30.019 57.638,29.97 57.699,29.97 C57.76,29.97 57.809,30.019 57.809,30.08 L57.809,30.3 C57.809,30.361 57.76,30.41 57.699,30.41 Z M24.604,31.163 C24.543,31.163 24.494,31.114 24.494,31.053 L24.494,30.833 C24.494,30.772 24.543,30.723 24.604,30.723 C24.664,30.723 24.714,30.772 24.714,30.833 L24.714,31.053 C24.714,31.114 24.664,31.163 24.604,31.163 Z M57.699,31.407 C57.638,31.407 57.589,31.358 57.589,31.297 L57.589,31.077 C57.589,31.016 57.638,30.967 57.699,30.967 C57.76,30.967 57.809,31.016 57.809,31.077 L57.809,31.297 C57.809,31.358 57.76,31.407 57.699,31.407 Z M24.604,32.16 C24.543,32.16 24.494,32.111 24.494,32.05 L24.494,31.83 C24.494,31.769 24.543,31.72 24.604,31.72 C24.664,31.72 24.714,31.769 24.714,31.83 L24.714,32.05 C24.714,32.111 24.664,32.16 24.604,32.16 Z M57.699,32.404 C57.638,32.404 57.589,32.355 57.589,32.294 L57.589,32.074 C57.589,32.014 57.638,31.964 57.699,31.964 C57.76,31.964 57.809,32.014 57.809,32.074 L57.809,32.294 C57.809,32.355 57.76,32.404 57.699,32.404 Z M24.604,33.157 C24.543,33.157 24.494,33.108 24.494,33.047 L24.494,32.827 C24.494,32.766 24.543,32.717 24.604,32.717 C24.664,32.717 24.714,32.766 24.714,32.827 L24.714,33.047 C24.714,33.108 24.664,33.157 24.604,33.157 Z M57.699,33.402 C57.638,33.402 57.589,33.352 57.589,33.292 L57.589,33.071 C57.589,33.011 57.638,32.961 57.699,32.961 C57.76,32.961 57.809,33.011 57.809,33.071 L57.809,33.292 C57.809,33.352 57.76,33.402 57.699,33.402 Z M24.604,34.154 C24.543,34.154 24.494,34.105 24.494,34.044 L24.494,33.824 C24.494,33.763 24.543,33.714 24.604,33.714 C24.664,33.714 24.714,33.763 24.714,33.824 L24.714,34.044 C24.714,34.105 24.664,34.154 24.604,34.154 Z M57.699,34.399 C57.638,34.399 57.589,34.35 57.589,34.289 L57.589,34.069 C57.589,34.008 57.638,33.959 57.699,33.959 C57.76,33.959 57.809,34.008 57.809,34.069 L57.809,34.289 C57.809,34.35 57.76,34.399 57.699,34.399 Z M24.604,35.151 C24.543,35.151 24.494,35.102 24.494,35.041 L24.494,34.821 C24.494,34.76 24.543,34.711 24.604,34.711 C24.664,34.711 24.714,34.76 24.714,34.821 L24.714,35.041 C24.714,35.102 24.664,35.151 24.604,35.151 Z M57.699,35.396 C57.638,35.396 57.589,35.347 57.589,35.286 L57.589,35.066 C57.589,35.005 57.638,34.956 57.699,34.956 C57.76,34.956 57.809,35.005 57.809,35.066 L57.809,35.286 C57.809,35.347 57.76,35.396 57.699,35.396 Z M24.744,36.068 C24.725,36.068 24.706,36.063 24.689,36.053 L24.549,35.972 C24.515,35.952 24.494,35.916 24.494,35.876 L24.494,35.818 C24.494,35.757 24.543,35.708 24.604,35.708 C24.663,35.708 24.711,35.755 24.714,35.813 L24.799,35.862 C24.852,35.893 24.87,35.96 24.839,36.012 C24.819,36.048 24.782,36.068 24.744,36.068 Z M57.347,36.19 C57.309,36.19 57.272,36.17 57.251,36.135 C57.221,36.082 57.239,36.015 57.292,35.984 L57.482,35.874 C57.535,35.844 57.602,35.862 57.633,35.915 C57.663,35.967 57.645,36.035 57.592,36.065 L57.402,36.175 C57.384,36.185 57.365,36.19 57.347,36.19 Z M25.607,36.566 C25.589,36.566 25.57,36.561 25.552,36.551 L25.362,36.441 C25.309,36.411 25.291,36.343 25.322,36.291 C25.352,36.238 25.419,36.22 25.472,36.251 L25.663,36.361 C25.715,36.391 25.733,36.458 25.703,36.511 C25.682,36.546 25.645,36.566 25.607,36.566 Z M56.483,36.688 C56.445,36.688 56.408,36.669 56.388,36.633 C56.357,36.581 56.375,36.513 56.428,36.483 L56.619,36.373 C56.671,36.342 56.739,36.36 56.769,36.413 C56.799,36.466 56.781,36.533 56.729,36.563 L56.538,36.674 C56.521,36.684 56.502,36.688 56.483,36.688 Z M26.471,37.065 C26.452,37.065 26.433,37.06 26.416,37.05 L26.225,36.94 C26.173,36.909 26.155,36.842 26.185,36.789 C26.216,36.737 26.283,36.719 26.336,36.749 L26.526,36.859 C26.579,36.89 26.597,36.957 26.566,37.01 C26.546,37.045 26.509,37.065 26.471,37.065 Z M55.62,37.187 C55.582,37.187 55.545,37.167 55.524,37.132 C55.494,37.079 55.512,37.012 55.564,36.981 L55.755,36.871 C55.808,36.841 55.875,36.859 55.906,36.912 C55.936,36.964 55.918,37.032 55.865,37.062 L55.675,37.172 C55.657,37.182 55.638,37.187 55.62,37.187 Z M27.335,37.563 C27.316,37.563 27.297,37.558 27.28,37.548 L27.089,37.438 C27.036,37.408 27.018,37.341 27.049,37.288 C27.079,37.235 27.146,37.217 27.199,37.248 L27.39,37.358 C27.442,37.388 27.46,37.455 27.43,37.508 C27.41,37.543 27.373,37.563 27.335,37.563 Z M54.756,37.685 C54.718,37.685 54.681,37.666 54.661,37.63 C54.63,37.578 54.648,37.51 54.701,37.48 L54.892,37.37 C54.945,37.339 55.012,37.358 55.042,37.41 C55.072,37.463 55.054,37.53 55.002,37.561 L54.811,37.671 C54.794,37.681 54.775,37.685 54.756,37.685 Z M28.198,38.062 C28.179,38.062 28.161,38.057 28.143,38.047 L27.952,37.937 C27.9,37.906 27.882,37.839 27.912,37.787 C27.942,37.734 28.01,37.716 28.063,37.746 L28.253,37.856 C28.306,37.887 28.324,37.954 28.293,38.007 C28.273,38.042 28.236,38.062 28.198,38.062 Z M53.893,38.184 C53.855,38.184 53.818,38.164 53.797,38.129 C53.767,38.076 53.785,38.009 53.837,37.979 L54.028,37.869 C54.08,37.838 54.148,37.856 54.178,37.909 C54.209,37.961 54.191,38.029 54.138,38.059 L53.948,38.169 C53.93,38.179 53.911,38.184 53.893,38.184 Z M29.062,38.56 C29.043,38.56 29.024,38.555 29.007,38.546 L28.816,38.435 C28.763,38.405 28.745,38.338 28.776,38.285 C28.806,38.232 28.873,38.214 28.926,38.245 L29.117,38.355 C29.169,38.385 29.187,38.453 29.157,38.505 C29.137,38.54 29.1,38.56 29.062,38.56 Z M53.029,38.682 C52.991,38.682 52.954,38.663 52.934,38.628 C52.903,38.575 52.921,38.507 52.974,38.477 L53.164,38.367 C53.217,38.337 53.285,38.355 53.315,38.407 C53.345,38.46 53.327,38.527 53.275,38.558 L53.084,38.668 C53.067,38.678 53.048,38.682 53.029,38.682 Z M29.925,39.059 C29.906,39.059 29.887,39.054 29.87,39.044 L29.68,38.934 C29.627,38.903 29.609,38.836 29.639,38.784 C29.67,38.731 29.737,38.713 29.79,38.743 L29.98,38.853 C30.033,38.884 30.051,38.951 30.021,39.004 C30,39.039 29.963,39.059 29.925,39.059 Z M52.166,39.181 C52.128,39.181 52.09,39.161 52.07,39.126 C52.04,39.073 52.058,39.006 52.11,38.976 L52.301,38.866 C52.354,38.835 52.421,38.853 52.451,38.906 C52.482,38.959 52.464,39.026 52.411,39.056 L52.22,39.166 C52.203,39.176 52.184,39.181 52.166,39.181 Z M30.789,39.557 C30.77,39.557 30.751,39.553 30.734,39.543 L30.543,39.433 C30.49,39.402 30.472,39.335 30.503,39.282 C30.533,39.23 30.6,39.212 30.653,39.242 L30.844,39.352 C30.896,39.382 30.914,39.45 30.884,39.502 C30.864,39.538 30.827,39.557 30.789,39.557 Z M51.302,39.68 C51.264,39.68 51.227,39.66 51.207,39.624 C51.176,39.572 51.194,39.505 51.247,39.474 L51.437,39.364 C51.49,39.334 51.557,39.352 51.588,39.404 C51.618,39.457 51.6,39.524 51.548,39.555 L51.357,39.665 C51.339,39.675 51.321,39.68 51.302,39.68 Z M31.652,40.056 C31.634,40.056 31.615,40.051 31.597,40.041 L31.407,39.931 C31.354,39.901 31.336,39.833 31.366,39.781 C31.397,39.728 31.464,39.71 31.517,39.74 L31.707,39.851 C31.76,39.881 31.778,39.948 31.748,40.001 C31.727,40.036 31.69,40.056 31.652,40.056 Z M50.438,40.178 C50.4,40.178 50.363,40.158 50.343,40.123 C50.313,40.07 50.331,40.003 50.383,39.973 L50.574,39.863 C50.627,39.832 50.694,39.85 50.724,39.903 C50.755,39.956 50.737,40.023 50.684,40.053 L50.493,40.164 C50.476,40.174 50.457,40.178 50.438,40.178 Z M32.516,40.555 C32.497,40.555 32.478,40.55 32.461,40.54 L32.27,40.43 C32.217,40.399 32.199,40.332 32.23,40.279 C32.26,40.227 32.328,40.209 32.38,40.239 L32.571,40.349 C32.624,40.38 32.642,40.447 32.611,40.499 C32.591,40.535 32.554,40.555 32.516,40.555 Z M49.575,40.677 C49.537,40.677 49.5,40.657 49.479,40.622 C49.449,40.569 49.467,40.502 49.52,40.471 L49.71,40.361 C49.763,40.331 49.83,40.349 49.861,40.402 C49.891,40.454 49.873,40.522 49.82,40.552 L49.63,40.662 C49.612,40.672 49.594,40.677 49.575,40.677 Z M33.379,41.053 C33.361,41.053 33.342,41.048 33.324,41.038 L33.134,40.928 C33.081,40.898 33.063,40.831 33.093,40.778 C33.124,40.725 33.191,40.707 33.244,40.738 L33.434,40.848 C33.487,40.878 33.505,40.945 33.475,40.998 C33.454,41.033 33.417,41.053 33.379,41.053 Z M48.711,41.175 C48.673,41.175 48.636,41.156 48.616,41.12 C48.586,41.068 48.604,41 48.656,40.97 L48.847,40.86 C48.9,40.83 48.967,40.848 48.997,40.9 C49.028,40.953 49.01,41.02 48.957,41.05 L48.766,41.161 C48.749,41.171 48.73,41.175 48.711,41.175 Z M34.243,41.552 C34.224,41.552 34.205,41.547 34.188,41.537 L33.997,41.427 C33.945,41.396 33.927,41.329 33.957,41.276 C33.987,41.224 34.055,41.206 34.107,41.236 L34.298,41.346 C34.351,41.377 34.369,41.444 34.338,41.497 C34.318,41.532 34.281,41.552 34.243,41.552 Z M47.848,41.674 C47.81,41.674 47.773,41.654 47.752,41.619 C47.722,41.566 47.74,41.499 47.793,41.468 L47.983,41.358 C48.036,41.328 48.103,41.346 48.134,41.399 C48.164,41.451 48.146,41.519 48.093,41.549 L47.903,41.659 C47.885,41.669 47.866,41.674 47.848,41.674 Z M35.106,42.05 C35.088,42.05 35.069,42.045 35.051,42.035 L34.861,41.925 C34.808,41.895 34.79,41.828 34.821,41.775 C34.851,41.722 34.918,41.704 34.971,41.735 L35.161,41.845 C35.214,41.875 35.232,41.942 35.202,41.995 C35.181,42.031 35.144,42.05 35.106,42.05 Z M46.984,42.173 C46.946,42.173 46.909,42.153 46.889,42.117 C46.858,42.065 46.876,41.997 46.929,41.967 L47.12,41.857 C47.173,41.827 47.24,41.845 47.27,41.897 C47.301,41.95 47.283,42.017 47.23,42.048 L47.039,42.158 C47.022,42.168 47.003,42.173 46.984,42.173 Z M35.97,42.549 C35.951,42.549 35.932,42.544 35.915,42.534 L35.724,42.424 C35.672,42.394 35.654,42.326 35.684,42.274 C35.714,42.221 35.782,42.203 35.834,42.233 L36.025,42.343 C36.078,42.374 36.096,42.441 36.065,42.494 C36.045,42.529 36.008,42.549 35.97,42.549 Z M46.121,42.671 C46.083,42.671 46.046,42.651 46.025,42.616 C45.995,42.563 46.013,42.496 46.066,42.466 L46.256,42.356 C46.309,42.325 46.376,42.343 46.407,42.396 C46.437,42.449 46.419,42.516 46.366,42.546 L46.176,42.656 C46.158,42.666 46.139,42.671 46.121,42.671 Z M36.833,43.047 C36.815,43.047 36.796,43.042 36.778,43.033 L36.588,42.923 C36.535,42.892 36.517,42.825 36.548,42.772 C36.578,42.72 36.645,42.701 36.698,42.732 L36.889,42.842 C36.941,42.872 36.959,42.94 36.929,42.992 C36.908,43.028 36.871,43.047 36.833,43.047 Z M45.257,43.17 C45.219,43.17 45.182,43.15 45.162,43.115 C45.131,43.062 45.149,42.994 45.202,42.964 L45.393,42.854 C45.445,42.824 45.513,42.842 45.543,42.894 C45.573,42.947 45.555,43.014 45.503,43.045 L45.312,43.155 C45.295,43.165 45.276,43.17 45.257,43.17 Z M37.697,43.546 C37.678,43.546 37.659,43.541 37.642,43.531 L37.451,43.421 C37.399,43.391 37.381,43.323 37.411,43.271 C37.441,43.218 37.509,43.2 37.561,43.23 L37.752,43.341 C37.805,43.371 37.823,43.438 37.792,43.491 C37.772,43.526 37.735,43.546 37.697,43.546 Z M44.394,43.668 C44.356,43.668 44.319,43.648 44.298,43.613 C44.268,43.561 44.286,43.493 44.339,43.463 L44.529,43.353 C44.582,43.322 44.649,43.34 44.679,43.393 C44.71,43.445 44.692,43.513 44.639,43.543 L44.449,43.653 C44.431,43.663 44.412,43.668 44.394,43.668 Z M38.56,44.045 C38.542,44.045 38.523,44.04 38.506,44.03 L38.315,43.92 C38.262,43.889 38.244,43.822 38.275,43.769 C38.305,43.717 38.372,43.699 38.425,43.729 L38.616,43.839 C38.668,43.869 38.686,43.937 38.656,43.989 C38.636,44.025 38.598,44.045 38.56,44.045 Z M43.53,44.167 C43.492,44.167 43.455,44.147 43.435,44.112 C43.404,44.059 43.422,43.992 43.475,43.961 L43.666,43.851 C43.718,43.821 43.786,43.839 43.816,43.891 C43.846,43.944 43.828,44.012 43.776,44.042 L43.585,44.152 C43.568,44.162 43.549,44.167 43.53,44.167 Z M39.424,44.543 C39.405,44.543 39.386,44.538 39.369,44.528 L39.178,44.418 C39.126,44.388 39.108,44.32 39.138,44.268 C39.168,44.215 39.236,44.197 39.288,44.227 L39.479,44.338 C39.532,44.368 39.55,44.435 39.519,44.488 C39.499,44.523 39.462,44.543 39.424,44.543 Z M42.667,44.665 C42.629,44.665 42.592,44.645 42.571,44.61 C42.541,44.557 42.559,44.49 42.611,44.46 L42.802,44.35 C42.855,44.319 42.922,44.337 42.952,44.39 C42.983,44.443 42.965,44.51 42.912,44.54 L42.722,44.651 C42.704,44.661 42.685,44.665 42.667,44.665 Z M40.288,45.042 C40.269,45.042 40.25,45.037 40.233,45.027 L40.042,44.917 C39.989,44.886 39.971,44.819 40.002,44.766 C40.032,44.714 40.099,44.696 40.152,44.726 L40.343,44.836 C40.395,44.867 40.413,44.934 40.383,44.986 C40.363,45.022 40.326,45.042 40.288,45.042 Z M41.803,45.164 C41.765,45.164 41.728,45.144 41.708,45.109 C41.677,45.056 41.695,44.989 41.748,44.958 L41.939,44.848 C41.991,44.818 42.059,44.836 42.089,44.889 C42.119,44.941 42.101,45.009 42.049,45.039 L41.858,45.149 C41.841,45.159 41.822,45.164 41.803,45.164 Z M41.151,45.54 C41.132,45.54 41.114,45.535 41.096,45.525 L40.905,45.415 C40.853,45.385 40.835,45.318 40.865,45.265 C40.896,45.212 40.963,45.194 41.016,45.225 L41.206,45.335 C41.259,45.365 41.277,45.432 41.246,45.485 C41.226,45.52 41.189,45.54 41.151,45.54 L41.151,45.54 Z" id="Fill-31"></path>
                <path d="M24.733,49.932 L41.152,59.411 L57.569,49.932 L57.569,30.974 L41.151,21.495 L24.733,30.974 L24.733,49.932 Z M41.152,59.71 L24.474,50.082 L24.474,30.825 L24.539,30.787 L41.151,21.196 L57.828,30.824 L57.828,50.081 L57.764,50.119 L41.152,59.71 L41.152,59.71 Z" id="Fill-106"></path>
                <path d="M29.044,47.425 L41.135,54.406 L53.227,47.424 L53.227,33.462 L41.135,26.481 L29.043,33.463 L29.044,47.425 Z M41.135,54.705 L28.785,47.574 L28.784,33.313 L28.849,33.276 L41.135,26.182 L53.486,33.313 L53.486,47.574 L53.421,47.611 L41.135,54.705 L41.135,54.705 Z" id="Fill-107"></path>
                <path d="M16.822,54.481 L28.914,61.462 L41.006,54.481 L41.006,40.518 L28.914,33.537 L16.822,40.519 L16.822,54.481 Z M28.914,61.761 L16.563,54.63 L16.563,40.369 L16.628,40.332 L28.914,33.238 L41.265,40.369 L41.265,54.63 L41.2,54.667 L28.914,61.761 L28.914,61.761 Z" id="Fill-108"></path>
                <path d="M0.259,49.932 L16.677,59.411 L33.095,49.932 L33.095,30.974 L16.676,21.495 L0.258,30.974 L0.259,49.932 Z M16.677,59.71 L0,50.082 L0,30.825 L0.064,30.787 L16.676,21.196 L33.354,30.824 L33.354,50.082 L33.289,50.119 L16.677,59.71 L16.677,59.71 Z" id="Fill-109"></path>
                <path d="M4.601,47.425 L16.693,54.406 L28.784,47.425 L28.784,33.463 L16.693,26.481 L4.601,33.463 L4.601,47.425 Z M16.693,54.705 L4.342,47.574 L4.342,33.313 L4.407,33.276 L16.693,26.182 L29.043,33.313 L29.043,47.574 L28.979,47.612 L16.693,54.705 L16.693,54.705 Z" id="Fill-110"></path>
                <path d="M4.601,33.313 L16.693,40.294 L28.784,33.313 L28.784,19.351 L16.693,12.37 L4.601,19.351 L4.601,33.313 Z M16.693,40.593 L4.342,33.463 L4.342,19.201 L4.407,19.164 L16.693,12.071 L29.043,19.201 L29.043,33.463 L28.979,33.5 L16.693,40.593 L16.693,40.593 Z" id="Fill-111"></path>
                <path d="M12.496,28.736 L28.914,38.215 L45.332,28.736 L45.332,9.778 L28.914,0.299 L12.496,9.778 L12.496,28.736 Z M28.914,38.514 L12.237,28.886 L12.237,9.629 L12.301,9.592 L28.914,0 L45.591,9.629 L45.591,28.886 L45.526,28.923 L28.914,38.514 L28.914,38.514 Z" id="Fill-112"></path>
                <path d="M16.822,26.257 L28.914,33.238 L41.006,26.257 L41.006,12.295 L28.914,5.314 L16.822,12.295 L16.822,26.257 Z M28.914,33.537 L16.563,26.407 L16.563,12.145 L16.628,12.108 L28.914,5.015 L41.264,12.145 L41.264,26.407 L41.2,26.444 L28.914,33.537 L28.914,33.537 Z" id="Fill-113"></path>
                <path d="M29.043,33.313 L41.135,40.294 L53.227,33.313 L53.227,19.351 L41.135,12.37 L29.043,19.351 L29.043,33.313 Z M41.135,40.593 L28.784,33.463 L28.784,19.201 L28.849,19.164 L41.135,12.071 L53.486,19.201 L53.486,33.463 L53.421,33.5 L41.135,40.593 L41.135,40.593 Z" id="Fill-114"></path>
                <path d="M41.758,40.443 C41.758,40.788 41.479,41.067 41.135,41.067 C40.791,41.067 40.512,40.788 40.512,40.443 C40.512,40.099 40.791,39.82 41.135,39.82 C41.479,39.82 41.758,40.099 41.758,40.443" id="Fill-387"></path>
                <path d="M29.537,33.388 C29.537,33.732 29.258,34.011 28.914,34.011 C28.57,34.011 28.291,33.732 28.291,33.388 C28.291,33.044 28.57,32.765 28.914,32.765 C29.258,32.765 29.537,33.044 29.537,33.388" id="Fill-388"></path>
                <path d="M17.316,40.444 C17.316,40.788 17.037,41.067 16.693,41.067 C16.349,41.067 16.07,40.788 16.07,40.444 C16.07,40.1 16.349,39.821 16.693,39.821 C17.037,39.821 17.316,40.1 17.316,40.444" id="Fill-389"></path>
                <path d="M5.095,33.391 C5.095,33.735 4.816,34.014 4.472,34.014 C4.127,34.014 3.848,33.735 3.848,33.391 C3.848,33.047 4.127,32.768 4.472,32.768 C4.816,32.768 5.095,33.047 5.095,33.391" id="Fill-390"></path>
                <path d="M17.316,26.332 C17.316,26.676 17.037,26.955 16.693,26.955 C16.349,26.955 16.07,26.676 16.07,26.332 C16.07,25.988 16.349,25.709 16.693,25.709 C17.037,25.709 17.316,25.988 17.316,26.332" id="Fill-391"></path>
                <path d="M5.095,47.499 C5.095,47.844 4.816,48.123 4.472,48.123 C4.127,48.123 3.848,47.844 3.848,47.499 C3.848,47.155 4.127,46.876 4.472,46.876 C4.816,46.876 5.095,47.155 5.095,47.499" id="Fill-392"></path>
                <path d="M17.316,54.555 C17.316,54.899 17.037,55.178 16.693,55.178 C16.349,55.178 16.07,54.899 16.07,54.555 C16.07,54.211 16.349,53.932 16.693,53.932 C17.037,53.932 17.316,54.211 17.316,54.555" id="Fill-393"></path>
                <path d="M29.537,47.518 C29.537,47.862 29.258,48.141 28.914,48.141 C28.57,48.141 28.291,47.862 28.291,47.518 C28.291,47.174 28.57,46.895 28.914,46.895 C29.258,46.895 29.537,47.174 29.537,47.518" id="Fill-394"></path>
                <path d="M41.758,54.555 C41.758,54.899 41.479,55.178 41.135,55.178 C40.791,55.178 40.512,54.899 40.512,54.555 C40.512,54.211 40.791,53.932 41.135,53.932 C41.479,53.932 41.758,54.211 41.758,54.555" id="Fill-395"></path>
                <path d="M53.98,47.5 C53.98,47.844 53.701,48.123 53.356,48.123 C53.012,48.123 52.733,47.844 52.733,47.5 C52.733,47.156 53.012,46.877 53.356,46.877 C53.701,46.877 53.98,47.156 53.98,47.5" id="Fill-396"></path>
                <path d="M53.979,33.387 C53.979,33.732 53.7,34.011 53.356,34.011 C53.012,34.011 52.733,33.732 52.733,33.387 C52.733,33.043 53.012,32.764 53.356,32.764 C53.7,32.764 53.979,33.043 53.979,33.387" id="Fill-397"></path>
                <path d="M41.758,26.332 C41.758,26.676 41.479,26.955 41.135,26.955 C40.791,26.955 40.512,26.676 40.512,26.332 C40.512,25.988 40.791,25.709 41.135,25.709 C41.479,25.709 41.758,25.988 41.758,26.332" id="Fill-398"></path>
                <path d="M29.537,19.276 C29.537,19.62 29.258,19.899 28.914,19.899 C28.57,19.899 28.291,19.62 28.291,19.276 C28.291,18.932 28.57,18.653 28.914,18.653 C29.258,18.653 29.537,18.932 29.537,19.276" id="Fill-399"></path>
                <path d="M29.537,5.164 C29.537,5.508 29.258,5.787 28.914,5.787 C28.57,5.787 28.291,5.508 28.291,5.164 C28.291,4.82 28.57,4.541 28.914,4.541 C29.258,4.541 29.537,4.82 29.537,5.164" id="Fill-400"></path>
                <path d="M17.316,12.22 C17.316,12.564 17.037,12.843 16.693,12.843 C16.349,12.843 16.07,12.564 16.07,12.22 C16.07,11.876 16.349,11.597 16.693,11.597 C17.037,11.597 17.316,11.876 17.316,12.22" id="Fill-401"></path>
                <path d="M41.758,12.22 C41.758,12.564 41.479,12.843 41.135,12.843 C40.791,12.843 40.512,12.564 40.512,12.22 C40.512,11.876 40.791,11.597 41.135,11.597 C41.479,11.597 41.758,11.876 41.758,12.22" id="Fill-402"></path>
            </g>
        </g>
    </g>
</svg>