<svg id="Capa_1" enable-background="new 0 0 512 512" height="512" viewBox="0 0 512 512" width="512" xmlns="http://www.w3.org/2000/svg" xmlns:xlink="http://www.w3.org/1999/xlink"><linearGradient id="SVGID_1_" gradientUnits="userSpaceOnUse" x1="256" x2="256" y1="391" y2="181"><stop offset="0" stop-color="#9bff9d"/><stop offset=".9973" stop-color="#e2ffea"/><stop offset="1" stop-color="#e2ffea"/></linearGradient><linearGradient id="lg1"><stop offset="0" stop-color="#00b59c"/><stop offset="1" stop-color="#9cffac"/></linearGradient><linearGradient id="SVGID_2_" gradientUnits="userSpaceOnUse" x1="256" x2="256" xlink:href="#lg1" y1="211" y2="0"/><linearGradient id="SVGID_3_" gradientUnits="userSpaceOnUse" x1="75.5" x2="75.5" xlink:href="#lg1" y1="512" y2="361"/><linearGradient id="SVGID_4_" gradientUnits="userSpaceOnUse" x1="436.5" x2="436.5" xlink:href="#lg1" y1="512" y2="361"/><linearGradient id="SVGID_5_" gradientUnits="userSpaceOnUse" x1="256" x2="256" xlink:href="#lg1" y1="512" y2="361"/><g><path d="m436 271h-165v-75c0-8.284-6.716-15-15-15s-15 6.716-15 15v75h-165c-8.284 0-15 6.716-15 15v90c0 8.284 6.716 15 15 15s15-6.716 15-15v-75h150v75c0 8.284 6.716 15 15 15s15-6.716 15-15v-75h150v75c0 8.284 6.716 15 15 15s15-6.716 15-15v-90c0-8.284-6.716-15-15-15z" fill="url(#SVGID_1_)"/><path d="m346 211h-180c-8.284 0-15-6.716-15-15v-181c0-8.284 6.716-15 15-15h180c8.284 0 15 6.716 15 15v181c0 8.284-6.716 15-15 15z" fill="url(#SVGID_2_)"/><path d="m136 512h-121c-8.284 0-15-6.716-15-15v-121c0-8.284 6.716-15 15-15h121c8.284 0 15 6.716 15 15v121c0 8.284-6.716 15-15 15z" fill="url(#SVGID_3_)"/><path d="m497 512h-121c-8.284 0-15-6.716-15-15v-121c0-8.284 6.716-15 15-15h121c8.284 0 15 6.716 15 15v121c0 8.284-6.716 15-15 15z" fill="url(#SVGID_4_)"/><path d="m316 512h-120c-8.284 0-15-6.716-15-15v-121c0-8.284 6.716-15 15-15h120c8.284 0 15 6.716 15 15v121c0 8.284-6.716 15-15 15z" fill="url(#SVGID_5_)"/></g></svg>