<?xml version="1.0" encoding="UTF-8"?>
<svg width="24px" height="27px" viewBox="0 0 24 27" version="1.1" xmlns="http://www.w3.org/2000/svg" xmlns:xlink="http://www.w3.org/1999/xlink">
    <title>Group</title>
    <g id="Page-1" stroke="none" stroke-width="1" fill="none" fill-rule="evenodd">
        <g id="Group" transform="translate(0.743000, 0.000000)" fill="#000000">
            <path d="M11.535,26.57175 C11.497,26.57175 11.459,26.56175 11.425,26.54175 L0.11,20.00875 C0.042,19.96975 -2.66453526e-14,19.89775 -2.66453526e-14,19.81775 L-2.66453526e-14,6.75275 C-2.66453526e-14,6.67475 0.042,6.60275 0.11,6.56175 L11.425,0.03075 C11.493,-0.01025 11.577,-0.01025 11.645,0.03075 L22.96,6.56175 C23.028,6.60275 23.07,6.67475 23.07,6.75275 L23.07,19.81775 C23.07,19.89775 23.028,19.96975 22.96,20.00875 L11.645,26.54175 C11.611,26.56175 11.573,26.57175 11.535,26.57175 Z M0.441,19.69075 L11.535,26.09675 L22.63,19.69075 L22.63,6.87975 L11.535,0.47575 L0.441,6.87975 L0.441,19.69075 L0.441,19.69075 Z" id="Fill-812"></path>
            <path d="M11.535,20.25275 C11.497,20.25275 11.459,20.24475 11.425,20.22375 L5.582,16.85075 C5.512,16.81175 5.47,16.73875 5.47,16.65875 L5.47,9.91075 C5.47,9.83275 5.512,9.76075 5.582,9.72175 L11.425,6.34675 C11.493,6.30775 11.577,6.30775 11.645,6.34675 L17.489,9.72175 C17.557,9.76075 17.599,9.83275 17.599,9.91075 L17.599,16.65875 C17.599,16.73875 17.557,16.81175 17.489,16.85075 L11.645,20.22375 C11.611,20.24475 11.573,20.25275 11.535,20.25275 Z M5.912,16.53175 L11.535,19.77875 L17.157,16.53175 L17.157,10.03975 L11.535,6.79175 L5.912,10.03975 L5.912,16.53175 L5.912,16.53175 Z" id="Fill-813"></path>
            <path d="M11.535,26.46175 C11.473,26.46175 11.425,26.41075 11.425,26.35075 L11.425,13.28575 C11.425,13.22575 11.473,13.17475 11.535,13.17475 C11.596,13.17475 11.645,13.22575 11.645,13.28575 L11.645,26.35075 C11.645,26.41075 11.596,26.46175 11.535,26.46175" id="Fill-814"></path>
            <path d="M11.535,13.39575 C11.516,13.39575 11.497,13.39175 11.479,13.38175 L0.166,6.84875 C0.112,6.81975 0.094,6.75075 0.126,6.69775 C0.155,6.64575 0.222,6.62775 0.276,6.65675 L11.59,13.19075 C11.643,13.22175 11.661,13.28775 11.63,13.34075 C11.61,13.37575 11.573,13.39575 11.535,13.39575" id="Fill-815"></path>
            <path d="M5.692,10.78775 C5.673,10.78775 5.654,10.78375 5.636,10.77475 L0.166,7.61375 C0.112,7.58475 0.094,7.51675 0.126,7.46375 C0.155,7.41075 0.222,7.39375 0.276,7.42475 L5.747,10.58275 C5.8,10.61275 5.817,10.68075 5.786,10.73375 C5.766,10.76875 5.729,10.78775 5.692,10.78775" id="Fill-816"></path>
            <path d="M11.562,14.04375 C11.524,14.04375 11.487,14.02475 11.466,13.98875 C11.436,13.93675 11.454,13.86775 11.507,13.83875 L17.269,10.51075 C17.322,10.48175 17.389,10.49875 17.421,10.55175 C17.452,10.60475 17.432,10.67075 17.381,10.70175 L11.617,14.03075 C11.6,14.03975 11.581,14.04375 11.562,14.04375" id="Fill-817"></path>
            <path d="M11.562,14.79775 C11.524,14.79775 11.487,14.77875 11.466,14.74275 C11.436,14.69075 11.454,14.62175 11.507,14.59275 L17.269,11.26475 C17.322,11.23575 17.389,11.25275 17.421,11.30575 C17.452,11.35875 17.432,11.42675 17.381,11.45575 L11.617,14.78375 C11.6,14.79375 11.581,14.79775 11.562,14.79775" id="Fill-818"></path>
            <path d="M11.562,15.55175 C11.524,15.55175 11.487,15.53175 11.466,15.49675 C11.436,15.44475 11.454,15.37775 11.507,15.34675 L17.269,12.02075 C17.322,11.98975 17.389,12.00675 17.421,12.05975 C17.452,12.11275 17.432,12.18075 17.381,12.20975 L11.617,15.53775 C11.6,15.54775 11.581,15.55175 11.562,15.55175" id="Fill-819"></path>
            <path d="M11.562,16.30775 C11.524,16.30775 11.487,16.28775 11.466,16.25275 C11.436,16.19975 11.454,16.13175 11.507,16.10075 L17.269,12.77475 C17.322,12.74275 17.389,12.76275 17.421,12.81575 C17.452,12.86775 17.432,12.93475 17.381,12.96575 L11.617,16.29175 C11.6,16.30375 11.581,16.30775 11.562,16.30775" id="Fill-820"></path>
            <path d="M11.562,17.06175 C11.524,17.06175 11.487,17.04175 11.466,17.00675 C11.436,16.95375 11.454,16.88575 11.507,16.85675 L17.27,13.52875 C17.323,13.49875 17.39,13.51675 17.421,13.56975 C17.452,13.62175 17.433,13.69075 17.381,13.71975 L11.617,17.04775 C11.6,17.05775 11.581,17.06175 11.562,17.06175" id="Fill-821"></path>
            <path d="M11.563,17.81575 C11.524,17.81575 11.487,17.79575 11.466,17.76075 C11.436,17.70775 11.455,17.64175 11.507,17.61075 L17.269,14.28175 C17.322,14.25275 17.389,14.27075 17.421,14.32275 C17.452,14.37575 17.432,14.44475 17.381,14.47375 L11.618,17.80175 C11.6,17.81175 11.582,17.81575 11.563,17.81575" id="Fill-822"></path>
            <path d="M11.562,18.57175 C11.524,18.57175 11.487,18.55175 11.466,18.51475 C11.436,18.46375 11.454,18.39575 11.507,18.36475 L17.269,15.03775 C17.322,15.00675 17.389,15.02475 17.421,15.07675 C17.452,15.12975 17.432,15.19775 17.381,15.22775 L11.617,18.55575 C11.6,18.56575 11.581,18.57175 11.562,18.57175" id="Fill-823"></path>
            <path d="M11.562,19.32475 C11.524,19.32475 11.487,19.30575 11.466,19.27075 C11.436,19.21775 11.454,19.14975 11.507,19.11975 L17.269,15.79175 C17.322,15.76275 17.389,15.78075 17.421,15.83275 C17.452,15.88575 17.432,15.95175 17.381,15.98375 L11.617,19.31175 C11.6,19.32175 11.581,19.32475 11.562,19.32475" id="Fill-824"></path>
            <path d="M12.453,12.83275 C12.433,12.83275 12.415,12.82675 12.397,12.81775 L6.633,9.49075 C6.582,9.45975 6.563,9.39375 6.593,9.34075 C6.625,9.28575 6.692,9.26875 6.745,9.29975 L12.508,12.62575 C12.56,12.65675 12.579,12.72575 12.549,12.77875 C12.528,12.81375 12.491,12.83275 12.453,12.83275" id="Fill-825"></path>
            <path d="M13.759,12.07675 C13.741,12.07675 13.721,12.07275 13.705,12.06375 L7.941,8.73575 C7.888,8.70575 7.87,8.63775 7.901,8.58475 C7.931,8.53175 7.999,8.51475 8.052,8.54575 L13.815,11.87175 C13.867,11.90375 13.885,11.96975 13.855,12.02275 C13.835,12.05775 13.798,12.07675 13.759,12.07675" id="Fill-826"></path>
            <path d="M15.066,11.32275 C15.048,11.32275 15.028,11.31975 15.011,11.30975 L9.248,7.98175 C9.195,7.94975 9.177,7.88375 9.208,7.83075 C9.238,7.77875 9.305,7.76075 9.358,7.78975 L15.122,11.11775 C15.174,11.14775 15.192,11.21575 15.162,11.26875 C15.141,11.30375 15.104,11.32275 15.066,11.32275" id="Fill-827"></path>
            <path d="M16.373,10.56975 C16.354,10.56975 16.336,10.56375 16.318,10.55375 L10.555,7.22775 C10.502,7.19675 10.484,7.12775 10.514,7.07675 C10.545,7.02275 10.613,7.00475 10.665,7.03575 L16.428,10.36275 C16.481,10.39375 16.499,10.46175 16.469,10.51475 C16.448,10.54975 16.411,10.56975 16.373,10.56975" id="Fill-828"></path>
            <path d="M5.692,11.55375 C5.673,11.55375 5.654,11.54975 5.636,11.53975 L0.166,8.37975 C0.112,8.35075 0.094,8.28175 0.126,8.22975 C0.155,8.17675 0.222,8.15875 0.276,8.18875 L5.747,11.34875 C5.8,11.37775 5.817,11.44675 5.786,11.49875 C5.766,11.53375 5.729,11.55375 5.692,11.55375" id="Fill-829"></path>
            <path d="M5.692,12.31975 C5.673,12.31975 5.654,12.31575 5.636,12.30575 L0.166,9.14775 C0.112,9.11575 0.094,9.04775 0.126,8.99475 C0.155,8.94275 0.222,8.92475 0.276,8.95575 L5.747,12.11375 C5.8,12.14375 5.817,12.21175 5.786,12.26475 C5.766,12.29975 5.729,12.31975 5.692,12.31975" id="Fill-830"></path>
            <path d="M5.692,13.08475 C5.673,13.08475 5.654,13.08075 5.636,13.07175 L0.166,9.91075 C0.112,9.88175 0.094,9.81375 0.126,9.76075 C0.155,9.70775 0.222,9.69075 0.276,9.72175 L5.747,12.87975 C5.8,12.91075 5.817,12.97775 5.786,13.03075 C5.766,13.06575 5.729,13.08475 5.692,13.08475" id="Fill-831"></path>
            <path d="M5.692,13.85075 C5.673,13.85075 5.654,13.84675 5.636,13.83675 L0.166,10.67675 C0.112,10.64775 0.094,10.57875 0.126,10.52675 C0.155,10.47375 0.222,10.45575 0.276,10.48775 L5.747,13.64575 C5.8,13.67475 5.817,13.74275 5.786,13.79575 C5.766,13.83075 5.729,13.85075 5.692,13.85075" id="Fill-832"></path>
            <path d="M5.772,14.66275 C5.753,14.66275 5.734,14.65875 5.716,14.64775 L0.166,11.44475 C0.112,11.41275 0.094,11.34675 0.126,11.29375 C0.155,11.23975 0.222,11.22175 0.276,11.25275 L5.827,14.45775 C5.88,14.48775 5.897,14.55575 5.867,14.60875 C5.846,14.64375 5.809,14.66275 5.772,14.66275" id="Fill-833"></path>
            <path d="M5.692,15.38175 C5.673,15.38175 5.654,15.37775 5.636,15.36775 L0.166,12.20975 C0.112,12.17875 0.094,12.11275 0.126,12.05975 C0.155,12.00675 0.222,11.98975 0.276,12.01875 L5.747,15.17675 C5.8,15.20775 5.817,15.27475 5.786,15.32675 C5.766,15.36275 5.729,15.38175 5.692,15.38175" id="Fill-834"></path>
            <path d="M5.692,16.14975 C5.673,16.14975 5.654,16.14375 5.636,16.13375 L0.166,12.97575 C0.112,12.94475 0.094,12.87775 0.126,12.82475 C0.155,12.77275 0.222,12.75475 0.276,12.78375 L5.747,15.94275 C5.8,15.97375 5.817,16.03975 5.786,16.09275 C5.766,16.12775 5.729,16.14975 5.692,16.14975" id="Fill-835"></path>
            <path d="M11.535,20.28775 C11.516,20.28775 11.497,20.28375 11.479,20.27275 L0.166,13.74075 C0.112,13.70975 0.094,13.64375 0.126,13.59075 C0.155,13.53775 0.222,13.51875 0.276,13.54975 L11.59,20.08275 C11.643,20.11275 11.661,20.18075 11.63,20.23375 C11.61,20.26875 11.573,20.28775 11.535,20.28775" id="Fill-836"></path>
            <path d="M11.535,21.05375 C11.516,21.05375 11.497,21.04975 11.479,21.03975 L0.166,14.50675 C0.112,14.47575 0.094,14.40875 0.126,14.35675 C0.155,14.30375 0.222,14.28575 0.276,14.31575 L11.59,20.84875 C11.643,20.87775 11.661,20.94675 11.63,20.99875 C11.61,21.03375 11.573,21.05375 11.535,21.05375" id="Fill-837"></path>
            <path d="M11.535,21.81975 C11.516,21.81975 11.497,21.81575 11.479,21.80575 L0.166,15.27275 C0.112,15.24075 0.094,15.17475 0.126,15.12175 C0.155,15.06975 0.222,15.05175 0.276,15.08075 L11.59,21.61375 C11.643,21.64375 11.661,21.71175 11.63,21.76475 C11.61,21.79975 11.573,21.81975 11.535,21.81975" id="Fill-838"></path>
            <path d="M11.535,22.58475 C11.516,22.58475 11.497,22.58075 11.479,22.57175 L0.166,16.03775 C0.112,16.00675 0.094,15.94075 0.126,15.88775 C0.155,15.83475 0.222,15.81775 0.276,15.84675 L11.59,22.37975 C11.643,22.40875 11.661,22.47775 11.63,22.53075 C11.61,22.56575 11.573,22.58475 11.535,22.58475" id="Fill-839"></path>
            <path d="M11.535,23.35075 C11.516,23.35075 11.497,23.34675 11.479,23.33675 L0.166,16.80375 C0.112,16.77275 0.094,16.70575 0.126,16.65375 C0.155,16.60075 0.222,16.58275 0.276,16.61275 L11.59,23.14575 C11.643,23.17475 11.661,23.24275 11.63,23.29575 C11.61,23.33075 11.573,23.35075 11.535,23.35075" id="Fill-840"></path>
            <path d="M11.535,24.11575 C11.516,24.11575 11.497,24.11275 11.479,24.10275 L0.166,17.56975 C0.112,17.53975 0.094,17.47175 0.126,17.41875 C0.155,17.36575 0.222,17.34875 0.276,17.37775 L11.59,23.91075 C11.643,23.94075 11.661,24.00875 11.63,24.06175 C11.61,24.09675 11.573,24.11575 11.535,24.11575" id="Fill-841"></path>
            <path d="M11.535,24.88175 C11.516,24.88175 11.497,24.87775 11.479,24.86775 L0.166,18.33475 C0.112,18.30575 0.094,18.23775 0.126,18.18475 C0.155,18.13175 0.222,18.11375 0.276,18.14375 L11.59,24.67675 C11.643,24.70775 11.661,24.77475 11.63,24.82675 C11.61,24.86275 11.573,24.88175 11.535,24.88175" id="Fill-842"></path>
            <path d="M11.535,25.64775 C11.516,25.64775 11.497,25.64375 11.479,25.63375 L0.166,19.10075 C0.112,19.07175 0.094,19.00275 0.126,18.94975 C0.155,18.89775 0.222,18.87975 0.276,18.91075 L11.59,25.44275 C11.643,25.47375 11.661,25.53975 11.63,25.59275 C11.61,25.62775 11.573,25.64775 11.535,25.64775" id="Fill-843"></path>
            <path d="M11.535,13.39575 C11.497,13.39575 11.46,13.37575 11.439,13.34075 C11.409,13.28775 11.427,13.21975 11.479,13.19075 L22.795,6.65675 C22.846,6.62775 22.915,6.64575 22.945,6.69775 C22.975,6.75075 22.958,6.81975 22.904,6.84875 L11.59,13.38175 C11.573,13.39175 11.553,13.39575 11.535,13.39575" id="Fill-844"></path>
            <path d="M12.488,25.91275 C12.428,25.91275 12.378,25.86475 12.378,25.80175 L12.378,19.48175 C12.378,19.42075 12.428,19.37175 12.488,19.37175 C12.549,19.37175 12.598,19.42075 12.598,19.48175 L12.598,25.80175 C12.598,25.86475 12.549,25.91275 12.488,25.91275" id="Fill-845"></path>
            <path d="M13.505,25.32475 C13.443,25.32475 13.394,25.27675 13.394,25.21575 L13.394,18.89575 C13.394,18.83475 13.443,18.78375 13.505,18.78375 C13.565,18.78375 13.615,18.83475 13.615,18.89575 L13.615,25.21575 C13.615,25.27675 13.565,25.32475 13.505,25.32475" id="Fill-846"></path>
            <path d="M14.52,24.73975 C14.46,24.73975 14.41,24.69075 14.41,24.62975 L14.41,18.34475 C14.41,18.28375 14.46,18.23575 14.52,18.23575 C14.582,18.23575 14.631,18.28375 14.631,18.34475 L14.631,24.62975 C14.631,24.69075 14.582,24.73975 14.52,24.73975" id="Fill-847"></path>
            <path d="M15.536,24.15375 C15.475,24.15375 15.426,24.10475 15.426,24.04175 L15.426,17.72175 C15.426,17.66075 15.475,17.61275 15.536,17.61275 C15.597,17.61275 15.646,17.66075 15.646,17.72175 L15.646,24.04175 C15.646,24.10475 15.597,24.15375 15.536,24.15375" id="Fill-848"></path>
            <path d="M16.551,23.56775 C16.491,23.56775 16.442,23.51675 16.442,23.45575 L16.442,17.13575 C16.442,17.07475 16.491,17.02475 16.551,17.02475 C16.612,17.02475 16.663,17.07475 16.663,17.13575 L16.663,23.45575 C16.663,23.51675 16.612,23.56775 16.551,23.56775" id="Fill-849"></path>
            <path d="M17.568,22.97975 C17.508,22.97975 17.458,22.93075 17.458,22.86975 L17.458,9.80575 C17.458,9.74275 17.507,9.69475 17.568,9.69475 C17.629,9.69475 17.678,9.74275 17.678,9.80575 L17.678,22.86975 C17.678,22.93075 17.63,22.97975 17.568,22.97975" id="Fill-850"></path>
            <path d="M18.584,22.39375 C18.523,22.39375 18.473,22.34475 18.473,22.28175 L18.473,9.21775 C18.473,9.15675 18.523,9.10875 18.584,9.10875 C18.645,9.10875 18.694,9.15675 18.694,9.21775 L18.694,22.28175 C18.694,22.34475 18.645,22.39375 18.584,22.39375" id="Fill-851"></path>
            <path d="M19.6,21.80775 C19.54,21.80775 19.49,21.75675 19.49,21.69675 L19.49,8.63175 C19.49,8.57175 19.54,8.52075 19.6,8.52075 C19.661,8.52075 19.71,8.57175 19.71,8.63175 L19.71,21.69675 C19.71,21.75675 19.661,21.80775 19.6,21.80775" id="Fill-852"></path>
            <path d="M20.616,21.21975 C20.554,21.21975 20.506,21.17075 20.506,21.11075 L20.506,8.04575 C20.506,7.98375 20.554,7.93475 20.616,7.93475 C20.676,7.93475 20.726,7.98375 20.726,8.04575 L20.726,21.11075 C20.726,21.17075 20.676,21.21975 20.616,21.21975" id="Fill-853"></path>
            <path d="M21.633,20.63375 C21.571,20.63375 21.522,20.58475 21.522,20.52475 L21.522,7.45775 C21.522,7.39775 21.571,7.34875 21.633,7.34875 C21.693,7.34875 21.743,7.39775 21.743,7.45775 L21.743,20.52475 C21.743,20.58475 21.693,20.63375 21.633,20.63375" id="Fill-854"></path>
        </g>
    </g>
</svg>