<?xml version="1.0" encoding="UTF-8"?>
<svg width="16px" height="16px" viewBox="0 0 16 16" version="1.1" xmlns="http://www.w3.org/2000/svg" xmlns:xlink="http://www.w3.org/1999/xlink">
    <!-- Generator: Sketch 47.1 (45422) - http://www.bohemiancoding.com/sketch -->
    <title>icon-launch</title>
    <desc>Created with Sketch.</desc>
    <defs></defs>
    <g id="Get-Started" stroke="none" stroke-width="1" fill="none" fill-rule="evenodd">
        <g id="Site-Publish" transform="translate(-923.000000, -434.000000)" fill-rule="nonzero" fill="#45CADD">
            <g id="Group-21" transform="translate(475.000000, 240.000000)">
                <g id="Group-20" transform="translate(95.000000, 194.000000)">
                    <g id="Group-19" transform="translate(92.000000, 0.000000)">
                        <g id="Group-17">
                            <g id="icon-launch" transform="translate(261.000000, 0.000000)">
                                <path d="M15.2856765,0 L9.57139514,0 C9.17691201,0 8.8571023,0.319810446 8.8571023,0.714294483 C8.8571023,1.10877852 9.17691201,1.42858897 9.57139514,1.42858897 L13.5612515,1.42858897 L6.20921908,8.78066896 C5.93026031,9.05962838 5.93026031,9.51184404 6.20921908,9.79080345 C6.34865243,9.93026782 6.53145345,10 6.71425447,10 C6.89705549,10 7.07988721,9.93029851 7.21935125,9.79077276 L14.5714143,2.43872346 L14.5714143,6.42858897 C14.5714143,6.823073 14.891224,7.14288345 15.2857072,7.14288345 C15.6801903,7.14288345 16,6.823073 16,6.42858897 L16,0.714294483 C15.9999693,0.319810446 15.6801596,0 15.2856765,0 Z" id="Shape"></path>
                                <path d="M12.2777398,7.33332299 C11.8788737,7.33332299 11.5555107,7.65668677 11.5555107,8.05555383 L11.5555107,14.5555693 L1.4444272,14.5555693 L1.4444272,4.44443065 L7.9444272,4.44443065 C8.34329331,4.44443065 8.66665632,4.12106687 8.66665632,3.72219981 C8.66665632,3.32333275 8.34329331,3 7.9444272,3 L0.722229118,3 C0.323363014,3 0,3.32336379 0,3.72223084 L0,15.2778002 C0,15.6766362 0.323363014,16 0.722229118,16 L12.2777709,16 C12.676637,16 13,15.6766362 13,15.2777692 L13,8.05555383 C12.999969,7.65668677 12.676606,7.33332299 12.2777398,7.33332299 Z" id="Shape"></path>
                            </g>
                        </g>
                    </g>
                </g>
            </g>
        </g>
    </g>
</svg>