<?xml version="1.0" encoding="UTF-8"?>
<svg width="62px" height="62px" viewBox="0 0 62 62" version="1.1" xmlns="http://www.w3.org/2000/svg" xmlns:xlink="http://www.w3.org/1999/xlink">
    <!-- Generator: Sketch 47.1 (45422) - http://www.bohemiancoding.com/sketch -->
    <title>icon-user-1</title>
    <desc>Created with Sketch.</desc>
    <defs></defs>
    <g id="Page-1" stroke="none" stroke-width="1" fill="none" fill-rule="evenodd">
        <g id="Artboard" transform="translate(-184.000000, -20.000000)" fill-rule="nonzero" fill="#556980">
            <g id="icon-user-1" transform="translate(184.000000, 20.000000)">
                <path d="M0,30.9745902 C0,48.05 13.8991803,61.9491803 30.9745902,61.9491803 C48.05,61.9491803 61.9491803,48.05 61.9491803,30.9745902 C61.9491803,13.8991803 48.05,0 30.9745902,0 C13.8991803,0 0,13.8991803 0,30.9745902 Z M12.9463115,52.1918033 C17.520082,49.1045082 21.4459016,47.122541 22.6020492,46.5508197 C23.3008197,46.2077869 23.7454918,45.5090164 23.7454918,44.7213115 L23.7454918,40.8336066 C23.7454918,40.5540984 23.6692623,40.2872951 23.5295082,40.0459016 C22.7418033,38.7118852 22.1954918,37.1110656 21.9159836,35.2942623 C21.8270492,34.6844262 21.3696721,34.1889344 20.7979508,34.0364754 C20.6454918,33.8459016 20.2135246,33.1852459 19.6672131,31.2668033 C19.2352459,29.7422131 19.2352459,28.992623 19.2733607,28.6877049 C19.7434426,28.6877049 20.2008197,28.4717213 20.4930328,28.0905738 C20.8233607,27.6713115 20.9122951,27.1122951 20.7344262,26.6168033 C20.1245902,24.8889344 20.0483607,23.1229508 20.5184426,21.3188525 C20.925,19.5909836 21.852459,17.9647541 23.2881148,16.4909836 C24.0631148,15.6651639 24.952459,14.9282787 25.9053279,14.3311475 C25.9180328,14.3184426 25.9434426,14.3057377 25.9561475,14.2930328 C26.7565574,13.7340164 27.582377,13.3147541 28.4081967,13.0352459 L28.4209016,13.0352459 C29.1196721,12.7938525 29.8438525,12.6668033 30.6188525,12.6286885 C32.702459,12.4508197 34.570082,12.8319672 36.2090164,13.8102459 C38.0131148,14.8012295 38.7372951,16.0971311 38.7372951,16.0971311 C38.9913934,16.579918 39.4741803,16.897541 40.0077869,16.9356557 C40.0204918,16.9356557 40.7065574,17.0627049 41.3290984,17.8758197 C42.0659836,18.8540984 43.1077869,21.395082 41.8372951,27.5315574 C41.697541,28.2303279 42.0405738,28.9290984 42.6631148,29.2340164 C42.7139344,29.4754098 42.777459,30.2122951 42.2946721,31.927459 C41.8627049,33.4520492 41.5069672,34.1762295 41.2909836,34.5065574 C41.0241803,34.4684426 40.7319672,34.5065574 40.4778689,34.6081967 C39.995082,34.8114754 39.6393443,35.2561475 39.5504098,35.7643443 C39.2963115,37.2 38.902459,38.4831967 38.3688525,39.5758197 C38.2672131,39.7918033 38.2163934,40.0204918 38.2163934,40.2491803 L38.2163934,44.7467213 C38.2163934,45.5344262 38.6483607,46.2331967 39.3598361,46.5762295 C40.5286885,47.1479508 44.4545082,49.142623 49.0155738,52.2172131 C44.1495902,56.3590164 37.8606557,58.8618852 30.9872951,58.8618852 C24.1012295,58.8364754 17.8122951,56.3336066 12.9463115,52.1918033 Z M30.9745902,3.11270492 C46.3348361,3.11270492 58.8364754,15.6143443 58.8364754,30.9745902 C58.8364754,38.3180328 55.9778689,45.0135246 51.3151639,49.9938525 C46.957377,47.0081967 43.082377,44.9372951 41.3290984,44.0606557 L41.3290984,40.5795082 C41.7483607,39.6647541 42.0913934,38.6483607 42.3454918,37.5684426 C43.5905738,37.0983607 44.4672131,35.65 45.2930328,32.7405738 C46.042623,30.0852459 45.9790984,28.217623 45.0897541,27.1504098 C46.0172131,22.0557377 45.5979508,18.295082 43.8319672,15.970082 C42.9172131,14.7504098 41.85,14.2168033 41.1131148,13.9881148 C40.5922131,13.2512295 39.5377049,12.0569672 37.7844262,11.0913934 C35.6118852,9.80819672 33.1217213,9.27459016 30.4409836,9.50327869 C29.4245902,9.55409836 28.4209016,9.74467213 27.442623,10.075 L27.429918,10.075 C26.3372951,10.4434426 25.270082,10.9897541 24.2409836,11.7012295 C23.0721311,12.4508197 21.9922131,13.3401639 21.0647541,14.3184426 C19.2352459,16.1860656 18.0409836,18.295082 17.520082,20.5438525 C17.0372951,22.3987705 16.9864754,24.2536885 17.3803279,26.0831967 C17.2151639,26.2102459 17.05,26.35 16.9102459,26.5278689 C15.9954918,27.6331967 15.9192623,29.3991803 16.6815574,32.1053279 C17.1897541,33.8967213 17.8504098,35.7389344 18.9938525,36.5901639 C19.3368852,38.3053279 19.8831967,39.8680328 20.6327869,41.2401639 L20.6327869,44.0606557 C18.8922131,44.9372951 15.0045082,47.0081967 10.6467213,49.9938525 C5.98401639,45.0135246 3.11270492,38.3180328 3.11270492,30.9745902 C3.11270492,15.6143443 15.6143443,3.11270492 30.9745902,3.11270492 Z" id="Shape"></path>
            </g>
        </g>
    </g>
</svg>