<?xml version="1.0" encoding="UTF-8"?>
<svg width="252px" height="252px" viewBox="0 0 252 252" version="1.1" xmlns="http://www.w3.org/2000/svg" xmlns:xlink="http://www.w3.org/1999/xlink">
    <title>java-outline-icon-lite</title>
    <defs>
        <linearGradient x1="50%" y1="0%" x2="50%" y2="100%" id="linearGradient-1">
            <stop stop-color="#FF8A9D" offset="0%"></stop>
            <stop stop-color="#FF5264" offset="100%"></stop>
        </linearGradient>
    </defs>
    <g id="Page-1" stroke="none" stroke-width="1" fill="none" fill-rule="evenodd">
        <path d="M125.700408,0.914527128 C195.012144,0.914527128 251.200408,57.102791 251.200408,126.414527 C251.200408,195.726263 195.012144,251.914527 125.700408,251.914527 C56.388672,251.914527 0.200408115,195.726263 0.200408115,126.414527 C0.200408115,57.102791 56.388672,0.914527128 125.700408,0.914527128 Z M200.272408,187.350527 C200.160814,187.593955 197.157116,193.587492 169.815162,198.401578 C138.682067,203.852564 100.345119,203.289088 77.2780153,199.849718 L76.5644081,199.740527 C76.7586312,199.849094 81.7632274,203.380153 105.501371,204.802496 C141.986357,206.976203 197.824213,203.642326 200.217197,187.831764 L200.272408,187.350527 Z M59.6383243,192.075089 C141.275667,204.43035 208.491373,186.530108 187.306594,177.635809 C187.306594,177.635809 193.10243,182.064351 180.95116,185.525312 C157.807789,192.037874 84.7003171,194.01025 64.3949066,185.785815 C59.8597652,183.963042 63.4065927,181.682499 67.7858939,180.008501 L68.2120526,179.84843 L68.2120526,179.84843 L68.6419489,179.692361 L68.6419489,179.692361 L69.0741225,179.540508 C69.3626729,179.440725 69.6517683,179.343895 69.9394617,179.250305 L70.3697071,179.112384 C70.4411584,179.089814 70.5124611,179.067456 70.583585,179.045313 L71.0079386,178.915083 C72.6245336,178.426069 74.1143232,178.055962 75.1072098,177.859096 C79.5839932,176.965945 82.1821264,177.114804 82.1821264,177.114804 C74.0679565,171.79311 29.6998352,187.572118 59.6383243,192.075089 Z M97.9467994,162.228948 C66.4894017,170.416168 117.093043,187.311615 157.144266,171.346534 C153.23814,169.933661 149.467395,168.215662 145.872365,166.210914 C128.005202,169.374158 119.731147,169.597446 103.502807,167.885573 C90.1124285,166.471417 97.9467994,162.228948 97.9467994,162.228948 Z M93.0703032,141.351534 C58.3752318,152.069351 112.33646,164.201323 160.821624,150.990126 C157.687996,149.959945 154.816697,148.33824 152.387683,146.226652 C128.724685,150.469121 115.014536,150.357477 97.7069717,148.682818 C84.3165928,147.380306 93.0703032,141.351534 93.0703032,141.351534 Z M175.571026,119.208823 C174.247669,119.66157 173.104204,120.479499 172.293381,121.553346 C173.724189,121.071209 175.194617,120.697841 176.690222,120.436906 C189.081319,118.017955 206.868539,135.880982 168.456138,154.451088 C168.237702,154.805675 167.968793,155.131148 167.656712,155.418668 C218.939865,142.877335 200.073421,111.170461 175.571026,119.208823 Z M100.507448,119.700295 L100.217314,119.699977 C96.0996306,119.710171 83.8948958,120.349824 69.4872478,126.80061 C48.5023255,136.253129 129.760881,142.653195 167.533741,133.386749 C171.450927,130.893368 168.576052,126.651751 168.576052,126.651751 C168.576052,126.651751 154.615383,129.002786 140.025221,130.258911 L139.103024,130.336757 C138.641632,130.37492 138.179892,130.411919 137.718223,130.447645 C134.318999,130.709698 130.874167,130.934141 127.451252,131.118566 L125.873247,131.200835 C110.901658,131.955225 96.5511355,131.933129 88.5135772,130.931435 C64.4908377,127.954264 101.7041,119.729828 101.7041,119.729828 C101.7041,119.729828 101.287083,119.704016 100.507448,119.700295 Z M170.894403,53.7854854 C170.934357,53.7854854 100.864703,70.0854979 134.320665,105.960411 C144.193571,116.529369 131.722531,126.056317 131.722531,126.056317 C131.722531,126.056317 131.745087,126.045465 131.788535,126.024006 L131.902792,125.967016 C134.137296,124.843027 156.208938,113.245177 145.272795,98.9268442 C134.520521,84.8597101 126.286437,77.8633578 170.894403,53.7854854 Z M145.272795,14.8589716 C150.772844,34.9846491 136.855419,46.1321309 122.444208,56.6717172 L120.416326,58.1507015 C112.983116,63.5652733 105.654461,68.9225404 101.024588,75.3699768 C91.471452,88.7300327 105.701228,103.057669 125.087299,119.357682 C117.492756,103.46703 91.8711648,89.5115402 125.087299,65.0987361 C166.521528,34.6571603 145.272795,14.8589716 145.272795,14.8589716 Z" id="java-outline-icon-lite" fill="url(#linearGradient-1)"></path>
    </g>
</svg>