<?xml version="1.0" encoding="UTF-8"?>
<svg width="200px" height="271px" viewBox="0 0 200 271" version="1.1" xmlns="http://www.w3.org/2000/svg" xmlns:xlink="http://www.w3.org/1999/xlink">
    <!-- Generator: Sketch 52.6 (67491) - http://www.bohemiancoding.com/sketch -->
    <title>fig-Group 4</title>
    <desc>Created with Sketch.</desc>
    <g id="Page-1" stroke="none" stroke-width="1" fill="none" fill-rule="evenodd">
        <g id="Group-4" fill="#FFFFFF">
            <path d="M64.4216788,209.605441 C64.4216788,209.605441 54.0709049,215.624776 71.7879722,217.66164 C93.2517014,220.110257 104.221565,219.759099 127.874741,215.282378 C127.874741,215.282378 134.093382,219.181622 142.778161,222.558874 C89.7539896,245.284145 22.7740136,221.242578 64.4216788,209.605441 Z M57.9424068,179.950452 C57.9424068,179.950452 46.3330115,188.543974 64.0632199,190.377882 C86.991447,192.743272 105.098366,192.936738 136.4303,186.903532 C136.4303,186.903532 140.764659,191.297026 147.579028,193.699649 C83.4689132,212.4461 12.0625907,195.178019 57.9424068,179.950452 Z M182.693397,231.540058 C210.736416,244.189057 121.771449,269.616275 13.6614195,252.083913 C-25.9807741,245.657205 32.7415066,223.219578 43.4894325,230.791018 C43.4894325,230.791018 40.0917387,230.550828 34.1461398,231.840112 C28.4451105,233.064421 10.3214004,238.899051 19.985919,243.10419 C46.8710649,254.805572 143.651312,252.005797 174.257567,242.73405 C190.353174,237.852146 182.693397,231.540058 182.693397,231.540058 Z M69.3992198,149.224467 C69.3992198,149.224467 20.1706239,160.917088 51.9661453,165.163111 C65.3911969,166.960515 92.1536929,166.553873 117.081551,164.465174 C137.454572,162.746616 157.91228,159.093402 157.91228,159.093402 C157.91228,159.093402 150.728502,162.169869 145.531213,165.717955 C95.5404357,178.866314 -1.03247427,172.749152 26.7696255,159.300738 C50.2818997,147.935183 69.3992198,149.224467 69.3992198,149.224467 Z M157.709324,198.586663 C208.527258,172.179706 185.031775,146.802131 168.631004,150.221727 C164.6113,151.058374 162.819006,151.783323 162.819006,151.783323 C162.819006,151.783323 164.311976,149.445674 167.160666,148.433813 C199.605209,137.027374 224.557159,182.075653 156.687242,199.91829 C156.687242,199.91829 157.474975,199.215974 157.709324,198.586663 Z M74.3928221,270.143378 C42.3337494,268.087532 36.0997771,262.926746 36.098317,262.928207 C66.5541806,267.949551 117.904327,268.863585 159.537391,261.029324 C196.441134,254.079894 199.850509,245.330869 199.850509,245.330869 C198.077196,268.410948 123.171702,273.265839 74.3928221,270.143378 Z" id="Combined-Shape" fill-rule="nonzero"></path>
            <path d="M112.564677,129.645749 C125.62981,144.687881 109.132671,158.224632 109.132671,158.224632 C109.132671,158.224632 142.305813,141.098912 127.070946,119.653434 C112.84137,99.653473 101.92918,89.7173726 161.003349,55.4564425 C161.00408,55.4557124 68.2763893,78.6146381 112.564677,129.645749" id="Path" fill-opacity="0.798658288"></path>
            <path d="M127.070946,0.133315584 C127.070946,0.133315584 155.214713,28.2858436 100.377805,71.5783313 C56.4041729,106.305039 90.3504476,126.105694 100.359554,148.729487 C74.6921462,125.569831 55.8551687,105.183669 68.4924867,86.20944 C87.040361,58.3569661 138.426281,44.8530682 127.070946,0.133315584" id="Path" fill-opacity="0.798658288"></path>
        </g>
    </g>
</svg>