<?xml version="1.0" encoding="UTF-8"?>
<svg width="150px" height="30px" viewBox="0 0 150 30" version="1.1" xmlns="http://www.w3.org/2000/svg" xmlns:xlink="http://www.w3.org/1999/xlink">
    <title>mini-logo-visualstudio</title>
    <g id="Page-1" stroke="none" stroke-width="1" fill="none" fill-rule="evenodd">
        <g id="Artboard" transform="translate(-111.000000, -104.000000)" fill="#FFFFFF" fill-rule="nonzero">
            <path d="M133.370488,104.377628 L140.351413,107.100362 L140.354078,130.854688 L133.378601,133.566817 L121.163342,122.031653 L113.831474,127.461994 L111.054348,126.10647 L111.057138,111.853874 L113.847329,110.488536 L121.185203,115.923397 L133.370488,104.377628 Z M234.506,113.777098 L234.506,124.925098 L232.814,124.925098 L232.814,113.777098 L234.506,113.777098 Z M132.675662,113.884659 L125.702912,118.956316 L132.678389,124.067738 L132.675662,113.884659 Z M171.374,116.825098 L171.374,120.497098 L171.380375,120.689567 C171.410125,121.125754 171.544,121.471598 171.782,121.727098 C172.054,122.019098 172.422,122.165098 172.886,122.165098 C173.374,122.165098 173.762,122.009098 174.05,121.697098 C174.338,121.385098 174.482,120.937098 174.482,120.353098 L174.482,120.353098 L174.482,116.825098 L176.174,116.825098 L176.174,123.473098 L174.482,123.473098 L174.481348,122.129628 L174.399592,122.315098 C174.250612,122.615098 174.043469,122.865098 173.778163,123.065098 L173.612,123.179098 C173.208,123.431098 172.742,123.557098 172.214,123.557098 C171.446,123.557098 170.834,123.305098 170.378,122.801098 C169.922,122.297098 169.694,121.593098 169.694,120.689098 L169.694,120.689098 L169.694,116.825098 L171.374,116.825098 Z M180.314,116.741098 C180.874,116.741098 181.354,116.873098 181.754,117.137098 C182.154,117.401098 182.438,117.757098 182.606,118.205098 L182.606,118.205098 L182.606,116.825098 L184.286,116.825098 L184.286,123.473098 L182.606,123.473098 L182.606,122.081098 L182.526898,122.267588 C182.35449,122.629547 182.096857,122.925384 181.754,123.155098 C181.354,123.423098 180.874,123.557098 180.314,123.557098 C179.754,123.557098 179.25,123.421098 178.802,123.149098 C178.354,122.877098 178.004,122.483098 177.752,121.967098 C177.5,121.451098 177.374,120.845098 177.374,120.149098 C177.374,119.453098 177.5,118.847098 177.752,118.331098 C178.004,117.815098 178.354,117.421098 178.802,117.149098 C179.25,116.877098 179.754,116.741098 180.314,116.741098 Z M165.614,116.741098 C166.422,116.741098 167.07,116.945098 167.558,117.353098 C168.046,117.761098 168.35,118.305098 168.47,118.985098 L168.47,118.985098 L166.886,118.985098 L166.847333,118.830431 C166.771778,118.581542 166.640667,118.377098 166.454,118.217098 C166.23,118.025098 165.938,117.929098 165.578,117.929098 C165.29,117.929098 165.066,117.997098 164.906,118.133098 C164.746,118.269098 164.666,118.453098 164.666,118.685098 C164.666,118.869098 164.73,119.017098 164.858,119.129098 C164.986,119.241098 165.146,119.329098 165.338,119.393098 C165.53,119.457098 165.806,119.533098 166.166,119.621098 C166.67,119.733098 167.08,119.851098 167.396,119.975098 C167.712,120.099098 167.984,120.295098 168.212,120.563098 C168.44,120.831098 168.554,121.193098 168.554,121.649098 C168.554,122.217098 168.332,122.677098 167.888,123.029098 C167.444,123.381098 166.846,123.557098 166.094,123.557098 C165.23,123.557098 164.538,123.363098 164.018,122.975098 C163.498,122.587098 163.182,122.033098 163.07,121.313098 L163.07,121.313098 L164.69,121.313098 L164.71351,121.449384 C164.773265,121.713384 164.909429,121.925955 165.122,122.087098 C165.37,122.275098 165.694,122.369098 166.094,122.369098 C166.382,122.369098 166.602,122.299098 166.754,122.159098 C166.906,122.019098 166.982,121.837098 166.982,121.613098 C166.982,121.421098 166.916,121.265098 166.784,121.145098 C166.652,121.025098 166.488,120.933098 166.292,120.869098 C166.096,120.805098 165.818,120.729098 165.458,120.641098 C164.962,120.529098 164.56,120.415098 164.252,120.299098 C163.944,120.183098 163.68,119.997098 163.46,119.741098 C163.24,119.485098 163.13,119.133098 163.13,118.685098 C163.13,118.109098 163.35,117.641098 163.79,117.281098 C164.23,116.921098 164.838,116.741098 165.614,116.741098 Z M252.674,116.741098 C253.33,116.741098 253.904,116.877098 254.396,117.149098 C254.888,117.421098 255.268,117.795098 255.536,118.271098 C255.804,118.747098 255.938,119.289098 255.938,119.897098 C255.938,120.065098 255.918,120.257098 255.878,120.473098 L255.878,120.473098 L251.006,120.473098 L251.019037,120.664653 C251.067235,121.160061 251.222889,121.532209 251.486,121.781098 C251.782,122.061098 252.15,122.201098 252.59,122.201098 C252.982,122.201098 253.308,122.105098 253.568,121.913098 C253.828,121.721098 253.994,121.461098 254.066,121.133098 L254.066,121.133098 L255.854,121.133098 L255.801667,121.361098 C255.700556,121.734431 255.53,122.074431 255.29,122.381098 C255.002,122.749098 254.632,123.037098 254.18,123.245098 C253.728,123.453098 253.226,123.557098 252.674,123.557098 C252.026,123.557098 251.45,123.419098 250.946,123.143098 C250.442,122.867098 250.05,122.473098 249.77,121.961098 C249.49,121.449098 249.35,120.845098 249.35,120.149098 C249.35,119.453098 249.49,118.847098 249.77,118.331098 C250.05,117.815098 250.442,117.421098 250.946,117.149098 C251.45,116.877098 252.026,116.741098 252.674,116.741098 Z M225.806,116.741098 C226.454,116.741098 227.036,116.877098 227.552,117.149098 C228.068,117.421098 228.474,117.815098 228.77,118.331098 C229.066,118.847098 229.214,119.453098 229.214,120.149098 C229.214,120.845098 229.066,121.449098 228.77,121.961098 C228.474,122.473098 228.068,122.867098 227.552,123.143098 C227.036,123.419098 226.454,123.557098 225.806,123.557098 C225.158,123.557098 224.576,123.419098 224.06,123.143098 C223.544,122.867098 223.138,122.473098 222.842,121.961098 C222.546,121.449098 222.398,120.845098 222.398,120.149098 C222.398,119.453098 222.546,118.847098 222.842,118.331098 C223.138,117.815098 223.544,117.421098 224.06,117.149098 C224.576,116.877098 225.158,116.741098 225.806,116.741098 Z M194.27,114.881098 C195.166,114.881098 195.88,115.097098 196.412,115.529098 C196.944,115.961098 197.246,116.537098 197.318,117.257098 L197.318,117.257098 L195.494,117.257098 L195.463333,117.109598 C195.401111,116.871265 195.283333,116.670431 195.11,116.507098 C194.902,116.311098 194.618,116.213098 194.258,116.213098 C193.946,116.213098 193.694,116.295098 193.502,116.459098 C193.31,116.623098 193.214,116.861098 193.214,117.173098 C193.214,117.421098 193.288,117.627098 193.436,117.791098 C193.584,117.955098 193.772,118.089098 194,118.193098 C194.228,118.297098 194.538,118.413098 194.93,118.541098 C195.474,118.733098 195.916,118.913098 196.256,119.081098 C196.596,119.249098 196.886,119.501098 197.126,119.837098 C197.366,120.173098 197.486,120.613098 197.486,121.157098 C197.486,121.589098 197.378,121.987098 197.162,122.351098 C196.946,122.715098 196.626,123.007098 196.202,123.227098 C195.778,123.447098 195.262,123.557098 194.654,123.557098 C194.054,123.557098 193.518,123.455098 193.046,123.251098 C192.574,123.047098 192.196,122.753098 191.912,122.369098 C191.628,121.985098 191.466,121.537098 191.426,121.025098 L191.426,121.025098 L193.226,121.025098 L193.254167,121.192265 C193.314722,121.46282 193.443333,121.693098 193.64,121.883098 C193.876,122.111098 194.19,122.225098 194.582,122.225098 C194.934,122.225098 195.204,122.131098 195.392,121.943098 C195.58,121.755098 195.674,121.513098 195.674,121.217098 C195.674,120.953098 195.598,120.735098 195.446,120.563098 C195.294,120.391098 195.102,120.253098 194.87,120.149098 C194.638,120.045098 194.318,119.925098 193.91,119.789098 C193.382,119.613098 192.95,119.439098 192.614,119.267098 C192.278,119.095098 191.992,118.845098 191.756,118.517098 C191.52,118.189098 191.402,117.761098 191.402,117.233098 C191.402,116.505098 191.664,115.931098 192.188,115.511098 C192.712,115.091098 193.406,114.881098 194.27,114.881098 Z M217.97,114.593098 L217.97,123.473098 L216.29,123.473098 L216.29,122.081098 L216.207837,122.267588 C216.030041,122.629547 215.771429,122.925384 215.432,123.155098 C215.036,123.423098 214.558,123.557098 213.998,123.557098 C213.438,123.557098 212.934,123.421098 212.486,123.149098 C212.038,122.877098 211.688,122.483098 211.436,121.967098 C211.184,121.451098 211.058,120.845098 211.058,120.149098 C211.058,119.453098 211.184,118.847098 211.436,118.331098 C211.688,117.815098 212.038,117.421098 212.486,117.149098 C212.934,116.877098 213.438,116.741098 213.998,116.741098 C214.558,116.741098 215.036,116.873098 215.432,117.137098 C215.828,117.401098 216.114,117.757098 216.29,118.205098 L216.29,118.205098 L216.29,114.593098 L217.97,114.593098 Z M205.058,116.825098 L205.058,120.497098 L205.064375,120.689567 C205.094125,121.125754 205.228,121.471598 205.466,121.727098 C205.738,122.019098 206.106,122.165098 206.57,122.165098 C207.058,122.165098 207.446,122.009098 207.734,121.697098 C208.022,121.385098 208.166,120.937098 208.166,120.353098 L208.166,120.353098 L208.166,116.825098 L209.858,116.825098 L209.858,123.473098 L208.166,123.473098 L208.165348,122.129628 L208.083592,122.315098 C207.934612,122.615098 207.727469,122.865098 207.462163,123.065098 L207.296,123.179098 C206.892,123.431098 206.426,123.557098 205.898,123.557098 C205.13,123.557098 204.518,123.305098 204.062,122.801098 C203.606,122.297098 203.378,121.593098 203.378,120.689098 L203.378,120.689098 L203.378,116.825098 L205.058,116.825098 Z M187.514,114.593098 L187.514,123.473098 L185.822,123.473098 L185.822,114.593098 L187.514,114.593098 Z M242.666,115.001098 L246.458,120.809098 L246.458,115.001098 L248.15,115.001098 L248.15,123.473098 L246.458,123.473098 L242.666,117.713098 L242.666,123.473098 L240.974,123.473098 L240.974,115.001098 L242.666,115.001098 Z M239.846,121.709098 L239.846,123.473098 L238.022,123.473098 L238.022,121.709098 L239.846,121.709098 Z M152.822,115.001098 L155.09,121.709098 L157.37,115.001098 L159.182,115.001098 L156.182,123.473098 L154.01,123.473098 L151.01,115.001098 L152.822,115.001098 Z M221.198,116.825098 L221.198,123.473098 L219.506,123.473098 L219.506,116.825098 L221.198,116.825098 Z M161.786,116.825098 L161.786,123.473098 L160.094,123.473098 L160.094,116.825098 L161.786,116.825098 Z M200.786,115.181098 L200.786,116.825098 L202.274,116.825098 L202.274,118.253098 L200.786,118.253098 L200.786,121.157098 L200.789918,121.288363 C200.805592,121.539139 200.868286,121.719384 200.978,121.829098 C201.106,121.957098 201.322,122.021098 201.626,122.021098 L201.626,122.021098 L202.286,122.021098 L202.286,123.473098 L201.398,123.473098 L201.18002,123.467698 C200.54174,123.435298 200.0444,123.257098 199.688,122.933098 C199.292,122.573098 199.094,121.973098 199.094,121.133098 L199.094,121.133098 L199.094,118.253098 L198.17,118.253098 L198.17,116.825098 L199.094,116.825098 L199.094,115.181098 L200.786,115.181098 Z M259.19,115.181098 L259.19,116.825098 L260.678,116.825098 L260.678,118.253098 L259.19,118.253098 L259.19,121.157098 L259.193918,121.288363 C259.209592,121.539139 259.272286,121.719384 259.382,121.829098 C259.51,121.957098 259.726,122.021098 260.03,122.021098 L260.03,122.021098 L260.69,122.021098 L260.69,123.473098 L259.802,123.473098 L259.58402,123.467698 C258.94574,123.435298 258.4484,123.257098 258.092,122.933098 C257.696,122.573098 257.498,121.973098 257.498,121.133098 L257.498,121.133098 L257.498,118.253098 L256.574,118.253098 L256.574,116.825098 L257.498,116.825098 L257.498,115.181098 L259.19,115.181098 Z M225.806,118.205098 C225.334,118.205098 224.934,118.371098 224.606,118.703098 C224.278,119.035098 224.114,119.517098 224.114,120.149098 C224.114,120.781098 224.278,121.263098 224.606,121.595098 C224.934,121.927098 225.334,122.093098 225.806,122.093098 C226.278,122.093098 226.678,121.927098 227.006,121.595098 C227.334,121.263098 227.498,120.781098 227.498,120.149098 C227.498,119.517098 227.334,119.035098 227.006,118.703098 C226.678,118.371098 226.278,118.205098 225.806,118.205098 Z M180.842,118.217098 C180.314,118.217098 179.89,118.389098 179.57,118.733098 C179.25,119.077098 179.09,119.549098 179.09,120.149098 C179.09,120.749098 179.25,121.219098 179.57,121.559098 C179.89,121.899098 180.314,122.069098 180.842,122.069098 C181.354,122.069098 181.776,121.895098 182.108,121.547098 C182.44,121.199098 182.606,120.733098 182.606,120.149098 C182.606,119.557098 182.44,119.087098 182.108,118.739098 C181.776,118.391098 181.354,118.217098 180.842,118.217098 Z M214.526,118.217098 C213.998,118.217098 213.574,118.389098 213.254,118.733098 C212.934,119.077098 212.774,119.549098 212.774,120.149098 C212.774,120.749098 212.934,121.219098 213.254,121.559098 C213.574,121.899098 213.998,122.069098 214.526,122.069098 C215.038,122.069098 215.46,121.895098 215.792,121.547098 C216.124,121.199098 216.29,120.733098 216.29,120.149098 C216.29,119.557098 216.124,119.087098 215.792,118.739098 C215.46,118.391098 215.038,118.217098 214.526,118.217098 Z M114.540573,115.929159 L114.544761,122.029263 L118.028272,118.958596 L114.540573,115.929159 Z M252.674,118.073098 C252.218,118.073098 251.834,118.213098 251.522,118.493098 C251.21,118.773098 251.038,119.185098 251.006,119.729098 L251.006,119.729098 L254.234,119.729098 C254.258,119.185098 254.116,118.773098 253.808,118.493098 C253.5,118.213098 253.122,118.073098 252.674,118.073098 Z M220.358,113.993098 C220.67,113.993098 220.922,114.079098 221.114,114.251098 C221.306,114.423098 221.402,114.645098 221.402,114.917098 C221.402,115.181098 221.306,115.399098 221.114,115.571098 C220.922,115.743098 220.67,115.829098 220.358,115.829098 C220.046,115.829098 219.794,115.743098 219.602,115.571098 C219.41,115.399098 219.314,115.181098 219.314,114.917098 C219.314,114.645098 219.41,114.423098 219.602,114.251098 C219.794,114.079098 220.046,113.993098 220.358,113.993098 Z M160.946,113.993098 C161.258,113.993098 161.51,114.079098 161.702,114.251098 C161.894,114.423098 161.99,114.645098 161.99,114.917098 C161.99,115.181098 161.894,115.399098 161.702,115.571098 C161.51,115.743098 161.258,115.829098 160.946,115.829098 C160.634,115.829098 160.382,115.743098 160.19,115.571098 C159.998,115.399098 159.902,115.181098 159.902,114.917098 C159.902,114.645098 159.998,114.423098 160.19,114.251098 C160.382,114.079098 160.634,113.993098 160.946,113.993098 Z" id="mini-logo-visualstudio"></path>
        </g>
    </g>
</svg>