<?xml version="1.0" encoding="UTF-8"?>
<svg width="69px" height="28px" viewBox="0 0 69 28" version="1.1" xmlns="http://www.w3.org/2000/svg" xmlns:xlink="http://www.w3.org/1999/xlink">
    <title>mini-logo-com</title>
    <g id="Page-1" stroke="none" stroke-width="1" fill="none" fill-rule="evenodd">
        <g id="Artboard" transform="translate(-558.000000, -105.000000)" fill="#FFFFFF" fill-rule="nonzero">
            <path d="M558.717612,114.463112 L573.129498,122.657898 L573.129498,132.95 L558.717612,124.755215 L558.717612,114.463112 Z M588.717612,114.463112 L588.717612,124.755215 L574.305726,132.95 L574.305726,122.657898 L588.717612,114.463112 Z M611.937612,114.880222 C612.729612,114.880222 613.447612,115.064222 614.091612,115.432222 C614.735612,115.800222 615.243612,116.314222 615.615612,116.974222 C615.987612,117.634222 616.173612,118.380222 616.173612,119.212222 C616.173612,120.044222 615.987612,120.792222 615.615612,121.456222 C615.243612,122.120222 614.735612,122.636222 614.091612,123.004222 C613.447612,123.372222 612.729612,123.556222 611.937612,123.556222 C611.145612,123.556222 610.427612,123.372222 609.783612,123.004222 C609.139612,122.636222 608.631612,122.120222 608.259612,121.456222 C607.887612,120.792222 607.701612,120.044222 607.701612,119.212222 C607.701612,118.380222 607.887612,117.634222 608.259612,116.974222 C608.631612,116.314222 609.139612,115.800222 609.783612,115.432222 C610.427612,115.064222 611.145612,114.880222 611.937612,114.880222 Z M602.685612,114.916222 C603.741612,114.916222 604.617612,115.188222 605.313612,115.732222 C606.009612,116.276222 606.469612,117.016222 606.693612,117.952222 L606.693612,117.952222 L604.917612,117.952222 L604.83251,117.762671 C604.649816,117.395324 604.392183,117.098508 604.059612,116.872222 C603.671612,116.608222 603.205612,116.476222 602.661612,116.476222 C602.213612,116.476222 601.809612,116.588222 601.449612,116.812222 C601.089612,117.036222 600.809612,117.356222 600.609612,117.772222 C600.409612,118.188222 600.309612,118.676222 600.309612,119.236222 C600.309612,119.788222 600.409612,120.272222 600.609612,120.688222 C600.809612,121.104222 601.089612,121.424222 601.449612,121.648222 C601.809612,121.872222 602.213612,121.984222 602.661612,121.984222 C603.205612,121.984222 603.671612,121.852222 604.059612,121.588222 C604.447612,121.324222 604.733612,120.964222 604.917612,120.508222 L604.917612,120.508222 L606.693612,120.508222 L606.62667,120.758635 C606.384025,121.577148 605.946339,122.233677 605.313612,122.728222 C604.617612,123.272222 603.741612,123.544222 602.685612,123.544222 C601.877612,123.544222 601.163612,123.362222 600.543612,122.998222 C599.923612,122.634222 599.443612,122.124222 599.103612,121.468222 C598.763612,120.812222 598.593612,120.068222 598.593612,119.236222 C598.593612,118.396222 598.763612,117.648222 599.103612,116.992222 C599.443612,116.336222 599.921612,115.826222 600.537612,115.462222 C601.153612,115.098222 601.869612,114.916222 602.685612,114.916222 Z M619.497612,115.096222 L622.041612,121.396222 L624.537612,115.096222 L626.577612,115.096222 L626.577612,123.472222 L624.897612,123.472222 L624.897612,117.628222 L622.749612,123.472222 L621.285612,123.472222 L619.137612,117.652222 L619.137612,123.472222 L617.445612,123.472222 L617.445612,115.096222 L619.497612,115.096222 Z M611.937612,116.440222 C611.441612,116.440222 611.005612,116.552222 610.629612,116.776222 C610.253612,117.000222 609.959612,117.322222 609.747612,117.742222 C609.535612,118.162222 609.429612,118.652222 609.429612,119.212222 C609.429612,119.772222 609.535612,120.262222 609.747612,120.682222 C609.959612,121.102222 610.253612,121.424222 610.629612,121.648222 C611.005612,121.872222 611.441612,121.984222 611.937612,121.984222 C612.433612,121.984222 612.869612,121.872222 613.245612,121.648222 C613.621612,121.424222 613.915612,121.102222 614.127612,120.682222 C614.339612,120.262222 614.445612,119.772222 614.445612,119.212222 C614.445612,118.652222 614.339612,118.162222 614.127612,117.742222 C613.915612,117.322222 613.621612,117.000222 613.245612,116.776222 C612.869612,116.552222 612.433612,116.440222 611.937612,116.440222 Z M573.518041,104.994444 C575.71382,104.994444 577.498007,105.962714 577.533471,107.164557 L577.533554,107.17073 L580.820423,109.036138 C580.935122,109.029675 581.051251,109.025864 581.168604,109.024818 L581.235015,109.024522 C583.452973,109.024522 585.250983,110.012452 585.250983,111.231126 C585.250983,111.33248 585.238546,111.432239 585.214465,111.529965 L588.180367,113.213321 L573.717611,121.42169 L559.254857,113.213323 L562.07355,111.613528 C562.034055,111.489322 562.013463,111.361545 562.013463,111.231126 C562.013463,110.012452 563.811472,109.024522 566.029431,109.024522 C566.222008,109.024522 566.411419,109.03197 566.596762,109.04637 L569.516478,107.389265 C569.50694,107.327222 569.502074,107.264447 569.502074,107.201047 C569.502074,105.982374 571.300084,104.994444 573.518041,104.994444 Z M577.267265,115.86802 L577.265432,115.870633 C576.684709,116.69644 575.225869,117.282183 573.518041,117.282183 C571.808429,117.282183 570.348325,116.695215 569.768833,115.86802 C569.596518,116.11397 569.502074,116.381155 569.502074,116.660461 C569.502074,117.879135 571.300084,118.867065 573.518041,118.867065 C575.735999,118.867065 577.534009,117.879135 577.534009,116.660461 C577.534009,116.381155 577.439564,116.11397 577.267265,115.86802 Z M569.778639,112.023543 L569.776821,112.026178 C569.196099,112.851984 567.737258,113.437727 566.029431,113.437727 C564.319818,113.437727 562.859714,112.85076 562.280223,112.023589 C562.107908,112.269515 562.013463,112.536701 562.013463,112.816007 C562.013463,114.03468 563.811472,115.022608 566.029431,115.022608 C568.247389,115.022608 570.045398,114.034679 570.045398,112.816007 C570.045398,112.536693 569.950948,112.269499 569.778639,112.023543 Z M584.984223,112.023541 L584.982406,112.026178 C584.401683,112.851984 582.942843,113.437727 581.235015,113.437727 C579.525388,113.437727 578.065273,112.850749 577.485792,112.023541 C577.313498,112.269497 577.219047,112.53669 577.219047,112.816005 C577.219047,114.034678 579.017057,115.022606 581.235015,115.022606 C583.452973,115.022606 585.250983,114.034677 585.250983,112.816005 C585.250983,112.53669 585.156532,112.269497 584.984223,112.023541 Z M577.267263,107.993483 L577.265432,107.9961 C576.684709,108.821907 575.225869,109.40765 573.518041,109.40765 C571.808414,109.40765 570.348299,108.820672 569.768818,107.993483 C569.596519,108.239434 569.502074,108.50662 569.502074,108.785927 C569.502074,110.0046 571.300084,110.99253 573.518041,110.99253 C575.735999,110.99253 577.534009,110.0046 577.534009,108.785927 C577.534009,108.50662 577.439564,108.239434 577.267263,107.993483 Z" id="mini-logo-com"></path>
        </g>
    </g>
</svg>