<?xml version="1.0" encoding="UTF-8"?>
<svg width="97px" height="31px" viewBox="0 0 97 31" version="1.1" xmlns="http://www.w3.org/2000/svg" xmlns:xlink="http://www.w3.org/1999/xlink">
    <title>mini-logo-html5</title>
    <g id="Page-1" stroke="none" stroke-width="1" fill="none" fill-rule="evenodd">
        <g id="Artboard" transform="translate(-305.000000, -103.000000)" fill="#FFFFFF" fill-rule="nonzero">
            <path d="M331.112388,103.972222 L328.743753,130.476687 L318.047565,133.972222 L307.419247,130.476687 L305.050612,103.972222 L331.112388,103.972222 Z M326.266527,109.342758 L309.90326,109.342758 L310.771986,119.092758 L322.099357,119.092758 L321.692142,123.257937 L318.047565,124.228919 L314.416563,123.257937 L314.179021,120.706597 L310.941659,120.706597 L311.348875,125.78249 L318.047565,127.610615 L318.122222,127.610615 L318.122222,127.590526 L324.766617,125.78249 L325.689638,115.84499 L313.771805,115.84499 L313.493542,112.536954 L325.967902,112.536954 L326.266527,109.342758 Z M385.310388,113.776222 L385.310388,124.924222 L383.618388,124.924222 L383.618388,113.776222 L385.310388,113.776222 Z M394.058388,115.000222 L394.058388,120.976222 L394.052785,121.194255 C394.015429,121.905991 393.791297,122.467313 393.380388,122.878222 C392.928388,123.330222 392.302388,123.556222 391.502388,123.556222 C390.638388,123.556222 389.954388,123.308222 389.450388,122.812222 C388.946388,122.316222 388.694388,121.608222 388.694388,120.688222 L388.694388,120.688222 L390.362388,120.688222 L390.367898,120.867243 C390.389939,121.213039 390.478102,121.485365 390.632388,121.684222 C390.812388,121.916222 391.078388,122.032222 391.430388,122.032222 C391.750388,122.032222 391.986388,121.938222 392.138388,121.750222 C392.290388,121.562222 392.366388,121.304222 392.366388,120.976222 L392.366388,120.976222 L392.366388,115.000222 L394.058388,115.000222 Z M398.138388,114.880222 C399.034388,114.880222 399.748388,115.096222 400.280388,115.528222 C400.812388,115.960222 401.114388,116.536222 401.186388,117.256222 L401.186388,117.256222 L399.362388,117.256222 L399.331721,117.108722 C399.269499,116.870389 399.151721,116.669556 398.978388,116.506222 C398.770388,116.310222 398.486388,116.212222 398.126388,116.212222 C397.814388,116.212222 397.562388,116.294222 397.370388,116.458222 C397.178388,116.622222 397.082388,116.860222 397.082388,117.172222 C397.082388,117.420222 397.156388,117.626222 397.304388,117.790222 C397.452388,117.954222 397.640388,118.088222 397.868388,118.192222 C398.096388,118.296222 398.406388,118.412222 398.798388,118.540222 C399.342388,118.732222 399.784388,118.912222 400.124388,119.080222 C400.464388,119.248222 400.754388,119.500222 400.994388,119.836222 C401.234388,120.172222 401.354388,120.612222 401.354388,121.156222 C401.354388,121.588222 401.246388,121.986222 401.030388,122.350222 C400.814388,122.714222 400.494388,123.006222 400.070388,123.226222 C399.646388,123.446222 399.130388,123.556222 398.522388,123.556222 C397.922388,123.556222 397.386388,123.454222 396.914388,123.250222 C396.442388,123.046222 396.064388,122.752222 395.780388,122.368222 C395.496388,121.984222 395.334388,121.536222 395.294388,121.024222 L395.294388,121.024222 L397.094388,121.024222 L397.122555,121.191389 C397.18311,121.461944 397.311721,121.692222 397.508388,121.882222 C397.744388,122.110222 398.058388,122.224222 398.450388,122.224222 C398.802388,122.224222 399.072388,122.130222 399.260388,121.942222 C399.448388,121.754222 399.542388,121.512222 399.542388,121.216222 C399.542388,120.952222 399.466388,120.734222 399.314388,120.562222 C399.162388,120.390222 398.970388,120.252222 398.738388,120.148222 C398.506388,120.044222 398.186388,119.924222 397.778388,119.788222 C397.250388,119.612222 396.818388,119.438222 396.482388,119.266222 C396.146388,119.094222 395.860388,118.844222 395.624388,118.516222 C395.388388,118.188222 395.270388,117.760222 395.270388,117.232222 C395.270388,116.504222 395.532388,115.930222 396.056388,115.510222 C396.580388,115.090222 397.274388,114.880222 398.138388,114.880222 Z M379.478388,114.832222 L379.478388,116.320222 L375.458388,116.320222 L375.458388,118.456222 L375.577188,118.331662 C375.746788,118.172302 375.961188,118.039822 376.220388,117.934222 C376.544388,117.802222 376.902388,117.736222 377.294388,117.736222 C377.878388,117.736222 378.364388,117.862222 378.752388,118.114222 C379.140388,118.366222 379.428388,118.702222 379.616388,119.122222 C379.804388,119.542222 379.898388,120.008222 379.898388,120.520222 C379.898388,121.424222 379.644388,122.148222 379.136388,122.692222 C378.628388,123.236222 377.902388,123.508222 376.958388,123.508222 C376.342388,123.508222 375.806388,123.398222 375.350388,123.178222 C374.894388,122.958222 374.538388,122.650222 374.282388,122.254222 C374.026388,121.858222 373.886388,121.396222 373.862388,120.868222 L373.862388,120.868222 L375.506388,120.868222 L375.545388,121.042056 C375.622055,121.3215 375.757055,121.549556 375.950388,121.726222 C376.182388,121.938222 376.490388,122.044222 376.874388,122.044222 C377.338388,122.044222 377.684388,121.902222 377.912388,121.618222 C378.140388,121.334222 378.254388,120.956222 378.254388,120.484222 C378.254388,120.036222 378.134388,119.688222 377.894388,119.440222 C377.654388,119.192222 377.314388,119.068222 376.874388,119.068222 C376.554388,119.068222 376.282388,119.138222 376.058388,119.278222 C375.834388,119.418222 375.670388,119.604222 375.566388,119.836222 L375.566388,119.836222 L373.922388,119.836222 L373.922388,114.832222 L379.478388,114.832222 Z M343.850388,115.000222 L343.850388,118.432222 L347.474388,118.432222 L347.474388,115.000222 L349.178388,115.000222 L349.178388,123.472222 L347.474388,123.472222 L347.474388,119.788222 L343.850388,119.788222 L343.850388,123.472222 L342.158388,123.472222 L342.158388,115.000222 L343.850388,115.000222 Z M356.474388,115.000222 L356.474388,116.344222 L354.134388,116.344222 L354.134388,123.472222 L352.442388,123.472222 L352.442388,116.344222 L350.114388,116.344222 L350.114388,115.000222 L356.474388,115.000222 Z M359.462388,115.096222 L362.006388,121.396222 L364.502388,115.096222 L366.542388,115.096222 L366.542388,123.472222 L364.862388,123.472222 L364.862388,117.628222 L362.714388,123.472222 L361.250388,123.472222 L359.102388,117.652222 L359.102388,123.472222 L357.410388,123.472222 L357.410388,115.096222 L359.462388,115.096222 Z M369.770388,115.000222 L369.770388,122.176222 L372.614388,122.176222 L372.614388,123.472222 L368.078388,123.472222 L368.078388,115.000222 L369.770388,115.000222 Z" id="mini-logo-html5"></path>
        </g>
    </g>
</svg>