<?xml version="1.0" encoding="UTF-8"?>
<svg width="70px" height="31px" viewBox="0 0 70 31" version="1.1" xmlns="http://www.w3.org/2000/svg" xmlns:xlink="http://www.w3.org/1999/xlink">
    <title>mini-logo-java</title>
    <g id="Page-1" stroke="none" stroke-width="1" fill="none" fill-rule="evenodd">
        <g id="Artboard" transform="translate(-445.000000, -103.000000)" fill="#FFFFFF" fill-rule="nonzero">
            <path d="M460.715,103.972222 C468.999271,103.972222 475.715,110.687951 475.715,118.972222 C475.715,127.256493 468.999271,133.972222 460.715,133.972222 C452.430729,133.972222 445.715,127.256493 445.715,118.972222 C445.715,110.687951 452.430729,103.972222 460.715,103.972222 Z M469.628092,126.255207 C469.628092,126.255207 469.322336,126.989121 465.98768,127.576252 C462.227831,128.234551 457.588933,128.158936 454.841903,127.736379 C454.924348,127.787084 455.592424,128.179023 458.300773,128.341302 C462.705576,128.603732 469.470436,128.194519 469.628092,126.255207 Z M452.819133,126.820098 C462.576585,128.296823 470.610334,126.157351 468.078289,125.094288 C468.078289,125.094288 468.771019,125.623596 467.318676,126.037256 C464.552536,126.81565 455.814591,127.051392 453.387649,126.068392 C452.513377,125.717003 454.15204,125.223279 454.668004,125.120976 C455.203078,125.014224 455.513612,125.032016 455.513612,125.032016 C454.543791,124.395957 449.240828,126.281894 452.819133,126.820098 Z M457.397836,123.25283 C453.637987,124.231383 459.686231,126.250759 464.47323,124.342582 C464.006362,124.173712 463.555676,123.968374 463.125991,123.728762 C460.990473,124.10684 460.001543,124.133527 458.0619,123.928921 C456.632933,123.778008 457.226305,123.357607 457.36986,123.269254 L457.394411,123.254732 C457.396641,123.253477 457.397836,123.25283 457.397836,123.25283 Z M490.885,115.000222 L490.885,120.976222 L490.879397,121.194255 C490.842041,121.905991 490.617909,122.467313 490.207,122.878222 C489.755,123.330222 489.129,123.556222 488.329,123.556222 C487.465,123.556222 486.781,123.308222 486.277,122.812222 C485.773,122.316222 485.521,121.608222 485.521,120.688222 L485.521,120.688222 L487.189,120.688222 L487.19451,120.867243 C487.216551,121.213039 487.304714,121.485365 487.459,121.684222 C487.639,121.916222 487.905,122.032222 488.257,122.032222 C488.577,122.032222 488.813,121.938222 488.965,121.750222 C489.117,121.562222 489.193,121.304222 489.193,120.976222 L489.193,120.976222 L489.193,115.000222 L490.885,115.000222 Z M494.965,116.740222 C495.525,116.740222 496.005,116.872222 496.405,117.136222 C496.805,117.400222 497.089,117.756222 497.257,118.204222 L497.257,118.204222 L497.257,116.824222 L498.937,116.824222 L498.937,123.472222 L497.257,123.472222 L497.257,122.081222 L497.177898,122.266712 C497.034224,122.568345 496.831367,122.824059 496.569327,123.033855 L496.405,123.154222 C496.005,123.422222 495.525,123.556222 494.965,123.556222 C494.405,123.556222 493.901,123.420222 493.453,123.148222 C493.005,122.876222 492.655,122.482222 492.403,121.966222 C492.151,121.450222 492.025,120.844222 492.025,120.148222 C492.025,119.452222 492.151,118.846222 492.403,118.330222 C492.655,117.814222 493.005,117.420222 493.453,117.148222 C493.901,116.876222 494.405,116.740222 494.965,116.740222 Z M510.385,116.740222 C510.945,116.740222 511.425,116.872222 511.825,117.136222 C512.225,117.400222 512.509,117.756222 512.677,118.204222 L512.677,118.204222 L512.677,116.824222 L514.357,116.824222 L514.357,123.472222 L512.677,123.472222 L512.676,122.081222 L512.597898,122.266712 C512.454224,122.568345 512.251367,122.824059 511.989327,123.033855 L511.825,123.154222 C511.425,123.422222 510.945,123.556222 510.385,123.556222 C509.825,123.556222 509.321,123.420222 508.873,123.148222 C508.425,122.876222 508.075,122.482222 507.823,121.966222 C507.571,121.450222 507.445,120.844222 507.445,120.148222 C507.445,119.452222 507.571,118.846222 507.823,118.330222 C508.075,117.814222 508.425,117.420222 508.873,117.148222 C509.321,116.876222 509.825,116.740222 510.385,116.740222 Z M501.673,116.824222 L503.365,121.780222 L505.045,116.824222 L506.845,116.824222 L504.385,123.472222 L502.321,123.472222 L499.861,116.824222 L501.673,116.824222 Z M456.814987,120.757522 C452.668166,122.038536 459.117715,123.488572 464.912755,121.909545 C464.538218,121.786416 464.195035,121.592586 463.904714,121.340205 C461.076467,121.847273 459.437804,121.833929 457.369171,121.633771 C455.768727,121.478092 456.814987,120.757522 456.814987,120.757522 Z M466.675632,118.110983 C466.517461,118.165096 466.380792,118.262856 466.283881,118.391205 C466.454894,118.333579 466.630643,118.288953 466.8094,118.257766 C468.290408,117.968648 470.41637,120.103671 465.825247,122.323206 C465.799139,122.365586 465.766998,122.404488 465.729698,122.438853 C471.859158,120.939888 469.604205,117.150222 466.675632,118.110983 Z M495.493,118.216222 C494.965,118.216222 494.541,118.388222 494.221,118.732222 C493.901,119.076222 493.741,119.548222 493.741,120.148222 C493.741,120.748222 493.901,121.218222 494.221,121.558222 C494.541,121.898222 494.965,122.068222 495.493,122.068222 C496.005,122.068222 496.427,121.894222 496.759,121.546222 C497.091,121.198222 497.257,120.732222 497.257,120.148222 C497.257,119.556222 497.091,119.086222 496.759,118.738222 C496.427,118.390222 496.005,118.216222 495.493,118.216222 Z M510.913,118.216222 C510.385,118.216222 509.961,118.388222 509.641,118.732222 C509.321,119.076222 509.161,119.548222 509.161,120.148222 C509.161,120.748222 509.321,121.218222 509.641,121.558222 C509.961,121.898222 510.385,122.068222 510.913,122.068222 C511.425,122.068222 511.847,121.894222 512.179,121.546222 C512.511,121.198222 512.677,120.732222 512.677,120.148222 C512.677,119.556222 512.511,119.086222 512.179,118.738222 C511.847,118.390222 511.425,118.216222 510.913,118.216222 Z M457.745182,118.170116 L457.622356,118.170016 C457.089349,118.176114 455.666695,118.270474 453.996296,119.018368 C451.488138,120.148151 461.200316,120.913099 465.715,119.805556 C466.183189,119.507542 465.839579,119.000576 465.839579,119.000576 C465.839579,119.000576 464.26421,119.265874 462.575174,119.41864 L462.151392,119.454268 C459.901216,119.627739 457.48383,119.663322 456.270359,119.512092 C453.513965,119.170488 457.502802,118.250891 457.826319,118.17787 L457.846915,118.173254 C457.846915,118.173254 457.811718,118.171076 457.745182,118.170116 Z M466.116673,110.29146 C466.121448,110.29146 457.746589,112.239669 461.74531,116.527507 C462.843957,117.70361 461.627669,118.771757 461.454679,118.913493 L461.434776,118.929408 C461.434776,118.929408 464.430233,117.488268 463.054329,115.686842 C463.010014,115.628865 462.966057,115.571893 462.922705,115.515807 L462.794707,115.350092 C461.663491,113.88046 461.152742,112.970822 466.116673,110.29146 Z M463.054329,105.638889 C463.679551,107.92669 462.205443,109.243809 460.577876,110.450941 L460.227472,110.708242 C459.290579,111.391562 458.348962,112.059043 457.765699,112.87128 C456.62389,114.468099 458.32466,116.180566 460.64172,118.128775 C460.427169,117.679854 460.092244,117.243855 459.758261,116.801218 L459.604623,116.596382 C458.586708,115.226716 457.754407,113.765725 460.64172,111.643642 C465.258269,108.25188 463.364258,105.965593 463.086223,105.671177 L463.054329,105.638889 Z" id="mini-logo-java"></path>
        </g>
    </g>
</svg>