<svg width="16" height="16" viewBox="0 0 16 16" fill="none" xmlns="http://www.w3.org/2000/svg">
<path d="M14.6667 15.8319H1.33333C0.873096 15.8319 0.5 15.4589 0.5 14.9986C0.5 14.5384 0.873096 14.1653 1.33333 14.1653H14.6667C15.1269 14.1653 15.5 14.5384 15.5 14.9986C15.5 15.4589 15.1269 15.8319 14.6667 15.8319Z" fill="#A0BAFA"/>
<path d="M14.6667 1.83195H1.33333C0.873096 1.83195 0.5 1.45885 0.5 0.998617C0.5 0.538379 0.873096 0.165283 1.33333 0.165283H14.6667C15.1269 0.165283 15.5 0.538379 15.5 0.998617C15.5 1.45885 15.1269 1.83195 14.6667 1.83195Z" fill="#57619E"/>
<path d="M13.3333 6.49858H2.66668C2.20644 6.49858 1.83334 6.12548 1.83334 5.66524C1.83334 5.20501 2.20644 4.83191 2.66668 4.83191H13.3333C13.7936 4.83191 14.1667 5.20501 14.1667 5.66524C14.1667 6.12548 13.7936 6.49858 13.3333 6.49858Z" fill="#A0BAFA"/>
<path d="M11.6667 11.1653H4.33333C3.8731 11.1653 3.5 10.7922 3.5 10.332C3.5 9.87175 3.8731 9.49866 4.33333 9.49866H11.6667C12.1269 9.49866 12.5 9.87175 12.5 10.332C12.5 10.7922 12.1269 11.1653 11.6667 11.1653Z" fill="#57619E"/>
</svg>
