<svg id="Capa_1" enable-background="new 0 0 512 512" height="512" viewBox="0 0 512 512" width="512" xmlns="http://www.w3.org/2000/svg" xmlns:xlink="http://www.w3.org/1999/xlink"><linearGradient id="SVGID_1_" gradientUnits="userSpaceOnUse" x1="256" x2="256" y1="512" y2="30"><stop offset="0" stop-color="#ffbef9"/><stop offset="1" stop-color="#fff1ff"/></linearGradient><linearGradient id="SVGID_2_" gradientUnits="userSpaceOnUse" x1="256" x2="256" y1="466" y2="0"><stop offset="0" stop-color="#a93aff"/><stop offset="1" stop-color="#ff81ff"/></linearGradient><g><path d="m31 30v467c0 8.284 6.716 15 15 15h420c8.284 0 15-6.716 15-15v-467z" fill="url(#SVGID_1_)"/><g><path d="m467 256h-422c-24.813 0-45 20.187-45 45v120c0 24.813 20.187 45 45 45h422c24.813 0 45-20.187 45-45v-120c0-24.813-20.187-45-45-45zm-226 135c0 8.284-6.716 15-15 15h-150c-8.284 0-15-6.716-15-15v-60c0-8.284 6.716-15 15-15h150c8.284 0 15 6.716 15 15zm85 15h-40c-8.284 0-15-6.716-15-15s6.716-15 15-15h40c8.284 0 15 6.716 15 15s-6.716 15-15 15zm110 0h-40c-8.284 0-15-6.716-15-15s6.716-15 15-15h40c8.284 0 15 6.716 15 15s-6.716 15-15 15zm0-60h-150c-8.284 0-15-6.716-15-15s6.716-15 15-15h150c8.284 0 15 6.716 15 15s-6.716 15-15 15zm31-346h-422c-24.813 0-45 20.187-45 45v120c0 24.813 20.187 45 45 45h422c24.813 0 45-20.187 45-45v-120c0-24.813-20.187-45-45-45zm-226 135c0 8.284-6.716 15-15 15h-150c-8.284 0-15-6.716-15-15v-60c0-8.284 6.716-15 15-15h150c8.284 0 15 6.716 15 15zm85 15h-40c-8.284 0-15-6.716-15-15s6.716-15 15-15h40c8.284 0 15 6.716 15 15s-6.716 15-15 15zm110 0h-40c-8.284 0-15-6.716-15-15s6.716-15 15-15h40c8.284 0 15 6.716 15 15s-6.716 15-15 15zm0-60h-150c-8.284 0-15-6.716-15-15s6.716-15 15-15h150c8.284 0 15 6.716 15 15s-6.716 15-15 15z" fill="url(#SVGID_2_)"/></g></g></svg>