<svg width="16" height="16" viewBox="0 0 16 16" fill="none" xmlns="http://www.w3.org/2000/svg">
<path fill-rule="evenodd" clip-rule="evenodd" d="M6.93066 8.30469C6.90626 8.23921 6.84388 8.19567 6.774 8.19536H2.55933C2.48957 8.19556 2.42733 8.23919 2.40333 8.30469L1.626 10.4247C1.54921 10.6551 1.35317 10.8256 1.11429 10.8696C0.87541 10.9136 0.631502 10.8242 0.477645 10.6362C0.323789 10.4483 0.284335 10.1915 0.374665 9.96602L3.728 0.820023C3.87233 0.425964 4.24734 0.16394 4.667 0.16394C5.08666 0.16394 5.46167 0.425964 5.606 0.820023L8.95933 9.96602C9.04966 10.1915 9.01021 10.4483 8.85635 10.6362C8.70249 10.8242 8.45859 10.9136 8.21971 10.8696C7.98083 10.8256 7.78478 10.6551 7.708 10.4247L6.93066 8.30469ZM4.664 2.44948C4.59426 2.44948 4.53183 2.49273 4.50733 2.55802L3.014 6.63802C2.99526 6.68917 3.0027 6.74624 3.03392 6.79088C3.06513 6.83552 3.11619 6.86208 3.17066 6.86202H6.16C6.21447 6.86208 6.26553 6.83552 6.29675 6.79088C6.32797 6.74624 6.3354 6.68917 6.31666 6.63802L4.82066 2.55802C4.79616 2.49273 4.73374 2.44948 4.664 2.44948Z" fill="#A0BAFA"/>
<path d="M15.3873 5.65333C15.0879 5.4397 14.6721 5.50891 14.458 5.808L8.47668 14.1807C8.41973 14.2603 8.33064 14.3109 8.23307 14.319C8.13549 14.3271 8.0393 14.2918 7.97001 14.2227L5.47134 11.724C5.30396 11.5507 5.05609 11.4812 4.823 11.5422C4.58992 11.6032 4.40789 11.7852 4.34688 12.0183C4.28587 12.2514 4.35537 12.4993 4.52868 12.6667L7.30534 15.4433C7.55484 15.6929 7.89311 15.8334 8.24601 15.834C8.28268 15.834 8.32001 15.834 8.35668 15.8293C8.74824 15.7985 9.10596 15.5956 9.33334 15.2753L15.5427 6.58266C15.7562 6.28309 15.6867 5.8672 15.3873 5.65333Z" fill="#57619E"/>
</svg>
