<svg id="Capa_1" enable-background="new 0 0 512 512" height="512" viewBox="0 0 512 512" width="512" xmlns="http://www.w3.org/2000/svg" xmlns:xlink="http://www.w3.org/1999/xlink"><linearGradient id="SVGID_1_" gradientUnits="userSpaceOnUse" x1="256" x2="256" y1="436" y2="76"><stop offset="0" stop-color="#fd3a84"/><stop offset="1" stop-color="#ffa68d"/></linearGradient><linearGradient id="SVGID_2_" gradientUnits="userSpaceOnUse" x1="256" x2="256" y1="451" y2="61"><stop offset="0" stop-color="#ffc8d1"/><stop offset="1" stop-color="#fff6f7"/></linearGradient><g><path d="m497 116v280c0 22.091-17.909 40-40 40h-402c-22.091 0-40-17.909-40-40v-280c0-22.091 17.909-40 40-40h402c22.091 0 40 17.909 40 40z" fill="url(#SVGID_1_)"/><path d="m457 451h-402c-30.327 0-55-24.673-55-55v-280c0-30.327 24.673-55 55-55h402c30.327 0 55 24.673 55 55v280c0 30.327-24.673 55-55 55zm-402-360c-13.785 0-25 11.215-25 25v280c0 13.785 11.215 25 25 25h402c13.785 0 25-11.215 25-25v-280c0-13.785-11.215-25-25-25zm101 50c-8.284 0-15 6.716-15 15v65h-50v-65c0-8.284-6.716-15-15-15s-15 6.716-15 15v80c0 8.284 6.716 15 15 15h65v65c0 8.284 6.716 15 15 15s15-6.716 15-15v-160c0-8.284-6.716-15-15-15zm110 190h-20c-24.813 0-45-20.187-45-45v-100c0-24.813 20.187-45 45-45h20c24.813 0 45 20.187 45 45v100c0 24.813-20.187 45-45 45zm-20-160c-8.271 0-15 6.729-15 15v100c0 8.271 6.729 15 15 15h20c8.271 0 15-6.729 15-15v-100c0-8.271-6.729-15-15-15zm205 65c0-19.555-12.541-36.228-30-42.42v-27.58c0-8.284-6.716-15-15-15s-15 6.716-15 15v27.58c-17.459 6.192-30 22.865-30 42.42s12.541 36.228 30 42.42v97.58c0 8.284 6.716 15 15 15s15-6.716 15-15v-97.58c17.459-6.192 30-22.865 30-42.42zm-90 140c0-8.284-6.716-15-15-15h-270c-8.284 0-15 6.716-15 15s6.716 15 15 15h270c8.284 0 15-6.716 15-15zm10-240c0-8.284-6.716-15-15-15h-20c-8.284 0-15 6.716-15 15s6.716 15 15 15h20c8.284 0 15-6.716 15-15z" fill="url(#SVGID_2_)"/></g></svg>