<svg xmlns="http://www.w3.org/2000/svg" width="73.144" height="73.176" viewBox="0 0 73.144 73.176">
  <path id="tool" d="M36.472,57.306a2.858,2.858,0,1,1,2.858-2.858,2.858,2.858,0,0,1-2.858,2.858ZM39.33,44.443V40.605a11.916,11.916,0,1,0-11.243-20.1,11.7,11.7,0,0,0-3.62,8.5,2.858,2.858,0,1,0,5.717,0,6.034,6.034,0,0,1,1.87-4.381,6.324,6.324,0,0,1,4.668-1.76,6.172,6.172,0,0,1,1.13,12.213,5.344,5.344,0,0,0-4.237,5.244v4.119a2.858,2.858,0,0,0,5.717,0ZM55.545,67.9a2.858,2.858,0,1,0-2.962-4.889,31.138,31.138,0,1,1,9.667-9.29A2.858,2.858,0,1,0,67,56.894a36.5,36.5,0,1,0-11.457,11Zm0,0" transform="translate(-0.033 0.005)" fill="#7b88a8"/>
</svg>
