<?xml version="1.0" encoding="UTF-8"?>
<svg width="253px" height="252px" viewBox="0 0 253 252" version="1.1" xmlns="http://www.w3.org/2000/svg" xmlns:xlink="http://www.w3.org/1999/xlink">
    <title>visual-studio-icon</title>
    <defs>
        <linearGradient x1="50%" y1="0%" x2="50%" y2="100%" id="linearGradient-1">
            <stop stop-color="#DE66FF" offset="0%"></stop>
            <stop stop-color="#AC3CFF" offset="100%"></stop>
        </linearGradient>
    </defs>
    <g id="Page-1" stroke="none" stroke-width="1" fill="none" fill-rule="evenodd">
        <path d="M192.536367,0.914527128 L252.565854,24.3275251 L252.588767,228.592732 L192.606126,251.914527 L105.831209,169.970877 C95.2626152,159.990699 79.0596148,159.023194 67.3784896,167.674809 L35.196107,191.510662 C28.6355574,196.369727 19.9152864,197.171646 12.5785797,193.590576 C5.27272947,190.024567 0.639234984,182.60534 0.64082649,174.47565 L0.659603553,78.559119 C0.661203698,70.3853004 5.31680688,62.9256698 12.6587454,59.3330033 C20.0287592,55.7265985 28.7943343,56.5283168 35.3878397,61.411855 L67.5318557,85.219605 C79.2283172,93.8826927 95.4557941,92.9000542 106.021456,82.8889061 L192.536367,0.914527128 L192.536367,0.914527128 Z M186.561499,82.6661899 L126.60231,126.277745 L186.584952,170.231243 L186.561499,82.6661899 Z M30.6165294,100.247003 L30.6525401,152.70225 L60.6075111,126.297354 L30.6165294,100.247003 Z" id="visual-studio-icon" fill="url(#linearGradient-1)" fill-rule="nonzero"></path>
    </g>
</svg>